<?xml version="1.0" standalone="no"?>
<!DOCTYPE svg PUBLIC "-//W3C//DTD SVG 1.1//EN" "http://www.w3.org/Graphics/SVG/1.1/DTD/svg11.dtd" >
<svg>
<metadata>
Created by FontForge 20090622 at Fri May  8 06:33:48 2015
 By deploy user
Copyright (c) 2006 Parachute&#194;&#168;, www.parachute.gr.  All rights reserved.
</metadata>
<defs>
<font id="PFAgoraSerifPro-MediumItalic" horiz-adv-x="1818" >
  <font-face 
    font-family="PF Agora Serif Pro Medium"
    font-weight="500"
    font-style="italic"
    font-stretch="normal"
    units-per-em="1000"
    panose-1="2 0 5 0 0 0 0 9 0 4"
    ascent="750"
    descent="-250"
    x-height="485"
    cap-height="687"
    bbox="-308 -285 1760 953"
    underline-thickness="50"
    underline-position="-50"
    slope="-12"
    unicode-range="U+0020-U+FB05"
  />
<missing-glyph horiz-adv-x="443" 
d="M0 687h443v-687h-443v687zM343 626h-243l122 -221zM343 60l-121 221l-122 -221h243zM65 129l118 214l-118 214v-428zM378 129v428l-117 -214z" />
    <glyph glyph-name="fj" unicode="fj" horiz-adv-x="605" 
d="M398 456q32 0 80 4t92 12q3 -2 6 -3l4 -2t3 -1l-15 -110l-14 -103.5l-14.5 -105.5l-16.5 -115q-19 -125 -79.5 -192.5t-144.5 -67.5q-32 0 -53 6t-34.5 16t-19 21.5t-5.5 22.5q0 16 15 33.5t56 22.5q8 -38 30.5 -54t43.5 -16q22 0 39.5 20.5t27.5 61.5q5 21 10.5 51.5
t13.5 85l20.5 141l31.5 218.5h-213l-45 -313q-9 -61 -24.5 -120t-43.5 -105.5t-72 -75.5t-108 -29q-49 0 -79 16.5t-30 43.5q0 40 47 63q53 -59 103 -59q71 0 92 149l60 430h-101l5 33l105 28q6 42 20 90t42 88.5t73 67.5t113 27q69 0 106 -20.5t37 -53.5q0 -46 -53 -69
q-38 29 -70 49.5t-65 20.5q-26 0 -43 -9t-27 -26t-15.5 -41t-9.5 -54l-10 -77h129v0z" />
    <glyph glyph-name="ffj" unicode="ffj" horiz-adv-x="928" 
d="M215 64q-9 -60 -24.5 -119t-43 -105.5t-70 -75t-106.5 -28.5q-49 0 -79.5 17t-30.5 46q0 17 11 33t37 28q26 -25 50.5 -41t49.5 -16q36 0 59 35.5t34 111.5l62 452h-101l5 33l105 28q6 36 19 83t40 90t71 72.5t112 29.5q47 0 76.5 -15.5t29.5 -43.5q0 -16 -10.5 -31.5
t-34.5 -27.5q-21 21 -45 36.5t-47 15.5q-42 0 -66.5 -38.5t-36.5 -111.5l-10 -66h222q7 40 21 90t42 94.5t73.5 75t114.5 30.5t106.5 -21t37.5 -53q0 -46 -53 -69q-39 29 -71 49t-65 20q-25 0 -41.5 -9t-27 -25.5t-17 -40.5t-10.5 -55l-11 -86h130q32 0 79.5 4t92.5 12
q3 -2 6 -3l4 -2t3 -1q-2 -13 -6.5 -45l-10.5 -74l-12.5 -88.5l-12.5 -88.5l-11 -76t-7 -49q-19 -130 -79 -195t-144 -65q-30 0 -51 6t-34.5 16t-20 21t-6.5 22q0 17 14.5 34t55.5 22q4 -18 12 -31.5t18.5 -22t22 -12.5t21.5 -4q46 0 68 83l9.5 49t13.5 80.5l20.5 136.5
l31.5 217h-213l-46 -312q-9 -60 -24.5 -118.5t-43.5 -105t-71.5 -75.5t-108.5 -29q-48 0 -76 16.5t-28 43.5q0 41 47 62q24 -28 49 -43t49 -15q38 0 60 35t33 113l60 428h-222z" />
    <glyph glyph-name="ff" unicode="ff" horiz-adv-x="702" 
d="M731 456l-11 -54h-137l-23 -156.5l-23 -156.5q-8 -59 -23.5 -117.5t-43.5 -105t-72 -75.5t-108 -29q-53 0 -76.5 17t-23.5 45q0 41 45 61q51 -59 95 -59q38 0 60 35.5t33 113.5q1 5 5.5 37l11 78l14 98.5l14 98.5t10.5 78t5 37h-218q-14 -85 -25 -169t-24 -169
q-9 -60 -24.5 -119t-43 -105t-70 -74.5t-106.5 -28.5q-48 0 -78.5 17.5t-30.5 44.5q0 17 11 33.5t37 27.5q25 -25 50 -40.5t49 -15.5q36 0 58.5 35t33.5 111l31.5 225.5l30.5 226.5h-99q1 7 2 16t3 16l103 28q6 36 19 83t40 89.5t70.5 72t111.5 29.5q47 0 76.5 -16.5
t29.5 -42.5q0 -16 -10.5 -31.5t-34.5 -28.5q-26 24 -52 36.5t-47 12.5q-23 0 -39.5 -13.5t-28.5 -40t-20.5 -65.5t-15.5 -91h219q6 40 20.5 90t41 93t67 72.5t99.5 29.5q48 0 77 -16.5t29 -42.5q0 -16 -9.5 -32t-35.5 -27q-20 21 -44.5 36.5t-46.5 15.5q-23 0 -38.5 -13.5
t-26 -41t-18.5 -68.5t-17 -96h142z" />
    <glyph glyph-name="fi" unicode="fi" horiz-adv-x="606" 
d="M380 456q16 0 37.5 1t45.5 3t48.5 5t46.5 7q2 -1 6.5 -2.5t6.5 -3.5l-36.5 -192.5t-36.5 -207.5q23 2 44 9.5t44 18.5l9 -13t10 -13q-14 -15 -31.5 -29.5t-36.5 -25t-38.5 -17t-36.5 -6.5q-35 0 -50 14.5t-15 40.5q0 6 1 15t2 17q11 72 26 153l32 172h-197l-45 -313
q-9 -60 -25.5 -119.5t-46 -107t-74 -76.5t-108.5 -29q-18 0 -36 5t-33 13.5t-24 20t-9 24.5q0 38 47 62q25 -28 51 -43.5t51 -15.5q72 0 93 149l30 214.5l29 215.5h-100q1 8 2.5 16.5t2.5 16.5l105 27q5 27 11.5 58t18.5 61t29.5 58.5t43.5 49.5t61.5 34t82.5 13
q68 0 106 -21.5t38 -53.5q0 -45 -53 -68q-38 29 -70.5 49t-65.5 20q-32 0 -49.5 -15t-27.5 -42t-15.5 -65l-12.5 -84h112v0z" />
    <glyph glyph-name="fl" unicode="fl" horiz-adv-x="620" 
d="M417 732q44 0 79 -11l94 19l12 -10l-7 -48l-12 -80l-15.5 -101l-17 -111l-17 -110l-15.5 -98t-11.5 -75t-6.5 -41q24 2 44 8.5t43 19.5l20 -27q-14 -15 -32 -29t-37 -24.5t-38.5 -17t-35.5 -6.5q-36 0 -50 15t-14 41q0 7 1 16t3 20q2 14 8.5 54.5l15 94l18 114.5
l18.5 116l15.5 98l9.5 62q-64 38 -116 38q-47 0 -68 -35t-28 -96l-9 -72h136l-10 -54h-133l-45 -313q-9 -60 -24.5 -119.5t-43 -106t-71 -75.5t-107.5 -29q-50 0 -80 17t-30 44q0 38 47 62q25 -28 51 -43.5t51 -15.5q72 0 93 149l30 214.5l29 215.5h-100q1 8 2.5 16.5
t2.5 16.5l105 27q7 41 19.5 88t39.5 87t71.5 67t115.5 28z" />
    <glyph glyph-name="ffi" unicode="ffi" horiz-adv-x="926" 
d="M173 462q6 36 19.5 83.5t40 90t70.5 72.5t112 30q48 0 77 -16.5t29 -42.5q0 -16 -10 -31.5t-34 -28.5q-21 22 -45.5 37.5t-46.5 15.5q-27 0 -45.5 -14.5t-31 -42t-21 -68t-15.5 -91.5h219q4 26 11.5 57.5t20 64t31 62.5t45 53.5t62 37.5t81.5 14q68 0 105.5 -21t37.5 -53
q0 -45 -54 -69q-40 31 -72.5 49t-66.5 18q-29 0 -46.5 -16t-28.5 -44.5t-16.5 -67.5t-10.5 -85h111q16 0 37.5 1t45.5 3t48.5 5t47.5 7l13 -6l-37 -192.5t-37 -207.5q23 2 44 9.5t44 18.5q5 -6 10 -13l9 -13q-14 -15 -31.5 -29.5t-36.5 -25t-38.5 -17t-36.5 -6.5
q-32 0 -48.5 13t-16.5 42q0 7 1 16t3 18l26 153t31 170h-196l-45 -316q-5 -62 -21.5 -121t-46.5 -104.5t-74.5 -73.5t-105.5 -28q-51 0 -75 17.5t-24 44.5q0 41 45 61q24 -28 47.5 -43.5t47.5 -15.5q72 0 93 149l59 430h-219q-13 -85 -24 -169t-24 -169q-9 -60 -24.5 -119
t-43 -105t-70 -74.5t-106.5 -28.5q-48 0 -78.5 17.5t-30.5 44.5q0 17 11 33.5t36 27.5q26 -25 51 -40.5t49 -15.5q35 0 57.5 35t33.5 111l32 225.5l31 226.5h-100q1 8 2.5 16.5t2.5 16.5z" />
    <glyph glyph-name="ffl" unicode="ffl" horiz-adv-x="932" 
d="M482 402h-218q-13 -85 -24.5 -169l-23.5 -169q-11 -75 -29 -135t-46.5 -103t-69.5 -66t-99 -23q-48 0 -78.5 17.5t-30.5 44.5q0 17 11 33.5t36 27.5q26 -25 51 -40.5t49 -15.5q35 0 57.5 35t33.5 111l32 225.5l31 226.5h-100q1 8 2.5 16.5t2.5 16.5l104 27
q7 38 21.5 85.5t42.5 89.5t72.5 70.5t110.5 28.5q46 0 73.5 -15.5t27.5 -41.5q0 -16 -10 -31.5t-34 -28.5q-21 22 -45.5 37.5t-46.5 15.5q-27 0 -45.5 -14.5t-31 -42t-21 -68t-15.5 -91.5h219q6 39 20 89t42 95t73.5 75.5t115.5 30.5q44 0 79 -11l47.5 9.5t46.5 9.5l12 -10
l-7 -47l-12 -81.5l-16 -103.5l-18 -114l-18 -113l-16 -100.5l-12 -77t-7 -41.5q23 2 43.5 8.5t43.5 19.5l20 -27q-14 -15 -32 -29t-37 -24.5t-38.5 -17t-35.5 -6.5q-64 0 -64 56q-1 7 0.5 16l3.5 20q2 15 9 56.5l16 96.5l19 117.5l19.5 119t16 100.5l9.5 63q-64 38 -117 38
q-32 0 -50 -16t-28 -44.5t-16 -68.5t-14 -88h136l-9 -54h-134l-22.5 -157.5l-22.5 -158.5q-9 -62 -25.5 -121t-45.5 -104.5t-72.5 -73.5t-104.5 -28q-51 0 -75 17.5t-24 44.5q0 41 45 61q25 -28 48 -43.5t47 -15.5q72 0 93 149z" />
    <glyph glyph-name="ft" unicode="ft" horiz-adv-x="676" 
d="M597 601l-24 -140h116l-10 -55h-113l-31.5 -170t-24.5 -172q16 0 34 4t35.5 9.5t33.5 12.5t28 14q2 -5 9.5 -15.5t9.5 -14.5q-42 -41 -93 -63.5t-96 -22.5q-67 0 -67 60q0 13 3 33q11 83 27 163.5t30 161.5h-203l-45 -319q-10 -60 -25.5 -119t-43.5 -105.5t-70.5 -75
t-105.5 -28.5q-49 0 -78.5 16.5t-30.5 45.5q-1 18 10.5 34t36.5 27q26 -25 50.5 -41t50.5 -16q37 0 59 34.5t33 112.5l59 434h-100l5 34l104 27q6 36 18.5 83t37.5 90t66.5 72.5t105.5 29.5q47 0 75.5 -15.5t29.5 -43.5q0 -17 -10.5 -32.5t-34.5 -26.5q-20 21 -44.5 36.5
t-46.5 15.5q-38 0 -58.5 -37.5t-31.5 -112.5l-8 -65h208l67 140h53z" />
    <glyph glyph-name=".notdef" horiz-adv-x="443" 
d="M0 687h443v-687h-443v687zM343 626h-243l122 -221zM343 60l-121 221l-122 -221h243zM65 129l118 214l-118 214v-428zM378 129v428l-117 -214z" />
    <glyph glyph-name="exclam" unicode="!" horiz-adv-x="284" 
d="M149 193l11 447q0 10 3.5 22.5t11.5 23t21 17.5t32 7q29 0 42 -16.5t13 -36.5v-10t-1 -9l-48.5 -222.5l-47.5 -222.5h-37zM157 123q26 0 41.5 -17t15.5 -41q0 -33 -21.5 -55t-51.5 -22q-27 0 -42.5 16.5t-15.5 41.5q0 15 6 29t16.5 24.5t23.5 17t28 6.5z" />
    <glyph glyph-name="quotedbl" unicode="&#x22;" horiz-adv-x="280" 
d="M112 438q0 16 -0.5 43.5t-1.5 57t-1.5 57t-0.5 44.5q1 14 12.5 29t37.5 15q24 0 34.5 -14.5t5.5 -31.5l-55 -200h-31zM242 438l-4 202q0 14 11.5 29t37.5 15q23 0 34.5 -14.5t6.5 -31.5q-3 -9 -11 -38l-17.5 -62.5l-17.5 -62.5t-11 -37h-29z" />
    <glyph glyph-name="numbersign" unicode="#" horiz-adv-x="518" 
d="M228 457l57 174h52l-57 -174h134l57 174h52l-28.5 -87l-28.5 -87h70l-16 -54h-71l-54 -164h74q-5 -14 -8 -26t-8 -25h-76l-30 -94.5l-30 -93.5h-52l60 188h-134l-30 -94.5l-30 -93.5h-52l60 188h-74l18 51h74l26 82l27 82h-76l16 54h78zM263 403l-27 -82l-26 -82h133
l26.5 82l27.5 82h-134z" />
    <glyph glyph-name="quotesingle" unicode="'" horiz-adv-x="190" 
d="M132 438q0 16 -0.5 43.5t-1.5 57t-1.5 57t-0.5 44.5q0 14 12 29t38 15q24 0 34 -14.5t5 -31.5l-55 -200h-30z" />
    <glyph glyph-name="parenleft" unicode="(" horiz-adv-x="321" 
d="M387 701q-62 -63 -101.5 -130.5t-62 -136.5t-31.5 -139.5t-9 -139.5q0 -97 24 -185.5t69 -157.5l-22 -21q-82 80 -125 185t-43 217q0 78 20 152.5t57 142.5t89.5 127.5t117.5 107.5z" />
    <glyph glyph-name="parenright" unicode=")" horiz-adv-x="321" 
d="M14 -207q-5 5 -8.5 10.5t-7.5 10.5q61 63 100.5 130.5t62 136.5t31.5 139.5t9 139.5q0 97 -23.5 186t-68.5 158l10.5 10.5l10.5 10.5q82 -80 125 -185.5t43 -217.5q0 -78 -20 -152.5t-57 -142.5t-89.5 -127.5t-117.5 -106.5z" />
    <glyph glyph-name="asterisk" unicode="*" horiz-adv-x="440" 
d="M273 537q-6 35 -12 74.5l-11 74.5q27 8 55 8t51 -8l-59 -150l136 88q13 -20 23 -49t10 -52q-15 -2 -37 -4.5l-45.5 -5l-45 -5t-35.5 -3.5l53 -47l54 -47q-20 -22 -44.5 -39.5t-50.5 -27.5l-37 146l-73 -146q-23 10 -43.5 27t-33.5 39l65 48l65 47q-35 2 -73 5.5t-74 5.5
q8 58 46 108z" />
    <glyph glyph-name="plus" unicode="+" horiz-adv-x="552" 
d="M343 313h178q-2 -17 -4.5 -35t-4.5 -35h-178l-23 -190h-70l24 190h-180q2 17 4.5 35t4.5 35h180l5 42l6 52t6.5 52.5t5.5 42.5h69z" />
    <glyph glyph-name="comma" unicode="," horiz-adv-x="242" 
d="M134 122q30 0 45.5 -20.5t15.5 -49.5q0 -27 -11 -56t-30 -56t-44.5 -50t-55.5 -38q-3 3 -10.5 13.5t-9.5 13.5q28 27 45 54t25 61q-40 10 -40 54q0 30 20 52t50 22z" />
    <glyph glyph-name="hyphen" unicode="-" horiz-adv-x="346" 
d="M336 292q0 -6 -1.5 -16l-3 -21l-3 -21t-1.5 -16h-253l10 74h252z" />
    <glyph glyph-name="period" unicode="." horiz-adv-x="234" 
d="M133 123q26 0 41.5 -17t15.5 -42q0 -33 -22 -54.5t-51 -21.5t-43 17t-14 43q0 30 21.5 52.5t51.5 22.5z" />
    <glyph glyph-name="slash" unicode="/" horiz-adv-x="316" 
d="M51 -42h-53l350 764h54z" />
    <glyph glyph-name="zero" unicode="0" horiz-adv-x="552" 
d="M358 705q60 0 99 -22t62.5 -58t32.5 -83t9 -97q0 -42 -6 -93t-20 -102t-36.5 -99t-56 -85t-78 -59.5t-101.5 -22.5q-60 0 -99.5 23t-62 60.5t-31.5 86t-9 99.5q0 44 6 95t19.5 101t36 96.5t55.5 82t77.5 56.5t102.5 21zM342 637q-39 0 -67.5 -22t-48.5 -57t-32 -80
t-18.5 -90t-8.5 -87t-2 -72q0 -35 5 -67t17.5 -56t34.5 -38.5t56 -14.5q38 0 66 20.5t48 54.5t32.5 77t20 88t10 88.5t2.5 77.5q0 36 -5 68t-17.5 56.5t-35 39t-57.5 14.5z" />
    <glyph glyph-name="one" unicode="1" horiz-adv-x="552" 
d="M453 0q-23 0 -42.5 0.5l-39 1l-40.5 1t-47 0.5q-48 0 -88.5 -1l-84.5 -2q0 3 0.5 9t1.5 13t1.5 13.5t0.5 9.5l64 15q40 10 54 28t19 53l48 407q3 31 -4.5 46t-44.5 19l-76 9l6 44l223 34l16 -21l-9.5 -76l-12 -94.5l-13.5 -104t-13 -104l-11.5 -94.5l-9.5 -76
q-4 -35 6.5 -49t42.5 -21l59 -13z" />
    <glyph glyph-name="two" unicode="2" horiz-adv-x="552" 
d="M333 705q35 0 70 -9t63 -29t45.5 -53t17.5 -81q0 -64 -29.5 -124.5t-78.5 -118t-113 -111.5t-134 -105l191 5q34 1 60 19.5t49 50.5l16.5 22t16.5 25l33 -8l-40 -172l-16 -17q-38 0 -88.5 1.5t-107.5 1.5h-62.5h-47.5t-51 -0.5t-73 -1.5l-8 51q83 61 151.5 120.5
t117.5 117t76 112.5t27 108q0 59 -33.5 87.5t-91.5 28.5q-31 0 -77 -13t-95 -43l-27 47q54 42 114 65.5t125 23.5z" />
    <glyph glyph-name="three" unicode="3" horiz-adv-x="552" 
d="M387 400q60 -17 100 -61t40 -107q0 -50 -22 -95.5t-63 -80t-99.5 -54.5t-131.5 -20q-45 0 -74.5 7.5t-46.5 18.5t-23.5 24.5t-6.5 24.5q0 25 22.5 45.5t60.5 29.5q14 -40 39.5 -58.5t67.5 -18.5q36 0 67 12.5t54 35t36.5 53.5t13.5 68q0 54 -37.5 83t-100.5 29
q-14 0 -27 -1.5t-29 -4.5l-17 51q36 11 74 29t69.5 41.5t51.5 51t20 57.5q0 32 -24 50.5t-64 18.5q-47 0 -100 -20.5t-100 -55.5l-34 41q57 51 124.5 80t136.5 29q34 0 64 -7t52.5 -21t35.5 -37t13 -54q0 -24 -10 -48.5t-29 -48t-45 -44t-57 -35.5z" />
    <glyph glyph-name="four" unicode="4" horiz-adv-x="552" 
d="M350 257l40 304h-4l-28.5 -35l-33.5 -41l-32.5 -41l-25.5 -34l-26.5 -34.5l-32 -40.5l-32.5 -41.5l-28 -36.5h203zM343 197h-276l-22 35l189 227.5l191 226.5l64 19l15 -11l-52 -437h110q0 -4 -1 -12.5t-2.5 -18t-2.5 -18t-2 -11.5h-109l-9 -80q-4 -33 5.5 -45t38.5 -19
l40 -10l-7 -43q-38 1 -68.5 1.5t-74.5 0.5h-69t-68 -1l2 40l41 12q31 8 43 25.5t16 47.5z" />
    <glyph glyph-name="five" unicode="5" horiz-adv-x="552" 
d="M194 413q32 13 64 19t55 6q93 0 149.5 -46.5t56.5 -132.5q0 -59 -23 -110t-65 -88.5t-101.5 -58.5t-132.5 -21q-48 0 -78 8t-47 19.5t-23 25t-6 24.5q0 8 3.5 19.5t13 22.5t26 20t42.5 13q10 -42 38 -61.5t68 -19.5q36 0 68.5 14t56.5 39.5t38.5 60.5t14.5 76
q0 35 -12.5 58t-32.5 37t-45.5 20t-52.5 6q-29 0 -55 -5.5t-50 -13.5l-38 27q4 25 12 64l16.5 80.5l16.5 80.5l13 64q1 0 2 1t5 3q3 2 7 5q41 0 71 0.5t54.5 1t47 0.5h48.5q17 0 28 1.5t19 5.5t14 10.5t14 17.5l14 20l35 -7l-29 -132q-2 -1 -4 -3.5t-4 -3.5l-264 9z" />
    <glyph glyph-name="six" unicode="6" horiz-adv-x="552" 
d="M85 206q0 91 22.5 179.5t65.5 158t105.5 112.5t143.5 43q22 0 54 -4.5t63 -17.5l-15 -53q-43 10 -74 10q-65 0 -114 -35t-82 -93.5t-49.5 -134.5t-16.5 -159q0 -73 26.5 -115.5t86.5 -42.5q37 0 64.5 18t45.5 48t26.5 68t8.5 77t-9 65t-25.5 41t-41 20.5t-55.5 5.5l3 51
q14 3 27 4t26 1q37 0 70 -11.5t57 -34t38 -57.5t14 -81q0 -42 -13 -92t-43 -93t-79 -72t-122 -29q-60 0 -99.5 19t-63.5 50.5t-34 71.5t-11 82z" />
    <glyph glyph-name="seven" unicode="7" horiz-adv-x="552" 
d="M105 -6l383 601l-7 7l-189 -7q-20 -1 -34.5 -3t-26.5 -8t-23 -17t-23 -29l-31 -49l-35 9l48 183l9 8h45.5t48 -0.5t56 -1t68.5 -0.5q44 0 86.5 0.5t87.5 1.5l21 -40l-371 -659l-106 -10z" />
    <glyph glyph-name="eight" unicode="8" horiz-adv-x="552" 
d="M362 636q-27 0 -49 -9.5t-37.5 -25.5t-23.5 -36.5t-8 -42.5q0 -25 10 -45.5t27 -37.5t40 -31.5t49 -27.5q27 19 44.5 41t28.5 43.5t15.5 41.5t4.5 36q0 38 -23.5 66t-77.5 28zM288 57q31 0 57.5 10t46 28t30.5 43t11 55q0 24 -11 44.5t-31 38.5t-48 34t-62 33
q-31 -21 -51.5 -44.5t-33 -47.5t-17.5 -47t-5 -42q0 -51 30 -78t84 -27zM374 704q33 0 66.5 -8.5t60.5 -26.5t44 -47.5t17 -71.5q0 -26 -6 -51t-21 -49.5t-40.5 -49t-64.5 -49.5q47 -27 75.5 -66t28.5 -95q0 -45 -19 -82.5t-53 -64.5t-81.5 -42t-104.5 -15q-52 0 -91 12.5
t-65.5 34.5t-39.5 53t-13 67q0 30 9 61t28 60t49.5 54t73.5 43q-38 27 -63 63t-25 79q0 46 19.5 81.5t52 60t75 37t88.5 12.5z" />
    <glyph glyph-name="nine" unicode="9" horiz-adv-x="552" 
d="M349 706q61 0 101 -19.5t63.5 -52t33.5 -73t10 -82.5q0 -93 -18 -182t-55.5 -158.5t-95.5 -112t-138 -42.5q-25 0 -57.5 4t-59.5 16l16 52q23 -5 39 -7t33 -2q66 0 110.5 34t71.5 92t39 134t13 159q0 78 -24.5 124t-88.5 46q-37 0 -63.5 -17t-44.5 -45.5t-26.5 -64.5
t-9.5 -74q0 -41 9 -67t25.5 -42t41 -22.5t54.5 -7.5q0 -7 -1.5 -24.5t-1.5 -25.5q-14 -3 -26 -4t-26 -1q-38 0 -70.5 11.5t-56.5 35t-38 59t-14 82.5q0 40 13 88.5t43 90.5t79 70t120 28z" />
    <glyph glyph-name="colon" unicode=":" horiz-adv-x="234" 
d="M169 427q26 0 41.5 -16.5t15.5 -41.5q0 -33 -21.5 -54.5t-51.5 -21.5q-29 0 -43 17.5t-14 43.5q0 30 22 51.5t51 21.5zM132 123q26 0 41.5 -17t15.5 -42q0 -33 -22 -54.5t-51 -21.5t-43 17t-14 43q0 30 21.5 52.5t51.5 22.5z" />
    <glyph glyph-name="semicolon" unicode=";" horiz-adv-x="234" 
d="M169 427q26 0 41.5 -16.5t15.5 -41.5q0 -33 -21.5 -54.5t-51.5 -21.5q-29 0 -43 17.5t-14 43.5q0 30 22 51.5t51 21.5zM127 122q29 0 45 -20.5t16 -49.5q0 -27 -11 -56t-30 -56t-45 -50t-55 -38l-21 26q29 28 46 54.5t25 61.5q-40 10 -40 54q0 30 20 52t50 22z" />
    <glyph glyph-name="less" unicode="&#x3c;" horiz-adv-x="552" 
d="M202 274l157 -79.5l125 -66.5q-2 -19 -4.5 -37.5t-4.5 -37.5l-362 190l9 63l408 194q-2 -20 -5 -37.5t-5 -37.5z" />
    <glyph glyph-name="equal" unicode="=" horiz-adv-x="552" 
d="M119 326l9 70h392l-9 -70h-392zM99 166l10 69h392l-9 -69h-393z" />
    <glyph glyph-name="greater" unicode="&#x3e;" horiz-adv-x="552" 
d="M100 128l317 146l-125 67.5l-156 82.5l10 76l360 -194l-8 -62l-408 -191z" />
    <glyph glyph-name="question" unicode="?" horiz-adv-x="442" 
d="M259 190q-43 18 -68.5 54.5t-25.5 74.5q0 19 10.5 39.5t27.5 41t38 40l41 37.5l36.5 33t33 33.5t24 32.5t9.5 30q0 23 -17.5 36.5t-43.5 13.5q-32 0 -74.5 -24.5t-78.5 -70.5q-17 7 -32 21.5t-15 39.5q0 45 49.5 69.5t129.5 24.5q91 0 137 -31.5t46 -86.5
q0 -23 -11 -43.5t-28 -40t-38.5 -38l-43.5 -36.5l-41.5 -35.5t-36.5 -35.5t-25.5 -36.5t-9.5 -39.5q0 -16 9 -37t23 -35zM224 121q26 0 41 -16.5t16 -40.5q1 -32 -20 -54t-52 -22q-26 0 -41 16t-16 40q0 31 21 54t51 23z" />
    <glyph glyph-name="at" unicode="@" horiz-adv-x="977" 
d="M645 79q-32 0 -47 10t-15 45q0 9 1 23t2.5 31.5t3.5 36l4 36.5l-6 2q-50 -87 -99 -126.5t-87 -39.5q-16 0 -31 6.5t-26 22t-18 41t-7 63.5q0 46 17.5 98t46.5 96.5t66.5 73.5t76.5 29q24 0 53 -2t61 -9q9 14 15.5 18.5t15.5 4.5q7 0 17 -1t19 -4t16 -8t7 -12q0 -3 -2 -7
q-10 -36 -19 -83.5t-16.5 -97.5t-13 -97.5t-6.5 -83.5q34 4 68.5 22.5t61.5 51t44 79t17 106.5q0 54 -21 99.5t-58 78.5t-88.5 51t-112.5 18q-73 0 -143 -26.5t-125 -78.5t-89 -128.5t-34 -176.5q0 -67 21.5 -121.5t61.5 -93t97.5 -59.5t129.5 -21q52 0 96 9t74 21l17 -44
q-41 -21 -95.5 -33t-103.5 -12q-81 0 -149.5 24t-118 69.5t-77 111.5t-27.5 149q0 101 37.5 187t101.5 149t149.5 98.5t182.5 35.5q79 0 143 -24t108 -65.5t68 -95.5t24 -114t-15 -108t-39 -85t-55 -63.5t-63 -43.5t-62.5 -25t-54.5 -8zM533 472q-29 0 -51.5 -19.5
t-37.5 -50.5t-23 -68.5t-8 -73.5q0 -45 11 -62t28 -17t40 20.5t45.5 50.5t42 65t31.5 64q3 14 6 30.5t5 30.5q-21 17 -47 23.5t-42 6.5z" />
    <glyph glyph-name="A" unicode="A" horiz-adv-x="681" 
d="M470 702l139 -582q5 -26 15.5 -43t35.5 -24l21 -6l-6 -47h-264l5 44l45 12q20 5 29.5 19t1.5 36l-13.5 63l-8.5 42h-238q-11 -23 -20.5 -47t-20.5 -48q-11 -26 -4.5 -43t36.5 -25l40 -8l-6 -45h-245l4 45l32 9q25 7 40.5 22.5t27.5 41.5l122 248l120 249l17.5 36.5
l16.5 37.5l75 15zM391 571l-36.5 -83l-36.5 -83l-60 -133h200l-28 133l-33 166h-6z" />
    <glyph glyph-name="B" unicode="B" horiz-adv-x="656" 
d="M446 689q55 0 90.5 -13t56.5 -33.5t29 -45.5t8 -48q0 -33 -13 -59.5t-33.5 -47t-44.5 -33.5t-45 -17v-5q66 -14 101 -56.5t35 -110.5q0 -49 -18.5 -89.5t-51.5 -69.5t-79.5 -45t-102.5 -16q-46 0 -94 1.5t-91 1.5h-72t-77 -2q0 5 0.5 20t0.5 21l41 12q31 10 41.5 24
t12.5 39l58 459q4 23 -2.5 38t-29.5 20l-37 12l10 43q31 -1 71 -2t68 -1q39 0 84 2t84 1zM354 406q59 3 92 21t49.5 39t20.5 40t4 24q0 48 -34 69.5t-94 21.5h-15.5t-23 -1l-24.5 -2t-21 -3q-14 -119 -30 -242.5l-31 -244.5q-5 -35 16 -47.5t81 -12.5q44 0 77.5 12
t55.5 32.5t33 48.5t11 60q0 28 -8.5 51.5t-28 41t-52 27.5t-81.5 11l-3 46z" />
    <glyph glyph-name="C" unicode="C" horiz-adv-x="619" 
d="M450 705q18 0 42 -2.5t50.5 -9t53 -18t48.5 -28.5l-14.5 -82t-13.5 -81l-40 -2l-4 58q-5 53 -35.5 73t-79.5 20q-69 0 -116.5 -31.5t-77.5 -81.5t-43.5 -112.5t-13.5 -124.5q0 -36 7.5 -75.5t27.5 -71.5t55 -53t90 -21q40 0 84 5t95 22l16 -57q-28 -14 -58 -23t-59 -14.5
t-56 -8t-49 -2.5q-69 0 -119 21t-82.5 60t-48 93.5t-15.5 122.5q0 80 21 156t64.5 135.5t110.5 96t160 36.5z" />
    <glyph glyph-name="D" unicode="D" horiz-adv-x="706" 
d="M206 3h-42h-34.5t-35 -0.5t-44.5 -1.5v8.5t0.5 12t0.5 12v7.5l49 16q23 8 32.5 20.5t12.5 35.5l58 469q2 23 -4 32.5t-28 17.5l-40 13l12 43q19 -1 34 -1.5t28.5 -1t28 -0.5h33.5q24 0 43 0.5t36.5 1.5t35.5 1.5t39 0.5q82 0 136.5 -24t87.5 -63.5t46.5 -91.5t13.5 -108
q0 -31 -5.5 -72.5t-19.5 -86.5t-39 -88.5t-65 -78t-96.5 -55.5t-132.5 -21q-6 0 -27 0.5t-44.5 1t-43.5 1t-26 0.5zM252 132q-2 -21 1.5 -34t13.5 -20t28 -9t44 -2q68 0 117 29t80 76t45.5 106.5t14.5 121.5q0 63 -15.5 105t-44 67.5t-68.5 36.5t-88 11q-19 0 -37.5 -1
t-30.5 -3z" />
    <glyph glyph-name="E" unicode="E" horiz-adv-x="610" 
d="M295 3h-56.5t-65 -0.5l-67 -1t-61.5 -1.5v43l47 14q18 5 31 17t16 38l58 464q3 24 -1.5 36t-29.5 20l-38 13l9 43q24 -1 58.5 -1.5t69.5 -0.5h66.5h50.5q51 0 90.5 0.5t82.5 2.5h24.5t26.5 1q2 -2 4 -2.5t4 -2.5q-4 -48 -9 -94.5l-10 -94.5l-38 -5l-16 84q-4 23 -15 32
t-40 10q-32 1 -73 1.5t-105 0.5l-27 -232l118.5 4l118.5 4l-9 -75l-236 8l-26 -204q-4 -35 8 -44t40 -9q32 0 72.5 1t71.5 2q15 0 26 2.5t19 8t15.5 15t15.5 23.5q9 17 25 41t25 41l34 -8l-10.5 -41.5l-13 -53l-13 -53l-10.5 -41.5q-2 -1 -4.5 -4t-4.5 -4q-36 0 -64.5 0.5
l-56.5 1l-58 1t-69 0.5z" />
    <glyph glyph-name="F" unicode="F" horiz-adv-x="591" 
d="M270 317l-11.5 -98.5t-12.5 -98.5q-4 -24 2.5 -38.5t34.5 -21.5l45 -12l-8 -48h-279q1 11 1.5 21t2.5 21l47 15q24 8 33.5 19.5t13.5 39.5l57 460q2 20 -0.5 33.5t-29.5 22.5l-39 12l10 44q21 -1 49.5 -1.5t58.5 -0.5h59h51h71.5t55 0.5t46 1t43.5 1.5q8 0 17 0.5t18 0.5
q2 -2 4 -2.5t4 -2.5l-10 -94.5l-10 -94.5q-11 -1 -20 -2.5t-20 -2.5l-15 83q-5 23 -16 32.5t-40 10.5q-32 0 -72 1t-104 1l-29 -244l118.5 4l119.5 4q-3 -19 -5.5 -37t-4.5 -37l-236 8v0z" />
    <glyph glyph-name="G" unicode="G" horiz-adv-x="688" 
d="M95 274q0 79 22 156t67.5 138t115 99t164.5 38q18 0 43 -2.5t52 -9t54.5 -18t49.5 -28.5q-7 -45 -13.5 -81.5t-13.5 -80.5l-41 -3l-4 58q-4 53 -37.5 73t-82.5 20q-73 0 -123 -33t-81.5 -85t-45.5 -115.5t-14 -124.5q0 -43 9 -81t30 -67t55.5 -46t84.5 -17q23 0 55 4
t61 18l15 134q2 26 -2.5 40.5t-31.5 25.5l-42 14l6 41h231v-47l-22 -6q-34 -11 -38 -55l-21 -194q-74 -32 -132 -43.5t-106 -11.5q-69 0 -119 21.5t-82 60t-47.5 91.5t-15.5 117z" />
    <glyph glyph-name="H" unicode="H" horiz-adv-x="763" 
d="M125 687h278q0 -2 -0.5 -8.5t-1.5 -14t-2 -14t-1 -8.5l-42 -11q-17 -4 -27.5 -9.5t-16.5 -12.5t-8.5 -16t-3.5 -20l-23 -185h299l22 188q3 26 -5.5 37t-28.5 18q-2 1 -7.5 3l-12.5 4.5l-13 4.5t-7 2l7 42h277l-5 -45l-42 -11q-35 -9 -44.5 -22.5t-12.5 -36.5l-57 -459
q-3 -28 5.5 -38t33.5 -17l45 -11l-7 -47h-279q0 5 1.5 20.5t1.5 20.5l43 14q26 8 36 20t15 41l26 213h-298q-3 -20 -6.5 -48.5l-7 -59l-7 -59.5t-5.5 -48q-3 -25 5.5 -37t33.5 -19l43 -12l-7 -46h-279q0 5 2 20.5t2 20.5l44 14q24 8 34.5 19.5t14.5 40.5q5 42 13 103.5
l16.5 127.5l16 128l12.5 104q2 24 -6 35t-28 18l-43 15z" />
    <glyph glyph-name="I" unicode="I" horiz-adv-x="402" 
d="M423 687l-5 -46l-43 -10q-34 -9 -43 -22t-12 -36l-57 -461q-3 -23 4 -35.5t35 -20.5l44 -11l-8 -45h-278l3 40l45 15q12 4 20.5 8.5t14.5 11t9.5 16t5.5 23.5l57 463q3 23 -4 34.5t-31 19.5l-42 15l7 41h278z" />
    <glyph glyph-name="L" unicode="L" horiz-adv-x="603" 
d="M205 577q0 26 -8 37t-26 17l-42 15l7 41h277l-2 -23t-3 -23l-42 -10q-26 -8 -38.5 -20t-16.5 -38l-56 -451q-5 -27 7 -41t41 -11q54 1 93 1.5t65 0.5q29 0 44 11.5t31 38.5l51 87l33 -8l-24.5 -96.5t-23.5 -96.5l-9 -8q-37 0 -67.5 0.5l-60 1l-61.5 1t-71 0.5h-56.5
t-65 -0.5l-67 -1t-61.5 -1.5q0 10 0.5 21t0.5 22l46 14q18 6 31 17t17 37z" />
    <glyph glyph-name="M" unicode="M" horiz-adv-x="980" 
d="M294 550l-9 -1l-9.5 -59l-12 -72.5l-13 -79l-13 -79l-12.5 -72.5t-10 -59q-5 -35 2 -49.5t39 -21.5l45 -11q-1 -7 -4 -23t-4 -23h-266l4 45l49 12q15 4 25 8.5t17 12.5t12 20.5t9 33.5l88 441q5 29 -4 40.5t-38 20.5l-40 14q2 5 5 21t5 21q31 -1 57.5 -1.5t54.5 -0.5h47
t57 2q2 -17 5 -34t7 -31l14.5 -55l18.5 -66.5l19.5 -67l15.5 -54.5l55 -200h10l24 47.5l31 61l31 60.5t24 48l153 291q17 -1 35.5 -1h40.5h62.5t70.5 1q0 -3 -1 -9.5t-1.5 -13.5l-1 -13.5t-0.5 -8.5l-47 -13q-30 -8 -41 -21.5t-13 -45.5l-24 -433q-2 -35 7.5 -50.5
t38.5 -24.5l39 -12l-7 -45h-286q0 5 2 20.5t2 20.5l41 13q27 9 38.5 24.5t14.5 50.5l33 429h-7l-137.5 -263.5l-138.5 -264.5h-58z" />
    <glyph glyph-name="N" unicode="N" horiz-adv-x="803" 
d="M526 347l48.5 -81l47.5 -80l42 369q5 32 -5 50t-38 26q-10 3 -19.5 6.5t-19.5 5.5l7 44h259l-5 -46q-11 -2 -21.5 -4.5t-21.5 -5.5q-15 -4 -25.5 -8.5t-18 -13.5t-13 -23.5t-8.5 -37.5l-76 -548l-54 -13l-107 181.5l-108 181.5l-58 100.5l-58 100.5q-2 0 -3.5 -0.5
t-3.5 -0.5l-23.5 -211l-23.5 -212q-5 -32 6.5 -48.5t37.5 -22.5l44 -10l-7 -46h-266l3 42l50 13q25 7 40 20.5t20 51.5l62 434q4 27 -5 45t-34 26q-11 3 -23 7t-23 7l9 42q24 0 51.5 -0.5t55 -0.5t52.5 0.5t43 1.5q6 -17 13.5 -33t14.5 -28l162 -281v0z" />
    <glyph glyph-name="O" unicode="O" horiz-adv-x="709" 
d="M460 703q57 0 101 -20t74 -56t46 -85.5t17 -108.5q0 -98 -25.5 -180t-73 -141.5t-115 -93t-152.5 -33.5q-54 0 -98 20t-75 56t-48 86.5t-18 112.5q0 102 29 184t79.5 139.5t117 88.5t141.5 31zM430 636q-47 0 -87.5 -28.5t-70.5 -76.5t-47 -111.5t-17 -132.5
q0 -54 9 -97.5t28 -74t49.5 -47t72.5 -16.5q53 0 94 31.5t68.5 83t42 116.5t14.5 131q0 48 -9.5 88.5t-28.5 70t-48.5 46.5t-69.5 17z" />
    <glyph glyph-name="P" unicode="P" horiz-adv-x="623" 
d="M387 622q-19 0 -38 -1.5t-36 -6.5l-32 -265q17 -3 36 -4.5t29 -1.5q58 0 95 15t58 38t29 51.5t8 55.5q0 63 -39 91t-110 28zM268 686q45 0 89.5 1.5t89.5 1.5q94 0 147.5 -42.5t53.5 -133.5q0 -49 -18 -92t-53 -75.5t-86 -51.5t-116 -19q-17 0 -44 1.5t-59 8.5
l-4.5 -39.5t-5.5 -46.5l-6 -46.5t-4 -38.5q-3 -26 5 -37.5t34 -18.5l46 -11l-7 -47h-283q0 5 2 20.5t2 20.5l45 14q25 8 35.5 19.5t14.5 40.5l57 461q3 23 -2.5 36.5t-29.5 21.5q-6 2 -18.5 5.5t-18.5 5.5l10 44q19 -1 33 -1.5l27 -1t28 -0.5h36z" />
    <glyph glyph-name="R" unicode="R" horiz-adv-x="660" 
d="M374 294l-43.5 2.5t-55.5 7.5l-23 -190q-3 -26 6 -38t33 -18l42 -11l-7 -47h-277l3 41l44 14q12 4 21 9t14.5 11.5t9 16t5.5 23.5l57 461q3 23 -2 36.5t-30 21.5l-37 11l10 44q19 -1 33 -1.5l27 -1t28 -0.5h36q45 0 90.5 1.5t90.5 1.5t82 -9t63 -29.5t40.5 -52
t14.5 -76.5q0 -32 -10.5 -65t-32 -62.5t-54.5 -52.5t-79 -34l46 -101l45 -99q12 -29 28.5 -47.5t47.5 -31.5l-7 -45q-13 -3 -26 -4t-24 -1q-36 0 -65 18t-48 60zM387 622q-19 0 -38 -1.5t-36 -6.5l-30 -245q18 -4 36.5 -5t28.5 -1q57 0 94 13.5t58 35t29 48.5t8 53
q0 61 -41 85t-109 24z" />
    <glyph glyph-name="S" unicode="S" horiz-adv-x="583" 
d="M362 704q16 0 40 -1.5t51 -6t56 -12t56 -19.5l-21 -183l-40 -5l-10 49q-11 52 -48 78.5t-97 26.5q-48 0 -82 -24t-34 -71q0 -20 13 -37.5t33.5 -32.5t46.5 -29.5l53 -28.5q37 -19 69 -39t55 -44t36.5 -53t13.5 -67q0 -45 -18 -85t-53.5 -70.5t-87.5 -48t-120 -17.5
q-54 0 -111 12.5t-106 36.5q1 16 3 43t4.5 56t4.5 55.5t3 43.5l36 7l18 -73q9 -34 23.5 -55.5t34.5 -34t46.5 -17t58.5 -4.5q34 0 62.5 10.5t48 28.5t30.5 41t11 48q0 24 -10 43.5t-29 36t-45.5 32.5t-60.5 33q-36 18 -68 36.5t-56.5 41t-38.5 50t-14 64.5q0 39 15 73t45 59
t75.5 39t107.5 14z" />
    <glyph glyph-name="T" unicode="T" horiz-adv-x="635" 
d="M338 623h-103q-35 0 -51 -16.5t-32 -53.5l-30 -69l-39 6l27 193l13 7q69 -2 133.5 -3t142.5 -1q69 0 138.5 1t138.5 3l10 -6q-2 -17 -4.5 -43l-5.5 -54.5l-6 -54.5t-4 -42l-41 -6l-13 66q-4 22 -8.5 36.5t-11.5 22.5t-18 11t-27 3h-103l-63 -509q-3 -26 4.5 -38t33.5 -18
l47 -12l-7 -46h-283q0 5 2 20.5t2 20.5l45 14q24 8 34.5 19.5t14.5 40.5z" />
    <glyph glyph-name="V" unicode="V" horiz-adv-x="715" 
d="M398 120l47 106.5l40 90.5l72.5 162.5l40.5 91.5q9 20 5.5 34t-34.5 25l-39 14l8 44h228l-5 -45q-41 -20 -70.5 -62t-58.5 -101l-32 -66.5l-41 -83l-46 -92l-46 -92l-41 -83.5l-32 -67q-18 -3 -35.5 -6.5t-36.5 -6.5l-20.5 82.5l-25.5 102l-28.5 112l-28.5 112l-26 102
t-20 82.5q-6 24 -20.5 38.5t-54.5 28.5l8 45h178q-2 -24 1.5 -54.5t9.5 -58.5q7 -29 18.5 -83l31.5 -147q10 -45 21 -102t25 -123h7z" />
    <glyph glyph-name="W" unicode="W" horiz-adv-x="1027" 
d="M566 417l-86 -187l-53 -117l-53 -116q-20 -3 -39.5 -7t-40.5 -6l-64 293.5l-65 295.5q-7 30 -15.5 42t-31.5 20l-24 10l9 42q44 0 87 0.5t87 0.5q-2 -27 1.5 -55.5t8.5 -56.5l38.5 -226.5l40.5 -235.5l8 1l91 213q17 44 36.5 86.5t36.5 85.5l-8.5 40.5l-8.5 40.5
q-7 27 -15.5 36.5t-27.5 17.5l-28 10l10 42q45 0 89.5 0.5t89.5 0.5q-2 -25 0.5 -50.5t7.5 -51.5q1 -8 7.5 -39.5l15 -72t16 -81.5t12.5 -66l38 -208h8l96 267l34 91.5l34 90.5q8 24 4 38t-33 24l-46 13l8 44q60 0 119.5 0.5t119.5 0.5q-2 -12 -2.5 -23t-1.5 -22
q-27 -12 -48 -33t-38 -47.5t-31 -56.5t-26 -60l-185 -449q-21 -3 -41 -7t-42 -6l-27.5 122l-27.5 124l-38 187h-6z" />
    <glyph glyph-name="X" unicode="X" horiz-adv-x="666" 
d="M207 580q-14 29 -26.5 38.5t-31.5 15.5l-33 10l11 43h177q0 -16 3 -33.5t8 -34t10 -30.5t10 -24l65 -139l103 154q17 25 14.5 38t-21.5 18l-32 9l9 44h226l-5 -46q-55 -19 -94 -56.5t-71 -78.5l-103 -136l114 -243q16 -32 30.5 -47.5t40.5 -24.5l26 -9q-1 -3 -2 -9.5
t-2 -14l-2 -14.5t-2 -10h-257q0 3 0.5 9.5t1 14t1 13.5t0.5 9l28 8q23 7 26.5 21.5t-7.5 37.5l-74 165l-27 -40l-32.5 -47l-32 -47l-26.5 -40q-14 -22 -10 -34t22 -17l27 -8l-8 -45h-236l4 46q30 8 54.5 20.5t45.5 29t39.5 37t37.5 44.5l115 153z" />
    <glyph glyph-name="Y" unicode="Y" horiz-adv-x="628" 
d="M296 280l-120 298q-10 26 -20.5 36.5t-33.5 18.5l-32 11l8 44h176q-3 -48 17 -100l84 -222h9l125 208q12 20 9 35.5t-31 23.5l-33 9l8 45q57 0 112 0.5t112 0.5l-5 -46q-23 -10 -41 -23t-34.5 -29.5t-33 -38l-35.5 -48.5l-133 -197l-23 -192q-3 -26 5 -37.5t34 -18.5
l46 -11l-7 -47h-281q0 5 1.5 20.5t1.5 20.5l45 14q12 4 20.5 8.5t14 11.5t9 16.5t5.5 23.5z" />
    <glyph glyph-name="Z" unicode="Z" horiz-adv-x="614" 
d="M545 0q-58 1 -120.5 1h-127.5h-128t-121 -1l-9 47q6 7 27 34l51.5 65.5l68 86l76.5 97l76.5 97l68.5 87l53 67l29 36.5l-186 -2q-21 0 -35.5 -4t-25 -12.5t-18 -21.5t-15.5 -31l-28 -62l-41 7q8 49 17 96.5t17 96.5l8 6q54 -2 110 -2h114h114.5t109.5 1l8 -49
q-6 -7 -26.5 -33l-51.5 -64.5l-68.5 -86l-76.5 -97l-77 -97.5l-69.5 -88l-53 -67.5t-28.5 -35.5q60 1 120.5 1.5t117.5 2.5q32 1 53.5 12t41.5 46l47 83l35 -9q-11 -51 -24 -99.5t-24 -99.5z" />
    <glyph glyph-name="bracketleft" unicode="[" horiz-adv-x="291" 
d="M153 694h183q-1 -11 -2.5 -20.5t-2.5 -20.5h-93l-95 -782h92l-3.5 -20t-2.5 -19h-183z" />
    <glyph glyph-name="backslash" unicode="\" horiz-adv-x="316" 
d="M91 722h55l163 -764h-56z" />
    <glyph glyph-name="bracketright" unicode="]" horiz-adv-x="291" 
d="M201 -168h-184l7 45h92l95 770h-93q2 12 3.5 23.5t2.5 23.5h184z" />
    <glyph glyph-name="asciicircum" unicode="^" horiz-adv-x="496" 
d="M321 619l-84.5 -137l-85.5 -138h-69l48 75l61.5 98l61 98l47.5 75h60l138 -346h-69z" />
    <glyph glyph-name="underscore" unicode="_" horiz-adv-x="475" 
d="M-16 -143q1 4 2 12.5t2.5 18t2.5 18t1 12.5h473q-1 -4 -2 -12.5t-2.5 -18t-2.5 -18t-1 -12.5h-473z" />
    <glyph glyph-name="grave" unicode="`" horiz-adv-x="482" 
d="M388 569l-9.5 -6.5t-13 -10t-12.5 -10t-9 -7.5l-30 34.5l-40 45l-40.5 44.5t-30.5 34q6 4 16.5 12.5l21.5 17.5l21.5 17.5t16.5 12.5z" />
    <glyph glyph-name="a" unicode="a" horiz-adv-x="561" 
d="M375 202q-60 -108 -116 -159.5t-102 -51.5q-38 0 -65 36t-27 119q0 18 1.5 36.5t4.5 35.5q9 47 33 94.5t56 85t68.5 61t70.5 23.5q28 0 60 -2t70 -10q10 14 17 20.5t18 6.5q7 0 18 -1.5t21.5 -5t18 -9t7.5 -12.5q0 -5 -1 -9q-12 -42 -23 -93t-19.5 -103.5t-14 -103.5
t-6.5 -93q25 2 43.5 8.5t41.5 18.5q1 -1 3.5 -4.5t6 -8l6.5 -8.5t4 -5q-14 -15 -32.5 -29.5t-38.5 -25t-40 -17t-36 -6.5q-28 0 -44 11t-16 49q0 23 4 66t12 85zM306 421q-34 0 -59.5 -22.5t-43 -57.5t-26 -78t-8.5 -84q0 -51 12.5 -71.5t31.5 -20.5q20 0 46 23.5t52 58.5
t48.5 75.5t35.5 74.5l13 67q-23 19 -53 27t-49 8z" />
    <glyph glyph-name="b" unicode="b" horiz-adv-x="527" 
d="M427 484q38 0 65 -35.5t27 -117.5q0 -40 -7 -75q-9 -46 -32.5 -93t-56 -85.5t-69.5 -63t-72 -24.5q-17 0 -41 2t-52 8t-58.5 15.5t-58.5 24.5q-3 4 -3 10q27 153 49.5 301.5l45.5 307.5l-86 16q1 9 2.5 17t2.5 17q15 4 33.5 8.5t38 8t38 5.5t32.5 2q44 0 44 -39
q0 -6 -3.5 -34t-9.5 -68.5l-13 -88t-14.5 -92l-14 -81.5t-10.5 -56h4q65 111 120 160.5t99 49.5zM276 51q34 0 60 23t43.5 59t26.5 79t9 84q0 52 -13 71.5t-33 19.5t-46 -24t-52 -59t-48.5 -75.5t-35.5 -74.5l-12 -68q24 -20 52.5 -27.5t48.5 -7.5z" />
    <glyph glyph-name="c" unicode="c" horiz-adv-x="434" 
d="M219 -12q-77 0 -112 48t-38 131q-3 82 36.5 154t107.5 123q33 23 62.5 34.5t58.5 11.5q32 0 54.5 -7.5t36.5 -19t20 -24.5t5 -23q0 -17 -17.5 -34.5t-58.5 -25.5q-5 41 -23 55t-37 14q-23 0 -39.5 -9t-33.5 -27q-14 -16 -26.5 -40.5t-22 -52.5t-14.5 -57.5t-4 -55.5
q2 -61 21 -94t61 -33q26 0 61.5 16.5t75.5 54.5l26 -27q-17 -22 -40.5 -42t-50.5 -35.5t-55.5 -25t-53.5 -9.5z" />
    <glyph glyph-name="d" unicode="d" horiz-adv-x="550" 
d="M60 135l2 42t4 40q9 48 32.5 95t56 85t69 61.5t70.5 23.5q21 0 42 -0.5t47 -5.5q8 -2 16.5 -3t18.5 -3q7 50 14.5 95t14.5 94l-87 15l5 35q15 4 34 8.5t38.5 8t37.5 5.5t32 2q43 0 43 -40q0 -9 -3.5 -32.5l-8.5 -55l-11 -67l-11 -67.5l-18.5 -111.5t-17.5 -107.5
t-13.5 -99.5t-7.5 -86.5q23 2 42.5 8.5t43.5 20.5q5 -8 9.5 -14t9.5 -14q-14 -15 -32 -29t-38.5 -24.5t-40.5 -17t-36 -6.5q-28 0 -44 11t-17 48q0 12 1.5 29.5t4 37.5t6 42t8.5 43h-4q-31 -50 -58.5 -88.5t-54 -65.5t-53.5 -41t-57 -14q-38 0 -62.5 35t-26.5 108zM301 420
q-34 0 -59.5 -22.5t-43 -57t-26 -77.5t-8.5 -83q0 -93 44 -93q20 0 46 23.5t52 58.5t48.5 75t35.5 74l6 33.5t7 33.5q-24 20 -53.5 27.5t-48.5 7.5z" />
    <glyph glyph-name="e" unicode="e" horiz-adv-x="431" 
d="M434 377q1 -34 -19 -62t-55.5 -50.5t-83.5 -40.5t-103 -33q-2 -10 -2 -19v-17q2 -42 17.5 -70.5t48.5 -28.5q38 0 76.5 20t76.5 55l26 -26q-14 -18 -36 -38.5t-49.5 -38t-60 -28.5t-67.5 -11q-135 0 -138 165q-2 45 10 96.5t34 94.5q12 25 36.5 51t54.5 47t63.5 34
t63.5 13q48 0 76.5 -33t30.5 -80zM180 236q28 6 57.5 17.5t53 28t38.5 38.5t15 48q-2 29 -17 47t-31 18q-18 0 -36.5 -13.5t-34 -38.5t-28 -61.5t-18.5 -81.5z" />
    <glyph glyph-name="f" unicode="f" horiz-adv-x="380" 
d="M405 439l-9 -55h-138q-11 -72 -21.5 -148.5l-21.5 -149.5q-9 -60 -25 -118.5t-43.5 -105t-70 -75t-104.5 -28.5q-48 0 -77 17t-29 43q0 17 10.5 32t33.5 26q26 -24 50.5 -38.5t47.5 -14.5q37 0 60 35t34 113l56 412h-101q2 9 3 17.5l2 16.5l105 27q6 36 18.5 85.5
t38 95.5t67 78t105.5 32q49 0 77.5 -16.5t28.5 -42.5q0 -17 -9.5 -32.5t-34.5 -27.5q-21 22 -46 37.5t-48 15.5q-26 0 -41 -14.5t-25 -44t-17 -72.5l-16 -100h140z" />
    <glyph glyph-name="g" unicode="g" horiz-adv-x="521" 
d="M297 482q28 0 59.5 -2.5t68.5 -9.5q10 14 17 20t18 6q8 0 19 -1.5t21 -5t17.5 -9t7.5 -13.5q0 -2 -0.5 -3.5t-0.5 -3.5q-12 -49 -23.5 -104.5t-21 -112.5l-18.5 -113.5t-16 -107.5q-4 -26 -7.5 -52.5t-8.5 -52.5q-5 -29 -23.5 -57t-47.5 -50t-68.5 -35.5t-86.5 -13.5
q-46 0 -78.5 8t-53.5 20t-30.5 25.5t-9.5 24.5q0 8 4 18.5t13.5 21t26 19.5t40.5 12q6 -20 17.5 -36t27.5 -27.5t34 -18t37 -6.5q27 0 45 10.5t30 29.5t18.5 44t11.5 55l18 118.5t22 118.5h-4q-60 -106 -115.5 -156t-101.5 -50q-39 0 -65.5 36.5t-26.5 120.5q0 36 6 68
q9 47 33 94.5t56 85.5t68.5 61.5t70.5 23.5zM304 420q-33 0 -59 -22.5t-43 -57.5t-26 -77.5t-9 -82.5q0 -52 12.5 -72.5t32.5 -20.5t46 23.5t51.5 58.5t48 75t36.5 74l12 67q-23 20 -53 27.5t-49 7.5z" />
    <glyph glyph-name="h" unicode="h" horiz-adv-x="557" 
d="M216 733q23 0 34 -13t9 -34q-11 -97 -27.5 -197.5l-31.5 -188.5h5q19 29 45 62t56 60.5t64 46t69 18.5q32 0 50.5 -19.5t20.5 -51.5q0 -27 -6.5 -69.5t-15.5 -91l-18.5 -98t-16.5 -90.5q23 2 43 9t43 19l20 -27q-14 -15 -32 -29t-37.5 -25t-39 -17.5t-36.5 -6.5
q-35 0 -49 13.5t-14 41.5q0 12 4 36.5t10 55l13 64t12.5 65t9 57t3.5 40.5q0 36 -27 36q-17 0 -34.5 -11.5t-33.5 -27.5q-26 -25 -51 -58.5t-43 -62.5l-16 -29t-13 -26q-3 -6 -7 -25t-7.5 -42.5l-7 -47.5t-5.5 -42q-1 -8 -4 -12.5t-14 -6.5q-20 -4 -39.5 -8.5l-35.5 -8.5
l-7 3.5t-5 6.5q3 16 7 40.5l8 50t8 48.5t7 37l19 111.5t17 106.5l17 118l20 146l-86 16l5 32l33.5 9t37.5 8.5t37.5 6t32.5 2.5z" />
    <glyph glyph-name="i" unicode="i" horiz-adv-x="314" 
d="M203 491q62 0 62 -63q0 -10 -4 -36.5t-10.5 -61l-13.5 -74l-14 -76.5l-12.5 -67t-7.5 -46q23 2 44 9.5t44 18.5l18 -26q-14 -15 -31.5 -29.5t-36.5 -25.5t-38.5 -17.5t-35.5 -6.5q-65 0 -65 55q0 15 5.5 51t14 85.5l19.5 109l23 122.5q-18 -1 -37.5 -7.5t-43.5 -17.5
l-19 28q29 32 66.5 53.5t72.5 21.5zM233 719q26 0 42 -17t16 -44q0 -32 -19 -53.5t-48 -21.5q-27 0 -44 16.5t-17 42.5q0 32 19 54.5t51 22.5z" />
    <glyph glyph-name="j" unicode="j" horiz-adv-x="288" 
d="M202 491q63 0 63 -57q0 -12 -4.5 -42.5t-13 -81.5l-21.5 -124.5l-29 -172.5q-9 -54 -27 -101t-45.5 -81.5t-65 -53.5t-85.5 -18q-40 1 -66 9.5t-41 21.5t-20 27t-3 25q2 17 20.5 30.5t58.5 20.5q5 -21 14.5 -35.5t21 -24t24 -13.5t24.5 -4q49 0 67 75q2 9 7 37l12.5 69.5
l16.5 93l18 106.5l18 110l17 105q-20 -1 -39 -7.5t-44 -18.5l-20 28q29 32 67.5 54.5t74.5 22.5zM239 719q30 0 46.5 -17.5t17.5 -44.5q-1 -31 -18.5 -52.5t-46.5 -21.5q-32 0 -49.5 16.5t-18.5 42.5q-1 32 18.5 54.5t50.5 22.5z" />
    <glyph glyph-name="k" unicode="k" horiz-adv-x="516" 
d="M217 733q45 0 45 -40q0 -11 -6 -52l-15 -98l-20 -124l-21 -130l3 -1q23 37 52.5 73t62 64.5t65.5 46.5t62 18q33 0 52.5 -15t20.5 -41q0 -11 -8.5 -29.5t-36.5 -32.5q-11 21 -28.5 29.5t-33.5 8.5q-32 0 -61 -24.5t-58 -56.5q14 -41 36 -84.5t44.5 -81.5t43 -65.5
t31.5 -35.5q19 7 34.5 16t31.5 21l20 -22q-20 -29 -38.5 -46.5t-35.5 -27t-31.5 -13t-25.5 -3.5q-18 0 -37.5 18.5t-40.5 52.5t-44.5 83l-50.5 110q-17 -21 -28.5 -42t-19.5 -53q-2 -8 -4 -23.5t-5 -33.5t-5.5 -36.5l-4.5 -32.5q-2 -8 -5 -13t-16 -7l-72 -14l-6 3t-6 7
l50.5 320.5t49.5 332.5l-85 16l3 32l33.5 9t38 8.5t38 6t32.5 2.5z" />
    <glyph glyph-name="l" unicode="l" horiz-adv-x="302" 
d="M234 733q45 0 45 -41q0 -10 -5.5 -49l-14 -95l-19.5 -122.5l-21.5 -132.5l-20.5 -125.5t-16 -100.5q23 2 44 8.5t44 18.5l18 -26q-14 -15 -32 -29.5t-37 -25t-38.5 -17t-35.5 -6.5q-65 0 -65 56q0 8 1 17t3 20q5 28 12.5 74.5l16.5 102.5l19 116l18.5 115l15 99.5
t9.5 68.5q-8 1 -19 3.5t-23.5 5t-24 4.5t-18.5 3l3 32l33.5 9t38 8.5t37.5 6t32 2.5z" />
    <glyph glyph-name="m" unicode="m" horiz-adv-x="850" 
d="M201 491q37 0 51 -15t14 -42q0 -26 -5 -62t-12 -74h3l38 59t49 62.5t58.5 49.5t66.5 20q32 0 48.5 -20.5t17.5 -53.5q1 -21 -2.5 -50.5t-9.5 -66.5h2q16 26 38.5 59t49.5 62.5t58.5 50t66.5 20.5q32 0 48.5 -20.5t17.5 -52.5q1 -24 -3.5 -60.5t-12 -82.5t-17 -99
l-19.5 -108q21 2 41.5 8.5t44.5 18.5l19 -25q-13 -15 -30 -29.5t-36.5 -25.5t-39.5 -17.5t-38 -6.5q-42 0 -53 22.5t-7 58.5q5 33 13 76l15.5 86t12.5 79.5t5 56.5q-1 17 -6 26.5t-18 9.5q-16 0 -35 -14.5t-33 -33.5q-30 -39 -56.5 -85.5t-45.5 -87.5q-2 -6 -6 -26l-8.5 -44
t-8.5 -48t-5 -37q-2 -10 -5 -14.5t-14 -6.5l-38.5 -8t-35.5 -9l-8 4t-5 7l27 146l10.5 62.5t10 62.5t7.5 55.5t3 40.5q-1 17 -6 26.5t-18 9.5q-17 0 -33.5 -13.5t-30.5 -31.5q-31 -38 -58 -86t-46 -90q-3 -6 -7 -26.5l-8.5 -45l-8.5 -48t-5 -35.5q-2 -10 -5 -14.5t-14 -6.5
l-38.5 -8t-34.5 -9q-5 2 -8.5 4t-5.5 7l20 107.5l17 97.5l15.5 97.5t15.5 108.5q-33 -1 -81 -26l-23 28q29 32 66.5 54t73.5 22z" />
    <glyph glyph-name="n" unicode="n" horiz-adv-x="606" 
d="M500 67q21 2 41.5 8.5t44.5 18.5l19 -25q-13 -15 -30 -29.5t-36.5 -25.5t-39.5 -17.5t-38 -6.5q-42 0 -53 22.5t-7 58.5q5 33 13.5 75.5l16.5 84.5t13.5 77.5t5.5 55.5q-2 35 -28 35q-17 0 -34.5 -11.5t-33.5 -27.5q-27 -26 -50.5 -58t-42.5 -63q-9 -15 -16 -29l-13 -26
q-3 -6 -7 -26.5l-8.5 -45l-8.5 -48t-5 -35.5q-2 -10 -5 -14.5t-14 -6.5l-38.5 -8t-34.5 -9q-5 2 -8.5 4t-5.5 7l20 107.5l17 97.5l15.5 97.5t15.5 108.5q-33 -1 -81 -26l-23 28q29 32 66.5 54t73.5 22q37 0 51 -15t14 -42q0 -26 -5 -62t-12 -74h3l46 61.5t56 61.5t63 47
t69 19q32 0 50.5 -19.5t19.5 -52.5q1 -24 -4 -60.5t-13.5 -82l-18.5 -98z" />
    <glyph glyph-name="o" unicode="o" horiz-adv-x="520" 
d="M344 489q41 0 72.5 -13.5t52.5 -38t32 -58t11 -73.5q0 -69 -20 -126.5t-57 -99.5t-88.5 -65.5t-114.5 -23.5q-80 0 -124 50.5t-44 136.5q0 71 23 128.5t62 98t89.5 62.5t105.5 22zM314 435q-30 0 -55 -18.5t-43.5 -49.5t-29 -71.5t-11.5 -85.5q0 -36 4 -66.5t14 -53
t27 -35t43 -12.5q35 0 61.5 22.5t44 58.5t26.5 81.5t9 90.5q0 63 -23 101t-67 38z" />
    <glyph glyph-name="p" unicode="p" horiz-adv-x="561" 
d="M180 6q-1 -1 -2 -1q-8 -54 -14.5 -109.5t-13.5 -106.5q-22 -14 -41.5 -21.5t-49.5 -13.5l-10 10l50 307q14 90 25 173.5t21 168.5q-21 -2 -41.5 -9.5t-43.5 -19.5l-19 28q14 16 32 30t37.5 24.5t39 17t36.5 6.5q26 0 43 -10t17 -39q0 -34 -7.5 -79t-15.5 -84q1 0 2 -0.5
t2 -0.5q60 108 117 160.5t105 52.5q41 0 64 -38.5t25 -107.5q2 -46 -6 -85q-9 -47 -32.5 -94.5t-55 -85.5t-66.5 -61.5t-65 -23.5q-32 0 -63 2.5t-70 9.5zM298 56q34 0 59.5 23.5t43 60t26 80t8.5 84.5q0 49 -12.5 69t-32.5 20t-46.5 -22.5t-52 -57t-48 -75t-34.5 -76.5
l-12 -71q24 -20 52.5 -27.5t48.5 -7.5z" />
    <glyph glyph-name="q" unicode="q" horiz-adv-x="516" 
d="M295 482q28 0 60 -2.5t69 -9.5q11 14 17.5 20t17.5 6q7 0 17.5 -1.5t20.5 -5t16.5 -9t6.5 -13.5v-3q-26 -108 -45.5 -231.5t-33.5 -248.5q-2 -14 -4 -36.5l-4.5 -49.5t-5 -57.5t-4.5 -58.5q-21 -11 -45 -18.5t-47 -10.5l-13 10l28 223.5t34 217.5q-1 0 -2 0.5t-2 0.5
q-32 -50 -60 -89t-55 -67t-54.5 -42.5t-57.5 -14.5q-39 0 -63.5 38t-24.5 119q0 36 6 68q9 47 33 94.5t56 85.5t68.5 61.5t70.5 23.5zM302 420q-33 0 -59 -22.5t-43 -57.5t-26 -77.5t-9 -82.5q0 -51 12 -72t32 -21t46 23.5t52 58.5t48.5 75t36.5 74l12 67q-23 20 -53 27.5
t-49 7.5z" />
    <glyph glyph-name="r" unicode="r" horiz-adv-x="425" 
d="M250 311l14 28.5t18 33.5q19 37 36.5 60t33 36.5t28 18.5t23.5 5q29 0 45.5 -14t16.5 -38q0 -17 -11 -36.5t-39 -39.5q-8 11 -20.5 18.5t-27.5 7.5q-11 0 -24.5 -7t-27.5 -28q-15 -22 -30 -50.5t-28 -59.5t-23.5 -63t-15.5 -60q-7 -32 -11 -56t-6 -38q-2 -11 -6.5 -16
t-18.5 -7q-20 -3 -35 -7l-31 -8l-8 4t-6 7q10 51 18 96l16 92.5t16 101l18 121.5q-34 -1 -83 -26l-22 28q29 32 65.5 54t74.5 22q22 0 35 -6t20 -16.5t8 -25.5t0 -34l-2.5 -20.5l-3 -26t-4 -27.5t-4.5 -24h2v0z" />
    <glyph glyph-name="s" unicode="s" horiz-adv-x="429" 
d="M299 488q19 0 40 -3.5t38.5 -12t29.5 -22t13 -33.5q0 -25 -18.5 -39t-52.5 -17q-15 42 -39.5 57t-49.5 15q-32 0 -51.5 -14t-20.5 -37q1 -20 17 -38t40 -35.5t52 -35.5t51.5 -37.5t39.5 -41t16 -46.5q0 -33 -14.5 -62t-41.5 -50.5t-66.5 -34t-89.5 -12.5q-22 0 -47.5 3.5
t-47 12.5t-36 24t-14.5 37q0 51 70 60q14 -42 45.5 -60t71.5 -18q31 0 51 15.5t20 42.5q0 24 -20 43t-59 44l-49 31t-40.5 31t-28 34t-11.5 41q0 34 17 63t45.5 50t64.5 33t75 12z" />
    <glyph glyph-name="t" unicode="t" horiz-adv-x="366" 
d="M255 424l-31 -179.5t-27 -180.5q16 0 34 4t35.5 9.5t33.5 12.5t28 14l20 -30q-42 -41 -93 -63.5t-97 -22.5q-67 0 -67 60q0 7 0.5 15t1.5 18q11 82 27.5 172.5t33.5 170.5h-86l6 35l97 29l61 125h54l-23 -135h118l-10 -54h-116z" />
    <glyph glyph-name="u" unicode="u" horiz-adv-x="604" 
d="M167 414q-21 -2 -41.5 -9t-43.5 -19l-20 25q13 15 30.5 29.5t36.5 26t39 18t38 6.5q42 0 53.5 -23t7.5 -58q-5 -33 -13.5 -75.5l-17 -84.5t-14 -78t-4.5 -55q0 -17 7.5 -26t19.5 -9q19 0 42 18t45 43.5t41 53t30 45.5q9 15 16.5 29.5l13.5 26.5q3 6 7 26l8.5 44t8 47.5
t4.5 36.5q2 10 5.5 14t14.5 6q41 8 73 17l8 -4t5 -7l-20 -107l-17 -96.5t-15.5 -97.5l-15.5 -108q17 1 38 7.5t44 17.5l22 -28q-29 -32 -66 -53.5t-74 -21.5q-36 0 -50 15t-14 42q0 25 5 61.5t12 73.5h-3q-20 -29 -45.5 -62t-55 -61t-62.5 -47t-68 -19q-32 0 -51 20t-20 52
q-1 24 4 60t13.5 81.5l19 98t20.5 108.5h-1z" />
    <glyph glyph-name="v" unicode="v" horiz-adv-x="503" 
d="M272 95q33 38 59.5 79t44.5 79t27 68.5t9 47.5q-1 22 -15 33t-32 13q0 13 5.5 26.5t15 24t22.5 17.5t28 7q33 0 52.5 -20t20.5 -58q2 -47 -25 -105t-67.5 -116t-87 -111.5t-83.5 -91.5l-68 11q-2 51 -5.5 106.5t-9.5 109.5t-13.5 103t-16.5 87q-19 -5 -34.5 -13
t-35.5 -21l-21 28q25 37 60 62t67 25q31 0 46.5 -19t22.5 -51q4 -20 9 -57.5t8.5 -83t6.5 -93t4 -87.5h6z" />
    <glyph glyph-name="w" unicode="w" horiz-adv-x="742" 
d="M401 213q-19 -33 -40.5 -65.5t-43.5 -62t-43.5 -54.5t-39.5 -43q-17 2 -34 5l-34 6q0 49 -2 105.5t-5.5 111.5t-10 104.5t-16.5 84.5q-19 -5 -34 -13t-35 -22l-22 29q25 37 60 62t68 25q30 0 45 -19t22 -51q4 -20 8.5 -58.5t7 -84.5t3.5 -94t-1 -85q4 0 6 1
q29 34 51.5 69t38 65.5t25.5 55.5t15 40q0 4 -1 15t-2 15q-4 21 -9 40.5t-13 40.5q-2 5 -1.5 12.5t3.5 10.5q11 11 29.5 17t30.5 6q14 0 22.5 -5.5t15.5 -20.5q9 -18 16 -58t12.5 -90.5t9 -107t4.5 -108.5h6q33 38 58 79.5t42 79t25.5 68t8.5 48.5q0 23 -13.5 34.5
t-32.5 13.5q0 13 5.5 26t15 23.5t22.5 17.5t28 7q37 0 54.5 -22.5t17.5 -61.5q0 -48 -26.5 -105t-65.5 -114t-84 -109t-82 -89q-17 2 -33.5 5l-33.5 6l-4.5 99.5t-9.5 114.5h-4z" />
    <glyph glyph-name="x" unicode="x" horiz-adv-x="531" 
d="M202 486q26 0 42 -18.5t27 -45.5l19.5 -51t21.5 -61l64 84l68 92q7 9 10.5 8.5t14.5 -7.5l19 -13l12 -8.5l10.5 -7.5t14.5 -10q3 -4 3 -9t-3 -7l-46.5 -43l-49 -47l-48.5 -47.5l-45 -44.5q19 -54 36.5 -98.5t39.5 -79.5q18 8 35 21t35 29l28 -25q-11 -22 -26 -42
t-32.5 -35t-36.5 -24t-37 -9q-26 1 -42.5 18t-27.5 43q-10 23 -21.5 54.5l-24.5 65.5l-35.5 -45l-32.5 -43l-33 -45.5l-38 -51.5q-7 -10 -11 -9t-15 7l-51 37q-5 4 -5 10t4 9q21 19 46 44l51 51l51 51l45 45q-16 45 -34 89.5t-38 79.5q-17 -7 -34 -18t-35 -27l-26 25
q10 22 25.5 42t33.5 35t36.5 23.5t35.5 8.5z" />
    <glyph glyph-name="y" unicode="y" horiz-adv-x="551" 
d="M168 -5q-32 0 -51.5 19t-19.5 51q0 23 5 59t13 81.5l18 98l21 108.5q-24 -3 -43.5 -9.5t-43.5 -18.5l-9.5 13.5t-9.5 12.5q13 15 30.5 29.5t36.5 25.5t38.5 17.5t36.5 6.5q29 0 46 -11.5t19 -37.5q0 -14 -4 -38.5t-9.5 -55l-12 -64l-12 -64.5t-9.5 -56.5t-4 -40.5
q0 -17 6.5 -29t20.5 -12q23 0 46.5 18t44.5 43.5t38.5 53.5l29.5 47q9 15 16 29t12 27q3 6 7.5 26t9 44t8 47t4.5 35q2 10 5.5 14.5t15.5 7.5q19 3 37 7t35 9l8 -4t5 -7q-9 -50 -19 -98.5l-20 -98.5q-8 -45 -21 -101t-32 -114t-45 -113t-59.5 -98.5t-76.5 -69.5t-96 -26
q-27 0 -48 6.5t-35.5 16.5t-21.5 22.5t-7 23.5q0 17 13 34.5t52 27.5q7 -24 28 -40.5t48 -16.5q33 0 59.5 23.5t47.5 57t35.5 71.5t23.5 67q23 70 36 146q-2 0 -2.5 0.5t-2.5 0.5q-18 -30 -44.5 -65t-58.5 -66t-67.5 -51.5t-71.5 -20.5z" />
    <glyph glyph-name="z" unicode="z" horiz-adv-x="484" 
d="M168 410l-55 -80l-30 9l15 62t15 61q5 14 12.5 19t24.5 4q33 -2 56 -3t40.5 -2t30.5 -1h27q33 0 80 2l90 4l6 -13.5t5 -13.5l-39.5 -50.5l-60.5 -76.5l-54.5 -68.5l-55.5 -70.5l-51 -67t-41 -58q32 1 64.5 1h64.5q20 0 38 0.5t38 0.5l57 87l31 -9l-17 -68t-18 -68
q-6 -23 -32 -21q-43 4 -85.5 6t-89.5 2q-41 0 -86.5 0.5t-93.5 -2.5l-4 12.5l-4 13.5q15 21 40 53l54 68l56.5 70.5l57 72l52.5 68t43 58.5z" />
    <glyph glyph-name="braceleft" unicode="{" horiz-adv-x="339" 
d="M93 287q33 14 49.5 42.5t23.5 66.5q5 45 12 95.5t15 95.5q14 55 48 81t85 26h55q-1 -11 -2.5 -20.5t-2.5 -20.5h-27q-37 0 -51.5 -21.5t-19.5 -63.5t-8.5 -88t-13.5 -87.5t-29 -73t-54 -43.5v-7q31 -14 43 -35t12 -54q-5 -55 -11 -110.5t-14 -111.5q-2 -16 -2 -31.5
t4 -27.5t15 -19t32 -7h31l-5 -41h-39q-23 0 -45.5 3.5t-40.5 14.5t-29.5 31.5t-11.5 55.5q0 24 3.5 54.5t8 62.5l8.5 62t4 54q0 27 -9.5 46.5t-38.5 36.5l5 34v0z" />
    <glyph glyph-name="bar" unicode="|" horiz-adv-x="282" 
d="M181 -190h-63v896h63v-896z" />
    <glyph glyph-name="braceright" unicode="}" horiz-adv-x="340" 
d="M175 694q25 0 47.5 -4t39 -15t26 -31t9.5 -51q0 -25 -3.5 -52t-7.5 -54.5t-7.5 -55.5t-3.5 -55q0 -29 9 -53.5t37 -35.5l-4 -33q-22 -11 -35.5 -24t-21.5 -28.5t-12 -34.5t-7 -43l-15 -114q-7 -53 -18.5 -87.5t-29 -54.5t-41.5 -28t-56 -8h-58q2 11 3.5 20.5t2.5 20.5h31
q36 0 50 22t19 63l10.5 77.5t9.5 79.5q6 58 23.5 96.5t65.5 56.5v9q-32 10 -43.5 36.5t-11.5 60.5q0 25 3.5 53t8 56.5t8 56.5t3.5 53q0 29 -11 44.5t-39 15.5h-31l5 41h45z" />
    <glyph glyph-name="dagger" unicode="&#x2020;" horiz-adv-x="444" 
d="M91 532h156l21 180h67l-23 -180h154q-2 -16 -4.5 -33t-4.5 -33h-154l-33.5 -268.5l-32.5 -268.5h-67l67 537h-155z" />
    <glyph glyph-name="bullet" unicode="&#x2022;" horiz-adv-x="423" 
d="M360 271q0 -26 -8.5 -48.5t-24.5 -39.5t-37.5 -27t-48.5 -10q-24 0 -44.5 9t-36 24t-24.5 36t-9 45q0 26 9 48.5t25 39.5t37.5 26.5t47.5 9.5q23 0 44 -9t36.5 -24t24.5 -35.5t9 -44.5z" />
    <glyph glyph-name="germandbls" unicode="&#xdf;" horiz-adv-x="534" 
d="M378 721q64 0 100 -31t36 -82q0 -26 -10.5 -46t-26 -36.5t-33.5 -31.5t-33.5 -31.5t-26 -36t-10.5 -44.5t22.5 -56t50 -64.5t50 -69t22.5 -68.5q0 -35 -14.5 -61t-38.5 -43t-55 -26t-64 -9q-38 0 -63.5 7.5t-40.5 18.5t-21 23.5t-6 21.5q0 7 3.5 17t11 19t20.5 16.5
t33 10.5q6 -35 31 -58.5t57 -23.5q20 0 34.5 12t14.5 32q0 30 -22 63t-48 66.5t-48 67t-22 64.5q0 43 21 74t46.5 56.5t46.5 50t21 55.5q0 33 -16 57t-52 24q-31 0 -54.5 -18.5t-41 -50.5t-30.5 -74.5t-22.5 -91.5t-17 -101l-14.5 -102q-14 -100 -28.5 -184.5t-41 -146
t-70.5 -96t-117 -34.5q-13 0 -31.5 3t-35 10t-28 19t-11.5 29t11 32.5t33 24.5q21 -29 45.5 -44.5t55.5 -15.5q24 0 40 14t27 44.5t18.5 78t14.5 114.5q13 107 28 198.5t33 166.5q10 39 26.5 88.5t47 94t77 74.5t116.5 30z" />
    <glyph glyph-name="ellipsis" unicode="&#x2026;" horiz-adv-x="677" 
d="M124 123q26 0 41.5 -17t15.5 -42q0 -33 -21.5 -54.5t-51.5 -21.5q-29 0 -43 17t-14 43q0 30 21.5 52.5t51.5 22.5zM520 123q26 0 41.5 -17t15.5 -42q0 -33 -21.5 -54.5t-51.5 -21.5q-28 0 -42.5 17t-14.5 43q0 30 21.5 52.5t51.5 22.5zM326 123q26 0 41.5 -17t15.5 -42
q0 -33 -22 -54.5t-51 -21.5t-43 17t-14 43q0 30 21.5 52.5t51.5 22.5z" />
    <glyph glyph-name="endash" unicode="&#x2013;" horiz-adv-x="478" 
d="M49 219q2 14 4 31t4 31h418q-3 -31 -8 -62h-418z" />
    <glyph glyph-name="emdash" unicode="&#x2014;" horiz-adv-x="956" 
d="M47 219q2 14 4 31t4 31h900q-3 -31 -8 -62h-900z" />
    <glyph glyph-name="quotedblleft" unicode="&#x201c;" horiz-adv-x="436" 
d="M128 537q0 25 11.5 52t31 52.5t45 47.5t54.5 37q5 -6 9 -12l8 -12q-28 -26 -44 -50.5t-24 -57.5q20 -4 30 -17.5t10 -32.5q0 -28 -20 -49t-51 -21q-29 0 -44.5 18t-15.5 45zM285 537q0 25 11 52t30.5 52.5t45.5 47.5t55 37q5 -6 9 -12l8 -12q-28 -26 -44.5 -50.5
t-24.5 -57.5q20 -4 30.5 -17.5t10.5 -32.5q0 -28 -20.5 -49t-51.5 -21q-29 0 -44 18t-15 45z" />
    <glyph glyph-name="quotedblright" unicode="&#x201d;" horiz-adv-x="436" 
d="M441 662q0 -25 -11.5 -52t-31 -52t-45.5 -47t-55 -36q-5 5 -9 11t-7 12q27 26 44 50.5t24 58.5q-20 5 -30 18t-10 32q0 29 20.5 49.5t49.5 20.5t45 -18.5t16 -46.5zM284 662q0 -25 -11.5 -52t-31 -52t-45.5 -47t-55 -36q-5 5 -9 11.5l-8 12.5q29 26 46 50t24 58
q-20 5 -30.5 18t-10.5 32q0 29 21 49.5t50 20.5t44.5 -18.5t15.5 -46.5z" />
    <glyph glyph-name="quoteleft" unicode="&#x2018;" horiz-adv-x="278" 
d="M127 536q0 25 11.5 52t31 53t45 48t54.5 37l17 -25q-28 -25 -44.5 -49.5t-24.5 -57.5q20 -5 30.5 -18.5t10.5 -31.5q0 -29 -20.5 -50t-50.5 -21q-29 0 -44.5 18.5t-15.5 44.5z" />
    <glyph glyph-name="quoteright" unicode="&#x2019;" horiz-adv-x="278" 
d="M283 662q0 -25 -11.5 -52t-31.5 -52.5t-46 -47.5t-54 -36q-5 6 -8.5 12.5t-8.5 11.5q29 26 46 50.5t23 58.5q-40 10 -40 49q0 29 20.5 50t50.5 21q29 0 44.5 -18.5t15.5 -46.5z" />
    <glyph glyph-name="paragraph" unicode="&#xb6;" horiz-adv-x="595" 
d="M126 473q0 48 16 89t48 70.5t80 46.5t113 17q6 0 32.5 -0.5t62 -1l74 -1t69.5 -0.5q-1 -11 -1.5 -22.5t-2.5 -23.5l-41 -9q-16 -3 -27 -11.5t-18.5 -26t-12 -47t-7.5 -74.5q-7 -92 -15 -174.5t-21 -153t-35 -127.5t-56 -97t-84 -61.5t-120 -21.5q-48 0 -80 10t-50.5 25.5
t-26 33t-7.5 32.5q0 9 3.5 20.5t12.5 22t25 18t41 9.5q0 -58 22 -83t59 -25q34 0 57.5 24t40 71t28 117t20.5 162q-39 1 -75 14.5t-63.5 37.5t-44 59.5t-16.5 80.5zM412 636l-9.5 -107.5l-11 -129t-11 -124.5t-8.5 -94q-14 -113 -41.5 -180t-75.5 -100q0 -2 1 -2.5t1 -2.5
q59 20 91 57.5t54 92.5q10 32 18.5 78t15.5 99.5t12 111l9.5 112.5t8 104t6.5 85h-60z" />
    <glyph glyph-name="ampersand" unicode="&#x26;" horiz-adv-x="834" 
d="M362 548q30 0 51.5 -10.5t35 -26t20 -33t6.5 -31.5q0 -31 -17 -59t-43 -50l1 -1q17 3 31.5 3.5t28.5 0.5q45 0 84 -9t83 -17q14 40 22 83t8 87q0 57 -18.5 99t-50.5 69t-76 40.5t-95 13.5q-67 0 -114 -22t-76.5 -54.5t-43 -68.5t-13.5 -63q-12 -3 -24 -3q-26 0 -41.5 14
t-15.5 42q0 34 27.5 70.5t75 67t111 50t136.5 19.5q72 0 130 -16.5t99 -49t63 -81t22 -113.5q0 -48 -11.5 -98t-33.5 -97q19 0 38.5 0.5t40 4t42.5 11t45 21.5l21 -29q-26 -23 -54 -38t-57 -23.5t-58 -12t-56 -3.5q-33 -51 -76 -95.5t-92.5 -77.5t-104.5 -51.5t-112 -18.5
q-92 0 -136.5 51t-44.5 138q0 89 27.5 157.5t65.5 115t79.5 70.5t69.5 24zM418 287q-28 0 -55.5 -4t-71.5 -16h-2q-3 0 -6 6.5t-3 23.5q0 7 3 9l31.5 15t35 22t28 29.5t11.5 38.5q0 12 -5 24.5t-13.5 22t-19 16t-21.5 6.5q-10 0 -29 -16.5t-37.5 -50.5t-32 -87t-13.5 -125
q0 -31 5.5 -57t20 -45t40.5 -29.5t67 -10.5q36 0 72.5 13.5t70.5 38.5t64 59.5t53 76.5q-21 6 -41.5 13t-43.5 13t-49.5 10t-58.5 4z" />
    <glyph glyph-name="J" unicode="J" horiz-adv-x="405" 
d="M225 578q4 26 -3.5 35.5t-30.5 17.5l-47 16l8 40h283q0 -2 -0.5 -8.5t-1.5 -14t-2 -14t-1 -8.5l-44 -11q-34 -8 -43.5 -21.5t-12.5 -36.5l-57 -467q-10 -74 -32 -128.5t-57.5 -93t-85 -62t-113.5 -35.5l-11 57q51 18 85 41.5t56 53t33.5 66t16.5 80.5z" />
    <glyph glyph-name="K" unicode="K" horiz-adv-x="682" 
d="M413 687q-1 -12 -2.5 -23.5t-2.5 -22.5l-42 -10q-34 -8 -43 -22t-13 -36l-56 -459q0 -23 5.5 -35.5t33.5 -20.5l43 -12l-7 -46h-279l2 20t1 20l45 15q25 8 36 19.5t14 39.5l57 463q7 39 -35 54l-42 15q2 10 3.5 20t3.5 21h278zM308 355l222 230q4 4 8 10.5t4.5 13t-3 12
t-13.5 9.5l-32 12l8 46h228q-2 -12 -3 -23.5t-3 -23.5q-28 -12 -52 -26.5t-46.5 -32t-44 -37l-43.5 -40.5l-136 -126l92.5 -149t80.5 -123q17 -24 35 -39.5t48 -29.5l-6 -48q-24 -7 -51 -7t-48 8.5t-37.5 22t-30 31.5t-25.5 38l-154 256z" />
    <glyph glyph-name="Q" unicode="Q" horiz-adv-x="709" 
d="M460 703q57 0 101 -20t74 -56t46 -85.5t17 -108.5q0 -84 -19 -156.5t-54.5 -129.5t-87 -96t-117.5 -55l33 -34q28 -27 50 -44.5t41 -29t38 -19t43 -14.5q0 -5 -1 -20.5t-1 -20.5q-15 -4 -27 -5.5t-26 -1.5q-54 0 -111.5 30.5t-105.5 84.5q-2 2 -10.5 11.5l-18.5 21
l-18.5 21.5t-9.5 12q-47 6 -84 28t-63.5 57.5t-40.5 82.5t-15 104q0 102 29 184t79.5 139.5t117 88.5t141.5 31zM430 636q-47 0 -87.5 -28t-70.5 -76t-47 -111t-17 -132q0 -55 9 -99t28 -74.5t49 -47t73 -16.5q53 0 94 31.5t68.5 83t42 116.5t14.5 131q0 48 -9.5 88.5
t-28.5 70t-48.5 46.5t-69.5 17z" />
    <glyph glyph-name="U" unicode="U" horiz-adv-x="751" 
d="M648 219q-8 -62 -31 -107t-59 -73.5t-83 -42t-102 -13.5q-46 0 -87.5 10.5t-72.5 34t-49 60t-18 89.5v20t2 21l46 360q4 26 -4 35.5t-31 17.5l-42 15l7 41h278q-1 -11 -2.5 -22.5t-2.5 -22.5l-43 -11q-34 -8 -43 -21.5t-12 -36.5l-40 -324q-2 -15 -3 -30t-1 -29
q0 -29 6.5 -54t22.5 -43t43.5 -28t70.5 -10q50 0 82.5 17t53 45t30.5 64.5t15 75.5l39 321q4 26 -3.5 36t-30.5 18l-40 14l5 41h244l-5 -47l-40 -9q-34 -8 -43.5 -21.5t-12.5 -36.5z" />
    <glyph glyph-name="dollar" unicode="$" horiz-adv-x="552" 
d="M396 766h43l-12 -93q31 -5 62.5 -19.5t54.5 -31.5l-24 -127l-39 -3l-5 40q-3 20 -9.5 32t-14 18.5t-17 9.5l-18.5 6l-25 -210q62 -32 96.5 -74t34.5 -106q0 -34 -11 -65.5t-33.5 -57.5t-55.5 -45t-78 -28q-3 -29 -7 -57.5t-7 -57.5h-43zM243 -103h-44l14 113
q-31 5 -70 20t-69 38l5.5 30t6.5 39t6.5 38.5l5.5 29.5l39 4l6 -43q5 -35 21.5 -53.5t58.5 -27.5l32 263q-52 27 -85 66t-33 90q0 70 43 112t115 56l12 94h43zM355 90q39 15 58 44.5t19 62.5q0 26 -12.5 49t-41.5 40zM232 516q0 -40 36 -67l17 147q-23 -11 -38 -31t-15 -49z
" />
    <glyph glyph-name="quotesinglbase" unicode="&#x201a;" horiz-adv-x="244" 
d="M131 122q31 0 46.5 -23t13.5 -55q-3 -26 -15 -54t-30.5 -53.5t-43 -47.5t-52.5 -37q-2 3 -9.5 13.5t-9.5 13.5q28 27 45 54t25 61q-20 5 -31.5 20.5t-9.5 38.5q2 29 22 49t49 20z" />
    <glyph glyph-name="quotedblbase" unicode="&#x201e;" horiz-adv-x="410" 
d="M292 122q30 0 45.5 -20.5t15.5 -49.5q0 -27 -11 -56t-30 -56t-45 -50t-56 -38l-20 27q29 27 46 54t24 61q-40 10 -40 54q0 30 20.5 52t50.5 22zM128 122q30 0 45.5 -20.5t15.5 -49.5q0 -27 -11 -56t-30 -56t-45 -50t-56 -38q-3 3 -10.5 13.5t-9.5 13.5q29 27 46 54t25 61
q-20 5 -30.5 19t-10.5 35q0 30 20.5 52t50.5 22z" />
    <glyph glyph-name="daggerdbl" unicode="&#x2021;" horiz-adv-x="444" 
d="M201 175l36 291h-155q2 16 4.5 33t4.5 33h155l22 180h67l-23 -180h154q-2 -16 -4.5 -33t-4.5 -33h-154l-37 -291h157l-9 -66h-156l-21 -180h-67l22 180h-153l9 66h153z" />
    <glyph glyph-name="circumflex" unicode="&#x2c6;" horiz-adv-x="535" 
d="M321 655l-87 -56.5t-89 -55.5l-22 30l90 81l90 80h56l71.5 -79.5l70.5 -80.5l-31 -32z" />
    <glyph glyph-name="Euro" unicode="&#x20ac;" horiz-adv-x="552" 
d="M67 366l6 50h43q13 55 38 104.5t63.5 87t89 59.5t114.5 22q16 0 39 -2.5t48 -9t51 -18t50 -29.5l-29 -149l-39 -1l-4 45q-5 52 -34 72t-80 20q-41 0 -75 -17t-60 -44.5t-43 -64t-24 -75.5h241l-7 -50h-388zM449 305l-7 -52h-236q-2 -38 5.5 -72.5t26.5 -60.5t51.5 -42
t81.5 -16q10 0 27.5 1t39 3.5t46 7.5t48.5 13q0 -4 2.5 -12l5.5 -17l5.5 -16.5t3.5 -11.5q-25 -13 -53 -22t-56 -14t-52.5 -7.5t-41.5 -2.5q-122 0 -187 69.5t-58 199.5h-49l6 52h391z" />
    <glyph glyph-name="florin" unicode="&#x192;" horiz-adv-x="552" 
d="M381 319q-27 -129 -52.5 -221t-57 -150.5t-72.5 -85.5t-98 -27q-43 0 -70 19.5t-27 45.5q0 23 14.5 41t31.5 26q25 -44 44.5 -62.5t35.5 -18.5q9 0 16.5 4.5t14 11.5t11 14t7.5 13q10 18 21 48t23 76.5t26 111.5t31 154h-104q0 11 0.5 20.5t0.5 20.5h113
q31 160 86.5 242.5t156.5 82.5q19 0 37 -5t32 -14t23 -21t9 -26q0 -20 -16 -39.5t-36 -27.5q-19 34 -42.5 54.5t-44.5 20.5q-22 0 -38.5 -28t-29 -68.5t-22 -87l-16.5 -83.5h129q0 -11 -0.5 -20.5t-0.5 -20.5h-136z" />
    <glyph glyph-name="guilsinglleft" unicode="&#x2039;" horiz-adv-x="304" 
d="M157 215q20 -45 42 -88.5t42 -88.5q-8 -6 -15.5 -11l-15.5 -10l-67.5 87.5l-68.5 87.5l6 49l180 176l13 -10.5t13 -9.5z" />
    <glyph glyph-name="tilde" unicode="&#x2dc;" horiz-adv-x="525" 
d="M455 686l13.5 -4l13.5 -4q-6 -21 -15.5 -40.5t-23 -34.5t-32 -24t-42.5 -9q-23 0 -39.5 6.5t-31.5 14.5t-29.5 14.5t-32.5 6.5q-20 0 -36.5 -8.5t-33.5 -37.5l-30 9q4 14 11.5 33t21 36.5t33 29.5t47.5 12q17 0 34.5 -7t35 -15l34 -15t31.5 -7q23 0 38 8.5t33 35.5z" />
    <glyph glyph-name="trademark" unicode="&#x2122;" horiz-adv-x="863" 
d="M709 603l-29 -76q-17 -40 -32 -81.5t-30 -77.5h-31l-95 232h-3q-2 -46 -4.5 -91t-5.5 -92q0 -16 3.5 -22t17.5 -9l25 -5l-1 -27h-137l-1 26l26 7q12 3 17 8.5t7 23.5q5 52 8 103t7 102q0 15 -2.5 23t-19.5 13l-21 6l4 24q17 -1 32.5 -1h32.5h22t23 1q3 -21 8 -31l85 -203
h1l46 111l25.5 63l24.5 60q9 0 20 -0.5t23 -0.5h31t31 1l2 -26l-21 -5q-15 -5 -19.5 -10t-4.5 -16l16 -218q2 -17 7 -22t19 -8l19 -4v-27h-150v24l20 7q14 5 16.5 12.5t2.5 18.5l-12 187h-3zM266 419q0 -10 3 -21t18 -15l25 -5v-26h-149l-1 24l21 6q11 3 15.5 9t5.5 20v235
h-48q-17 0 -22.5 -4.5t-10.5 -21.5l-12 -41l-23 3q0 24 0.5 52.5t0.5 51.5l6 3q34 -2 68.5 -2h72.5q33 0 70.5 0.5t69.5 2.5q2 -2 3 -2t2 -2q0 -26 1 -51.5t1 -52.5l-23 -3l-13 43q-4 14 -10 19t-23 5h-48v-227z" />
    <glyph glyph-name="guilsinglright" unicode="&#x203a;" horiz-adv-x="304" 
d="M100 397q4 3 16.5 11l17.5 11l14.5 -18.5l24 -32l29 -38.5l29 -38l24 -32t15.5 -18l-7 -49q-8 -7 -34 -33l-56 -55.5l-56 -55.5t-34 -33l-27 23l126 178z" />
    <glyph glyph-name="currency" unicode="&#xa4;" horiz-adv-x="552" 
d="M288 118q-28 0 -53.5 8.5t-51.5 24.5l-59 -61l-20.5 22l-21.5 22l59 60q-17 26 -25 53t-8 56q0 53 32 103l-58 60l44 46l29 -30t29 -29q26 16 51.5 24.5t52.5 8.5q28 0 53 -7t50 -23q11 12 28 28.5l28 27.5l44 -45l-56 -58q15 -26 23.5 -52.5t8.5 -53.5q0 -56 -32 -108
l28 -28.5t28 -30.5l-22 -22.5l-21 -22.5l-58 61q-51 -34 -102 -34zM288 419q-24 0 -44.5 -9t-36.5 -24.5t-25 -36.5t-9 -46t9 -46.5t25 -38t36.5 -26t44.5 -9.5t44.5 9.5t36.5 26t25 38t9 46.5q0 24 -9 45.5t-25 37t-36.5 24.5t-44.5 9z" />
    <glyph glyph-name="exclamdown" unicode="&#xa1;" horiz-adv-x="287" 
d="M201 496q26 0 41.5 -16.5t15.5 -42.5q0 -31 -22 -53.5t-52 -22.5q-26 0 -41.5 16.5t-15.5 40.5q0 32 20.5 55t53.5 23zM194 291l-12 -446q0 -11 -4 -23.5t-12 -23t-21 -17t-32 -6.5q-30 0 -42.5 16t-12.5 36q0 13 2 18l48.5 222.5l47.5 223.5h38z" />
    <glyph glyph-name="questiondown" unicode="&#xbf;" horiz-adv-x="445" 
d="M251 294q48 -20 71 -55.5t23 -73.5q0 -20 -10.5 -40.5t-27 -41t-37.5 -39.5l-41 -37l-36.5 -33t-33.5 -33.5t-24.5 -32.5t-9.5 -30q0 -23 17.5 -36.5t43.5 -13.5q32 0 74.5 24t78.5 70q17 -6 32 -21t15 -39q0 -45 -49.5 -69.5t-128.5 -24.5q-91 0 -137 31.5t-46 85.5
q0 22 10.5 43.5t27.5 41t38.5 38l43.5 36.5l41.5 34.5t36.5 35.5t25.5 37t9.5 40q0 16 -9 36.5t-23 35.5zM287 363q-26 0 -41.5 16.5t-16.5 39.5q0 32 20.5 54.5t51.5 22.5q26 0 41 -16t16 -40q0 -15 -5.5 -29t-15 -24.5t-22.5 -17t-28 -6.5z" />
    <glyph glyph-name="brokenbar" unicode="&#xa6;" horiz-adv-x="283" 
d="M179 222v-412h-59v412h59zM120 322v384h59v-384h-59z" />
    <glyph glyph-name="guillemotleft" unicode="&#xab;" horiz-adv-x="454" 
d="M310 216q20 -45 42.5 -89t42.5 -89l-31 -21l-68 87.5l-68 87.5l7 49l178 176l13 -10.5t13 -9.5zM156 215l43 -88.5t42 -88.5l-15 -11t-15 -10l-137 175l7 49l179 176l12.5 -10.5t12.5 -9.5z" />
    <glyph glyph-name="guillemotright" unicode="&#xbb;" horiz-adv-x="454" 
d="M254 398q5 2 15.5 9.5t15.5 9.5l136 -177l-7 -48l-178 -175l-26 22l127 180zM100 398q5 2 16 9.5t15 9.5l69 -88l67 -89l-7 -48l-177 -175l-13 10.5l-14 10.5l128 181z" />
    <glyph glyph-name="periodcentered" unicode="&#xb7;" horiz-adv-x="236" 
d="M207 273q-2 -31 -23.5 -52.5t-51.5 -21.5q-29 0 -43.5 18.5t-12.5 45.5q2 29 23.5 50t49.5 21q27 0 43.5 -17.5t14.5 -43.5z" />
    <glyph glyph-name="logicalnot" unicode="&#xac;" horiz-adv-x="576" 
d="M527 313l-33 -260h-69l23 190h-360q2 17 4.5 35t4.5 35h430z" />
    <glyph glyph-name="sfthyphen" unicode="&#xad;" horiz-adv-x="349" 
d="M331 292q-2 -20 -5 -37t-5 -37h-254q2 20 4.5 37t4.5 37h255z" />
    <glyph glyph-name="copyright" unicode="&#xa9;" horiz-adv-x="853" 
d="M437 -25q-84 0 -152 29t-115 79t-72.5 118t-25.5 145t27.5 144.5t76 118t115.5 79.5t146 29q78 0 145 -29t115.5 -79.5t76 -118t27.5 -144.5t-27.5 -145t-76 -118t-115.5 -79t-145 -29zM437 24q68 0 124.5 25t97.5 68.5t63.5 102t22.5 126.5q0 67 -23 126t-64 102.5
t-97.5 68.5t-123.5 25q-68 0 -125 -25t-98 -68.5t-63.5 -102.5t-22.5 -126q0 -68 22.5 -126.5t63.5 -102t97.5 -68.5t125.5 -25zM234 334q0 39 11 81t35.5 76t62.5 56t92 22q28 0 63.5 -6t73.5 -26l3 -104l-29 -5l-12 33q-13 32 -39 43.5t-57 11.5q-36 0 -59.5 -16
t-37.5 -41t-20 -56.5t-6 -62.5q0 -30 5 -61.5t19.5 -57.5t41 -43t70.5 -17q14 0 46.5 4t68.5 15l12 -43q-18 -9 -37.5 -15t-38.5 -9.5t-36 -5.5t-29 -2q-98 0 -150.5 58.5t-52.5 170.5z" />
    <glyph glyph-name="registered" unicode="&#xae;" horiz-adv-x="557" 
d="M314 233q-54 0 -97 18.5t-73.5 51t-46.5 75.5t-16 92q0 50 17.5 93.5t48.5 76t73.5 51t93.5 18.5t94 -18.5t74.5 -51t49.5 -76t18 -93.5q0 -49 -18 -92t-49.5 -75.5t-74.5 -51t-94 -18.5zM314 267q45 0 81 16t61.5 43.5t39.5 64.5t14 79q0 43 -14 80t-39.5 64.5t-62 43.5
t-80.5 16q-43 0 -79 -16t-62 -43.5t-40.5 -64.5t-14.5 -80q0 -42 14 -79t39.5 -64.5t61.5 -43.5t81 -16zM206 614q14 -1 27 -1h35h11.5t18 0.5t17.5 0.5h11q39 1 64 -16t25 -58q0 -23 -13.5 -43.5t-39.5 -31.5l32 -67q6 -12 12.5 -17t17.5 -7l18 -2v-22l-63 -11l-7 5
l-52 113q-8 0 -18 0.5t-21 2.5v-63q0 -12 4.5 -16.5t12.5 -6.5l18 -4v-24h-114l-1 21l14 5q11 4 15 9t4 17v163q0 14 -4 20t-15 9l-12 3zM367 536q0 26 -17 36.5t-45 10.5q-6 0 -12 -0.5t-12 -1.5v-89q6 -2 12 -2h10q38 0 51 14.5t13 31.5z" />
    <glyph glyph-name="cedilla" unicode="&#xb8;" horiz-adv-x="488" 
d="M309 12q-36 -40 -68 -80q41 -3 70 -19.5t29 -53.5q0 -25 -15.5 -45.5t-42.5 -34.5t-63.5 -22t-77.5 -8l4 34q21 1 41.5 5.5t37.5 12t27.5 18.5t10.5 26q0 13 -8 21t-20 12.5t-25.5 6.5t-24.5 3l-8 18l53.5 63l52.5 61l27 -18v0z" />
    <glyph glyph-name="macron" unicode="&#xaf;" horiz-adv-x="540" 
d="M489 662q-2 -18 -4.5 -34.5t-4.5 -34.5h-318l4 34.5l4 34.5h319z" />
    <glyph glyph-name="degree" unicode="&#xb0;" horiz-adv-x="414" 
d="M232 714q31 0 56 -10t42 -27.5t26.5 -40.5t9.5 -50q0 -29 -11.5 -54t-31.5 -44t-46 -29.5t-56 -10.5t-54 10t-41.5 27.5t-27 41t-9.5 50.5q0 29 11 54t30.5 43.5t45.5 29t56 10.5zM229 666q-41 0 -64.5 -25.5t-23.5 -62.5q0 -34 22 -58t61 -24q42 0 66 26t24 62
q0 35 -21.5 58.5t-63.5 23.5z" />
    <glyph glyph-name="plusminus" unicode="&#xb1;" horiz-adv-x="556" 
d="M348 343h179q-2 -17 -4.5 -35.5t-4.5 -35.5h-179l-10 -82.5l-10 -82.5h-70l20 165h-181l10 71h180l23 179h70zM56 1l8 69h431l-4 -34.5l-4 -34.5h-431z" />
    <glyph glyph-name="ccedilla" unicode="&#xe7;" horiz-adv-x="434" 
d="M419 100q-15 -19 -34.5 -36.5t-42 -32t-46.5 -25t-47 -14.5l-25 -30l-24 -30q41 -3 70 -19.5t29 -53.5q0 -25 -15.5 -45.5t-42.5 -34.5t-63.5 -22t-77.5 -8l4 34q21 1 41.5 5.5t37.5 12t27.5 18.5t10.5 26q0 13 -8 21t-20 12.5t-25.5 6.5t-24.5 3l-8 18l70 83
q-69 5 -101 52t-35 126q-3 82 36.5 154t107.5 123q33 23 62.5 34.5t58.5 11.5q32 0 54.5 -7.5t36.5 -19t20 -24.5t5 -23q0 -17 -17.5 -34.5t-58.5 -25.5q-5 41 -23 55t-37 14q-23 0 -39.5 -9t-33.5 -27q-14 -16 -26.5 -40.5t-22 -52.5t-14.5 -57.5t-4 -55.5q2 -61 21 -94
t61 -33q26 0 61.5 16.5t75.5 54.5l26 -27v0z" />
    <glyph glyph-name="divide" unicode="&#xf7;" horiz-adv-x="556" 
d="M517 308q-2 -17 -4.5 -35.5t-4.5 -35.5h-430q2 17 4.5 35.5t4.5 35.5h430zM284 153q23 0 37.5 -15.5t14.5 -38.5q0 -29 -21 -50t-48 -21q-22 0 -37 15t-15 38q0 29 21 50.5t48 21.5zM328 516q23 0 37.5 -16.5t14.5 -39.5q0 -28 -21 -48.5t-47 -20.5q-22 0 -36.5 15.5
t-14.5 39.5q0 14 5.5 27t15 22.5t21.5 15t25 5.5z" />
    <glyph glyph-name="section" unicode="&#xa7;" horiz-adv-x="502" 
d="M391 723q54 0 76 -22t22 -46q0 -20 -13 -36.5t-34 -26.5q-23 30 -50 49.5t-45 19.5q-13 0 -22 -6.5t-14.5 -15.5t-8 -20t-2.5 -20q0 -37 20 -74.5t44 -71.5q17 -23 33.5 -49.5t30 -56t21.5 -62.5t8 -70q0 -50 -18 -108.5t-54 -109t-89 -84.5t-122 -34q-45 0 -69.5 20
t-24.5 44q0 22 16.5 40t36.5 26q26 -32 52 -50t47 -18q12 0 20 6t13 15t7 19t2 19q0 42 -19.5 80t-45.5 73q-17 23 -33 49.5t-29.5 56t-21.5 62.5t-8 69q0 51 19 109.5t55 108t86.5 82.5t113.5 33zM188 437q0 -30 7.5 -57t19.5 -51.5t26.5 -46.5l29.5 -43q34 -49 52 -90
t18 -93v-13.5t-1 -13.5q23 32 33.5 68t10.5 79q-2 49 -22.5 89.5t-55.5 89.5q-30 42 -49 90t-19 106v12t1 13q-26 -30 -38.5 -68.5t-12.5 -70.5z" />
    <glyph glyph-name="cent" unicode="&#xa2;" horiz-adv-x="552" 
d="M369 571l33 -2l-16 -100q65 0 94.5 -20.5t29.5 -43.5q0 -16 -17 -32t-57 -23q-6 35 -20 46.5t-40 14.5l-27 -173.5t-24 -160.5q25 2 59.5 17.5t69.5 48.5q7 -6 13 -12.5l12 -12.5q-14 -17 -33 -33t-40.5 -29t-45 -23t-45.5 -14q-7 -38 -11 -67t-8 -55l-33 3q5 29 9 58.5
t9 58.5q-72 0 -106 43t-36 118q0 44 15 89t42.5 84.5t67 69t88.5 42.5zM237 192q1 -45 15 -73.5t41 -36.5l49 324q-20 -6 -39 -26.5t-33.5 -50t-23.5 -65.5t-9 -72z" />
    <glyph glyph-name="sterling" unicode="&#xa3;" horiz-adv-x="552" 
d="M196 366q9 69 28.5 128.5t52 103.5t80 69t111.5 25t98.5 -22t35.5 -51q0 -22 -20 -45t-53 -27q-6 35 -29 57t-56 22q-38 0 -62 -15.5t-40 -47t-26 -81t-19 -116.5h181v-46h-187q-10 -66 -25 -129t-48 -117q14 0 37 0.5t49 1t51 1.5t43 1q22 1 36.5 3.5t25 9.5t19 18.5
t19.5 30.5l27 48l30 -8l-16 -85l-16 -85l-11 -10q-35 1 -60 1.5l-49 1t-51 0.5h-65h-55t-64 -0.5l-66 -1t-61 -1.5l-3 49l37 13q26 9 45 37.5t32.5 66t22.5 79t15 75.5h-85v46h91z" />
    <glyph glyph-name="yen" unicode="&#xa5;" horiz-adv-x="552" 
d="M91 314q0 4 1 11l2 14.5l2 14.5t2 11h141l-79 203q-5 12 -9 20t-8.5 13.5t-11.5 9t-17 7.5l-28 11l9 43h159q-2 -24 3 -48.5t13 -49.5l78 -213h9l25 46l31 55.5l31 55.5l26 46q10 18 6.5 32t-31.5 22l-31 9q0 3 1 9t2.5 13t2.5 13.5t2 8.5q53 0 104 0.5t105 0.5
q0 -3 -1 -9t-2 -13.5t-2 -13.5t-1 -9q-39 -18 -68.5 -50t-64.5 -86l-79 -126h153q-1 -4 -2 -11l-2 -14.5l-2 -14.5t-1 -11h-468zM350 113q-2 -26 5.5 -37.5t33.5 -18.5l42 -11l-7 -46h-273q0 3 0.5 8.5t1 12t1 12t0.5 7.5l44 15q12 4 20.5 8.5t14 10.5t9 15.5t5.5 23.5
l12 98h-180l6 50h468q-2 -8 -3.5 -25t-2.5 -25h-185z" />
    <glyph glyph-name="AE" unicode="&#xc6;" horiz-adv-x="977" 
d="M427 43l42 13q26 8 36.5 21.5t13.5 40.5q4 29 6 58.5t5 58.5h-231l-90 -129q-14 -18 -9 -32.5t31 -21.5l32 -8l-5 -44h-240l3 42l31 9q28 8 50 31.5t42 52.5l333 456q9 13 9 22q0 10 -8 14.5t-18 6.5l-31 9l10 45q118 -3 245 -3q76 0 147 1.5t137 3.5l10 -5
q-3 -48 -6.5 -94.5t-7.5 -94.5l-36 -5l-15 69q-4 18 -8.5 29t-12 17t-19 8.5t-28.5 2.5q-33 1 -73.5 1.5t-98.5 0.5l-11.5 -125t-10.5 -125l119 4l119 4q-2 -20 -4 -37.5l-4 -36.5l-237 8l-17 -186q-2 -18 0.5 -29t9.5 -16.5t19 -7t31 -1.5q45 0 72.5 0.5t49.5 0.5
q33 1 53 11.5t39 45.5l21.5 38l21.5 38q8 -2 17 -4t17 -4l-42 -188l-18 -13q-34 0 -60 1t-50.5 2.5t-52 2.5t-63.5 1q-78 0 -145.5 -0.5t-118.5 -2.5zM560 613l-223 -318h199l29 318h-5z" />
    <glyph glyph-name="primemod" unicode="&#x2b9;" horiz-adv-x="258" 
d="M61 409l77.5 149.5l75.5 148.5l78 -38l-93 -142l-91 -142z" />
    <glyph glyph-name="caron" unicode="&#x2c7;" horiz-adv-x="540" 
d="M486 736q6 -7 11 -15l10 -16l-178 -160h-56l-143 160l15 15.5t14 16.5l32.5 -24.5l42 -32l42 -32l32.5 -24.5z" />
    <glyph glyph-name="breve" unicode="&#x2d8;" horiz-adv-x="540" 
d="M293 551q-50 0 -87 32t-62 83l73 36q17 -38 42.5 -61.5t46.5 -23.5q23 0 56 17t83 66l31 -28q-45 -63 -94 -92t-89 -29z" />
    <glyph glyph-name="dotaccent" unicode="&#x2d9;" horiz-adv-x="537" 
d="M320 711q26 0 42 -16.5t16 -41.5q0 -31 -21 -53.5t-51 -22.5q-28 0 -43.5 17t-15.5 43q0 32 22 53t51 21z" />
    <glyph glyph-name="ring" unicode="&#x2da;" horiz-adv-x="537" 
d="M305 550q-42 0 -68.5 27.5t-26.5 69.5q0 24 9.5 46t26 38.5t38.5 26.5t46 10q41 0 67.5 -28.5t26.5 -68.5q0 -26 -10 -48t-26.5 -38t-38 -25.5t-44.5 -9.5zM323 718q-24 0 -42.5 -20t-18.5 -45q0 -20 14 -36.5t35 -16.5q12 0 22.5 5.5t19 14.5t13.5 20.5t5 23.5
q0 21 -14 37.5t-34 16.5z" />
    <glyph glyph-name="ogonek" unicode="&#x2db;" horiz-adv-x="540" 
d="M385 23q-35 -33 -52.5 -68.5t-17.5 -63.5q0 -29 21 -38.5t47 -9.5q15 0 31 2.5t29 5.5l5 -31q-27 -14 -57.5 -21.5t-58.5 -7.5q-51 0 -73 19.5t-22 48.5q0 15 6.5 36t21.5 45t40.5 49t63.5 48z" />
    <glyph glyph-name="hungarumlaut" unicode="&#x2dd;" horiz-adv-x="537" 
d="M310 753l34 -27l34 -25l-78.5 -83.5l-79.5 -83.5q-2 2 -7.5 6t-12.5 8.5t-12.5 8.5t-7.5 6zM450 753l34 -27l34 -25l-78.5 -83.5l-79.5 -83.5l-40 29z" />
    <glyph glyph-name="tonos" unicode="&#x384;" horiz-adv-x="525" 
d="M395 752l31.5 -30.5l32.5 -29.5l-84 -78.5l-83 -78.5l-39 34z" />
    <glyph glyph-name="dieresistonos" unicode="&#x385;" horiz-adv-x="535" 
d="M345 754l75 -44l-71 -91.5l-70 -91.5l-42 25zM196 675q20 0 33.5 -14t13.5 -34q0 -27 -17.5 -46t-42.5 -19q-22 0 -35 14.5t-13 36.5q0 26 19 44t42 18zM446 675q20 0 33.5 -14t13.5 -34q0 -27 -17.5 -46t-42.5 -19q-22 0 -35 14.5t-13 36.5q0 26 19 44t42 18z" />
    <glyph glyph-name="ae" unicode="&#xe6;" horiz-adv-x="708" 
d="M605 489q48 0 76 -29t30 -77q0 -35 -18.5 -62t-52.5 -48t-82 -36t-106 -24q-1 -8 -2 -25.5t-1 -29.5q0 -48 17.5 -74.5t52.5 -26.5q37 0 74.5 21t72.5 53l27 -26q-14 -18 -36 -38.5t-49.5 -38t-60 -28.5t-68.5 -11q-89 0 -120 73q-59 -44 -111 -59.5t-87 -15.5
q-54 0 -79.5 24.5t-25.5 79.5q0 28 14 56t48 51t92 39.5t145 21.5q3 19 6.5 38.5t3.5 36.5q0 44 -22.5 61t-60.5 17q-29 0 -65 -7t-68 -17l-15 48q36 21 84.5 35.5t96.5 14.5q42 0 78.5 -16.5t49.5 -56.5q35 34 77.5 55t84.5 21zM346 103q-2 8 -3 26.5t-1 34.5q0 14 1 26.5
t2 23.5q-66 -5 -103 -19.5t-55.5 -31t-22.5 -32.5t-4 -25q0 -19 10 -34t33 -15q35 0 71.5 13t71.5 33zM458 260q0 -1 1 -2q28 6 56.5 14.5t52 22t38 33t14.5 45.5q0 30 -15.5 44.5t-31.5 14.5q-18 0 -35.5 -10t-33.5 -31t-28 -53.5t-18 -77.5z" />
    <glyph glyph-name="asciitilde" unicode="~" horiz-adv-x="552" 
d="M537 302q-8 -23 -19.5 -44.5t-28.5 -38t-39.5 -27t-52.5 -10.5t-55.5 8t-48.5 17.5t-45 17.5t-46 8q-26 0 -52.5 -11.5t-46.5 -43.5l-35 10q4 15 14 37t27.5 42t44 34.5t62.5 14.5q23 0 49.5 -8.5t53 -18l51 -18t43.5 -8.5q26 0 47 10t44 41z" />
    <glyph glyph-name="acute" unicode="&#xb4;" horiz-adv-x="528" 
d="M403 752l32 -30.5t33 -29.5l-84 -78.5l-84 -78.5q-8 8 -19 17t-19 17z" />
    <glyph glyph-name="OE" unicode="&#x152;" horiz-adv-x="881" 
d="M870 197l-22 -91l-21 -91l-15 -15q-35 0 -60 0.5l-48 1t-50 1t-66 0.5q-30 0 -63.5 -2t-67.5 -5t-67 -5t-62 -2q-53 0 -96.5 19t-74.5 54t-47.5 85t-16.5 113q0 97 25.5 178t72 139.5t112.5 90.5t148 32q22 0 42.5 -2t46 -5t59.5 -5t83 -2q30 0 53 0.5l44.5 1l44 1
t52.5 1.5q2 -2 4 -2.5t4 -2.5l-19 -189l-37 -5q-5 20 -8.5 41.5t-7.5 41.5q-5 23 -15.5 32.5t-39.5 10.5q-4 0 -26 0.5t-48.5 0.5t-50.5 0.5t-31 0.5l-28 -233l109.5 4l109.5 4q-2 -20 -5 -37t-5 -37l-217 8l-12 -103t-13 -103q-4 -28 7 -40.5t41 -12.5q29 0 61.5 1t59.5 2
q16 1 27 3.5t19 8.5t15.5 15t15.5 23l50 83zM366 53q27 0 44 10t21 38l7 51.5l11.5 86l13.5 102.5l13.5 102.5t11 86t6.5 51.5v5q0 29 -19 38.5t-45 9.5q-54 0 -96 -29.5t-71.5 -79.5t-45 -116t-15.5 -139q0 -51 9 -91.5t28.5 -68.5t51 -42.5t75.5 -14.5z" />
    <glyph glyph-name="oe" unicode="&#x153;" horiz-adv-x="760" 
d="M503 190q-2 -3 -2 -11.5v-15.5q0 -48 15.5 -76.5t54.5 -28.5q38 0 75.5 20t72.5 53l13.5 -13t12.5 -13q-14 -18 -35.5 -38.5t-49.5 -38t-60.5 -28.5t-67.5 -11q-43 0 -73 19t-44 58q-35 -37 -82.5 -56t-101.5 -19q-79 0 -123.5 50.5t-44.5 136.5q0 71 23 128.5t62 98
t89.5 62.5t106.5 22q51 0 87.5 -23t54.5 -65q35 37 81 62.5t90 25.5q48 0 76.5 -32t30.5 -81q0 -34 -20 -61.5t-55 -50t-82.5 -40.5t-103.5 -34zM314 435q-29 0 -54 -18.5t-43.5 -49.5t-29.5 -71.5t-12 -85.5q0 -36 4 -66.5t14 -53t27 -35t43 -12.5q35 0 61.5 23.5t44 60.5
t26 82t8.5 87q0 61 -22 99.5t-67 39.5zM508 237q1 0 1 -1q28 5 57 16t53 27.5t39 38.5t15 48q0 30 -15.5 48t-32.5 18q-18 0 -36 -13.5t-34 -38.5t-28.5 -61.5t-18.5 -81.5z" />
    <glyph glyph-name="Circumflex" unicode="&#xf6c0;" horiz-adv-x="686" 
d="M431 833l-87 -53.5l-87 -53.5l-21 30l88 78l89 77h56l72 -76.5l72 -77.5q-8 -7 -16 -16l-14 -16z" />
    <glyph glyph-name="commaaccent" unicode="&#xf6c3;" horiz-adv-x="693" 
d="M358 -54q29 0 45 -19.5t16 -48.5q0 -45 -35.5 -89t-97.5 -74q-2 4 -7 12.5t-7 12.5q27 20 39.5 39t20.5 42q-21 3 -33.5 18t-12.5 35q0 29 21 50.5t51 21.5z" />
    <glyph glyph-name="Acute" unicode="&#xf6c9;" horiz-adv-x="686" 
d="M551 902l37 -80l-44.5 -20.5l-57.5 -25.5l-57.5 -25.5t-44.5 -19.5q-2 3 -5 9.5t-6.5 13l-7 13t-4.5 9.5z" />
    <glyph glyph-name="Caron" unicode="&#xf6ca;" horiz-adv-x="686" 
d="M598 917q6 -8 11 -15.5l10 -15.5l-178 -154h-55l-72.5 77l-71.5 77q4 5 15 16l15 15l32.5 -22l42.5 -29.5l42.5 -30l32.5 -23.5z" />
    <glyph glyph-name="Dieresis" unicode="&#xf6cb;" horiz-adv-x="686" 
d="M331 858q22 0 35 -14.5t13 -35.5q0 -26 -18.5 -44.5t-42.5 -18.5q-20 0 -34 14t-14 36q0 26 18.5 44.5t42.5 18.5zM527 858q21 0 34.5 -14.5t13.5 -35.5q0 -26 -19 -44.5t-42 -18.5q-20 0 -34 14t-14 36q0 26 18.5 44.5t42.5 18.5z" />
    <glyph glyph-name="DieresisAcute" unicode="&#xf6cc;" horiz-adv-x="686" 
d="M505 951l31 -31.5t30 -31.5l-87 -72.5l-86 -73.5q-9 9 -18.5 17t-18.5 17zM295 858q21 0 34.5 -14.5t13.5 -35.5q0 -26 -19 -44.5t-42 -18.5q-20 0 -34 14t-14 36q0 26 18.5 44.5t42.5 18.5zM588 858q21 0 34.5 -14.5t13.5 -35.5q0 -26 -19 -44.5t-42 -18.5
q-20 0 -33.5 14t-13.5 36q0 26 18.5 44.5t41.5 18.5z" />
    <glyph glyph-name="DieresisGrave" unicode="&#xf6cd;" horiz-adv-x="686" 
d="M588 858q21 0 34.5 -14t13.5 -34q0 -27 -18 -46t-43 -19q-20 0 -33.5 14t-13.5 36q0 26 18.5 44.5t41.5 18.5zM295 858q21 0 35 -14t14 -35q0 -27 -19 -45.5t-43 -18.5q-20 0 -34 14t-14 36q0 26 18.5 44.5t42.5 18.5zM509 771q-3 -2 -9 -6.5t-13.5 -9t-13.5 -9t-9 -7.5
q-12 12 -31.5 33.5l-40.5 45l-40.5 45t-31.5 33.5q5 5 16 12.5l23 16l23 16t16 12.5z" />
    <glyph glyph-name="Grave" unicode="&#xf6ce;" horiz-adv-x="686" 
d="M491 773l-29 -46q-15 8 -41 20l-54.5 25.5l-54.5 25.5t-41 20q4 5 11 16.5l14.5 24l14.5 24t11 16.5z" />
    <glyph glyph-name="Hungarumlaut" unicode="&#xf6cf;" horiz-adv-x="686" 
d="M631 915l46 -74l-95.5 -57.5l-96.5 -57.5l-28 41zM466 915l46 -74l-96.5 -57.5l-95.5 -57.5q-8 10 -14 20t-14 21z" />
    <glyph glyph-name="Macron" unicode="&#xf6d0;" horiz-adv-x="686" 
d="M597 833l-4 -37l-4 -37h-318l8 74h318z" />
    <glyph glyph-name="cyrBreve" unicode="&#xf6d1;" horiz-adv-x="686" 
d="M267 864l68 34q17 -38 43 -61.5t47 -23.5t53.5 16t84.5 66q8 -6 16 -14t16 -14q-45 -63 -94 -91.5t-89 -28.5q-26 0 -49 9.5t-41.5 25t-33 35t-23.5 38.5z" />
    <glyph glyph-name="cyrbreve" unicode="&#xf6d4;" horiz-adv-x="546" 
d="M143 658q0 2 0.5 4.5t0.5 4.5l68 34q17 -38 42.5 -61.5t46.5 -23.5q22 0 55 16.5t84 66.5l31 -28q-45 -63 -94 -91.5t-89 -28.5q-26 0 -48.5 9.5t-41 25t-32.5 34.5t-23 38z" />
    <glyph glyph-name="uniF6D9" unicode="&#xf6d9;" horiz-adv-x="926" 
d="M788 472l39 7.5t39 8.5q4 0 7.5 -3t4.5 -6q-20 -107 -36 -209.5t-30 -201.5q37 1 83 26l23 -28q-29 -32 -68 -54t-76 -22q-63 0 -63 56q0 11 3 36t8 59t11.5 74l13.5 81t13 81l11 73q2 11 4 15.5t13 6.5z" />
    <glyph glyph-name="uniF6DA" unicode="&#xf6da;" horiz-adv-x="577" 
d="M395 568l-44 -31l-80.5 99t-81.5 98l40 29.5t38 29.5z" />
    <glyph glyph-name="uniF6DB" unicode="&#xf6db;" horiz-adv-x="577" 
d="M469 793l33.5 -32.5l34.5 -31.5l-104.5 -97.5l-103.5 -97.5q-10 8 -19 17t-18 17z" />
    <glyph glyph-name="uniF6DC" unicode="&#xf6dc;" horiz-adv-x="567" 
d="M532 667q-8 -20 -19 -39t-26 -33t-34 -22.5t-42 -8.5q-25 0 -44.5 5.5t-37.5 12t-35 12t-37 5.5q-21 0 -43.5 -9t-41.5 -39l-27 9q5 14 14.5 33.5t24.5 37t37 30t51 12.5q19 0 39 -6t39.5 -12.5l38 -12.5t35.5 -6q23 0 42 7.5t38 35.5z" />
    <glyph glyph-name="eth" unicode="&#xf0;" horiz-adv-x="522" 
d="M208 733q48 -14 88.5 -35t75.5 -49l100 65l20 -33l-91 -58q58 -57 85 -135t27 -159q0 -56 -15 -116t-48 -109.5t-85 -82t-126 -32.5q-85 0 -129.5 49.5t-44.5 131.5q0 62 20.5 113t55 87.5t78 56.5t90.5 20q22 0 46.5 -7t44.5 -18q-5 39 -19 80t-46 79l-97 -62
l-10.5 15.5l-10.5 15.5l91 59q-46 45 -121 80zM266 42q33 0 58.5 20t42.5 52t25.5 70.5t8.5 76.5q0 27 -4 50t-14.5 40t-28.5 27t-45 10q-31 0 -56 -17t-42 -45.5t-26.5 -66t-9.5 -79.5q0 -29 5 -54t16 -44t28.5 -29.5t41.5 -10.5z" />
    <glyph glyph-name="Stigmagreek" unicode="&#x3da;" horiz-adv-x="652" 
d="M400 674q72 0 115 1t70.5 5t47 11.5t45.5 20.5q8 -14 11.5 -27t3.5 -23q0 -25 -14 -40t-36 -23.5t-50 -11t-56 -2.5q-48 0 -96.5 0.5t-96.5 0.5q-47 0 -85 -17t-64.5 -46.5t-41 -69.5t-14.5 -86q0 -39 12.5 -68t38.5 -50.5t66.5 -37.5t97.5 -28q40 -9 80.5 -20.5
t73.5 -28t53.5 -37t20.5 -47.5q0 -40 -40.5 -79.5t-127.5 -81.5l-24 40l35 29.5t30.5 28t21.5 25t8 19.5q0 22 -34 35q-35 13 -76 23t-82.5 21.5t-79.5 27t-67.5 41t-47.5 62.5t-18 92q0 63 22.5 124.5t64 109.5t100.5 77.5t133 29.5z" />
    <glyph glyph-name="stigmagreek" unicode="&#x3db;" horiz-adv-x="564" 
d="M331 491q58 0 93.5 0.5t58.5 3t39 8.5t36 18q11 -16 13 -27.5t2 -21.5q0 -19 -10.5 -32.5t-28.5 -22t-42.5 -12.5t-51.5 -4q-38 0 -76 0.5t-76 0.5q-37 0 -66.5 -11.5t-50.5 -32t-32.5 -49t-11.5 -62.5q0 -92 115 -129q38 -12 81 -20.5t79.5 -20.5t60.5 -30.5t24 -49.5
q0 -37 -34 -70t-109 -67l-24 38q32 26 54 47t22 33q0 14 -24.5 21.5t-61 16t-79.5 20t-79.5 34t-61 58t-24.5 91.5q0 51 19 100t53.5 87t83.5 61.5t109 23.5z" />
    <glyph glyph-name="Digammagreek" unicode="&#x3dc;" horiz-adv-x="523" 
d="M171 703q45 -2 86 -2h77q32 0 57.5 0.5l49 1t47.5 1.5t53 1q2 -2 4 -2.5t4 -2.5l-10 -84.5t-9 -84.5l-39 -5l-14 56q-4 16 -7 26t-8.5 15t-15.5 7t-27 3l-171 6l-32 -254l235 7l-9 -73l-234 7l-20 -163t-19 -163h-95l41.5 346l41.5 342z" />
    <glyph glyph-name="digammagreek" unicode="&#x3dd;" horiz-adv-x="523" 
d="M144 491q45 -2 86.5 -2h76.5h48.5t44.5 0.5t50 1t64 1.5q2 -2 4 -2.5t4 -2.5l-19 -168l-39 -5l-13 56q-3 16 -7.5 26t-11 15.5t-16 7.5t-24.5 2q-47 2 -86 2.5t-86 0.5l-30 -252l116.5 4l118.5 4q-2 -20 -5 -37t-5 -37l-233 8l-40 -326h-95l42 346l42 342z" />
    <glyph glyph-name="Koppagreek" unicode="&#x3de;" horiz-adv-x="596" 
d="M438 292q-62 -17 -124 -36.5l-124 -37.5q-9 -2 -19 -5.5t-17 -3.5q-23 1 -30.5 19.5t0.5 38.5l171 366l-90 -38q-30 22 -30 48q0 14 11 27.5t28 24t38 16.5t42 6q38 0 57.5 -16t19.5 -45q0 -9 -3.5 -22t-9.5 -25l-165 -312l262 77q10 3 18 3q16 0 24 -9.5t8 -23.5
q0 -5 -0.5 -10.5t-2.5 -10.5l-60.5 -180l-60.5 -178l42.5 17.5l42.5 17.5q29 -23 29 -46q0 -14 -10 -27.5t-26 -23.5t-36 -16t-40 -6q-41 0 -60 16t-19 45q0 17 9 38l125 312v0z" />
    <glyph glyph-name="koppagreek" unicode="&#x3df;" horiz-adv-x="443" 
d="M168 515q33 0 50 -11.5t21 -32.5q2 -10 -2.5 -30t-10.5 -35l-46 -119h177q17 0 34 -8.5t17 -30.5q0 -9 -2.5 -19.5t-9.5 -22.5l-47 -95l-62.5 -133t-46.5 -94q-32 -61 -65 -61q-19 0 -25.5 8t-6.5 19t2.5 20.5t7.5 20t14 24.5t23 34l45.5 70.5l43 71l38.5 65.5l32 55
h-192q-37 0 -37 31v7t2 10q14 45 26.5 90l25.5 90l-40.5 -15t-40.5 -14q-11 8 -17 19.5t-6 21.5q0 13 8.5 25t22.5 20.5t31.5 13.5t35.5 5z" />
    <glyph glyph-name="Sampigreek" unicode="&#x3e0;" horiz-adv-x="647" 
d="M140 717q118 -7 205 -46.5t144.5 -103t85.5 -147.5t28 -179q0 -79 -15.5 -165t-47.5 -172q-12 4 -23.5 6.5t-22.5 6.5q17 72 27 139t10 128q0 24 -1.5 46t-6.5 47l-284 -172l-25 54l301 161q-9 36 -20.5 67.5t-27.5 59.5l-289 -173l-26 55l146.5 78.5l146.5 77.5
q-26 37 -57 68t-69.5 55t-85 40.5t-102.5 23.5z" />
    <glyph glyph-name="sampigreek" unicode="&#x3e1;" horiz-adv-x="574" 
d="M118 510q100 -7 173.5 -41t121.5 -88t71 -124t23 -148q0 -65 -14.5 -137.5t-40.5 -145.5l-47 12q17 65 25.5 119.5t8.5 105.5q0 18 -1 36.5t-5 38.5l-117 -72.5l-118 -71.5q-6 11 -11.5 23.5t-12.5 25.5l126 67.5l126 68.5q-7 26 -16 50t-22 50l-120.5 -72.5
l-120.5 -72.5l-24 50l242 130q-42 60 -103.5 100t-155.5 51z" />
    <glyph glyph-name="zero.taboldstyle" unicode="&#xe024;" horiz-adv-x="552" 
d="M343 498q59 0 99 -19t64.5 -49.5t35 -69t10.5 -77.5q0 -41 -13 -93t-44 -97.5t-82.5 -76.5t-129.5 -31q-60 0 -101 16.5t-66.5 45t-36.5 66t-11 80.5q0 50 14.5 104t47 98.5t85 73.5t128.5 29zM330 432q-39 0 -68 -21t-47.5 -55t-28 -76t-9.5 -84q0 -27 5 -52.5
t17.5 -45.5t34.5 -32.5t56 -12.5q42 0 71.5 20.5t48 53.5t27 74t8.5 82q0 30 -6.5 57.5t-20.5 47.5t-36 32t-52 12z" />
    <glyph glyph-name="one.taboldstyle" unicode="&#xe025;" horiz-adv-x="552" 
d="M485 0q-26 1 -48 1.5l-43 1t-42 0.5h-44q-45 0 -93.5 -1t-86.5 -2l4 46q15 5 30 7.5t31 5.5q37 8 57 23.5t24 44.5l26 215q4 29 -7.5 44t-40.5 17q-20 2 -43.5 4t-43.5 3q2 11 3.5 22.5t3.5 22.5q56 9 114 19.5t113 19.5l17 -22l-43 -345q-3 -27 8 -43.5t51 -24.5l59 -11
z" />
    <glyph glyph-name="two.taboldstyle" unicode="&#xe026;" horiz-adv-x="552" 
d="M325 491q87 0 131.5 -35.5t44.5 -100.5q0 -45 -24 -82t-65 -70t-96.5 -63t-118.5 -59v-4v-3q0 -1 1 -1q44 2 81.5 3t81.5 3q22 1 36.5 3.5t26 8.5t21 17t21.5 31l33 52l34 -6l-45 -177l-5 -5t-5 -4l-105.5 2t-108.5 1h-36h-40.5t-53 -0.5t-73.5 -1.5l-13 55l147.5 87
t106 72t63.5 62t21 57q0 38 -29.5 56t-77.5 18q-34 0 -79 -12t-89 -35l-25 50q52 37 114 59t125 22z" />
    <glyph glyph-name="three.taboldstyle" unicode="&#xe027;" horiz-adv-x="552" 
d="M496 388q0 -22 -10 -45t-29 -45t-46.5 -41t-61.5 -34q69 -13 106 -55t37 -98q0 -46 -20.5 -87t-59 -72.5t-94 -50t-125.5 -18.5q-43 0 -70.5 7t-43.5 18t-22 23.5t-6 23.5q0 8 3 18.5t12 20.5t25 18t42 12q11 -36 36 -55t61 -19q32 0 60.5 11.5t49.5 32.5t33.5 49
t12.5 61q0 48 -32.5 73t-92.5 25q-26 0 -56 -6l-16 51q33 10 69 26t65 36.5t48 45t19 51.5t-19.5 43.5t-60.5 16.5t-90.5 -20.5t-94.5 -51.5l-34 43q54 48 121 74t133 26q32 0 59.5 -6.5t48 -20t32 -33.5t11.5 -48z" />
    <glyph glyph-name="four.taboldstyle" unicode="&#xe028;" horiz-adv-x="552" 
d="M419 0q-8 -53 -12 -96t-11 -93q-22 -14 -43 -21.5t-51 -13.5l-10 10l7.5 55.5t7.5 50t7.5 51l7.5 57.5h-271l-22 36l186.5 223l186.5 222q16 3 30.5 7t30.5 7l17 -11l-51 -422h110l-4 -32t-4 -30h-112zM370 360q-2 0 -3 0.5t-3 0.5l-61 -76.5l-60 -76.5l-60 -73.5
l-59 -73.5h205q11 75 20.5 148.5t20.5 150.5z" />
    <glyph glyph-name="five.taboldstyle" unicode="&#xe029;" horiz-adv-x="552" 
d="M223 -85q34 0 65.5 11.5t55.5 33t38 51.5t14 68q0 32 -11 53.5t-29.5 34.5t-44 18.5t-54.5 5.5q-28 0 -52 -4.5t-49 -12.5l-39 26l26.5 133l26.5 133l13 8q66 1 120.5 1t112.5 3q21 1 33.5 7t22.5 20l16 22l30 -6l-26 -127l-10 -7l-253 9l-41 -152q30 11 59.5 16.5
t52.5 5.5q90 0 145 -44.5t55 -125.5q0 -56 -22 -102t-63 -79t-98.5 -51.5t-128.5 -18.5q-47 0 -76.5 7.5t-46 18.5t-22 24.5t-5.5 24.5q0 2 3 11.5t12 20.5t26 22t45 16q8 -39 34.5 -57t64.5 -18z" />
    <glyph glyph-name="six.taboldstyle" unicode="&#xe02a;" horiz-adv-x="552" 
d="M77 194q0 85 22 168.5t63.5 148.5t102 105.5t138.5 40.5q23 0 54 -4t63 -18l-16 -50q-22 5 -39.5 7t-34.5 2q-62 0 -109 -32.5t-78.5 -87t-48 -126t-16.5 -148.5q0 -65 25 -106t81 -41q36 0 62 17t43.5 44.5t26 63t8.5 72.5q0 36 -9 59t-25.5 36.5t-39.5 19t-52 6.5l3 47
q12 3 25 4t26 1q36 0 68 -10t56 -31t37.5 -53t13.5 -76q0 -39 -12.5 -86t-42 -87.5t-77.5 -68t-118 -27.5q-59 0 -97.5 18t-61 47.5t-32 67.5t-9.5 77z" />
    <glyph glyph-name="seven.taboldstyle" unicode="&#xe02b;" horiz-adv-x="552" 
d="M93 -164l175 266.5l174 270.5l18 30q-48 -2 -95.5 -3.5t-95.5 -3.5q-39 -2 -60 -12.5t-40 -39.5l-32 -46l-37 9l23.5 86.5l22.5 86.5l11 9q42 -1 92 -1.5t119 -0.5h80.5t89.5 2q5 -10 10.5 -19.5t10.5 -19.5l-179.5 -309.5l-179.5 -308.5l-100 -10z" />
    <glyph glyph-name="eight.taboldstyle" unicode="&#xe02c;" horiz-adv-x="552" 
d="M237 480q0 -22 9 -39.5t25 -32.5t37 -28t44 -25q46 35 64.5 75.5t18.5 68.5q0 35 -21.5 60t-70.5 25q-51 -1 -78 -32.5t-28 -71.5zM276 57q60 0 95.5 33t35.5 90q0 22 -10 40.5t-28.5 34.5t-44 30.5t-56.5 28.5q-29 -20 -47.5 -41t-29.5 -42t-15 -41t-4 -37
q0 -45 27.5 -70.5t76.5 -25.5zM354 652q33 0 65 -8t57.5 -25.5t41 -45t15.5 -67.5q0 -21 -5 -44t-18 -46t-36 -46t-60 -44q42 -26 67.5 -62.5t25.5 -86.5q0 -41 -18 -76t-50 -60.5t-76.5 -40t-97.5 -14.5q-48 0 -85 11.5t-62.5 32.5t-38.5 50t-13 64q0 23 7.5 50.5t25 54.5
t45 52t68.5 43q-34 24 -56 56t-22 72q0 42 18 75t48 56.5t70 36t84 12.5z" />
    <glyph glyph-name="nine.taboldstyle" unicode="&#xe02d;" horiz-adv-x="552" 
d="M323 494q58 0 96.5 -18t61.5 -48t32.5 -67.5t9.5 -76.5q0 -87 -22 -170.5t-63.5 -148t-102 -104t-138.5 -39.5q-23 0 -54 4t-63 15l16 51q28 -7 44.5 -8.5t33.5 -1.5q61 0 107.5 32t77.5 86.5t46.5 126.5t15.5 151q0 65 -25 106t-81 41q-36 0 -62 -16.5t-43 -43
t-25 -60.5t-8 -70t9 -59.5t25.5 -37.5t40 -19.5t52.5 -6.5l-4 -47q-13 -3 -25.5 -4t-26.5 -1q-36 0 -67.5 10t-55.5 31t-37.5 52.5t-13.5 75.5q0 39 12.5 85t41.5 86t76.5 67t118.5 27z" />
    <glyph glyph-name="dotlessi" unicode="&#x131;" horiz-adv-x="314" 
d="M203 491q62 0 62 -63q0 -10 -4 -36.5t-10.5 -61l-13.5 -74l-14 -76.5l-12.5 -67t-7.5 -46q23 2 44 9.5t44 18.5l18 -26q-14 -15 -31.5 -29.5t-36.5 -25.5t-38.5 -17.5t-35.5 -6.5q-65 0 -65 55q0 12 5.5 47.5t14 86l19.5 111l23 123.5q-18 -1 -37.5 -7.5t-43.5 -17.5
l-19 28q29 32 66.5 53.5t72.5 21.5z" />
    <glyph glyph-name="dieresis" unicode="&#xa8;" horiz-adv-x="535" 
d="M234 675q21 0 34.5 -15t11.5 -37q-1 -26 -19 -43.5t-42 -17.5q-21 0 -35 15.5t-13 38.5q2 25 20.5 42t42.5 17zM429 675q22 0 35.5 -15t11.5 -37q-2 -26 -20 -43.5t-41 -17.5t-36.5 15.5t-11.5 38.5q2 25 20 42t42 17z" />
    <glyph glyph-name="Scaron" unicode="&#x160;" horiz-adv-x="583" 
d="M362 704q16 0 40 -1.5t51 -6t56 -12t56 -19.5l-21 -183l-40 -5l-10 49q-11 52 -48 78.5t-97 26.5q-48 0 -82 -24t-34 -71q0 -20 13 -37.5t33.5 -32.5t46.5 -29.5l53 -28.5q37 -19 69 -39t55 -44t36.5 -53t13.5 -67q0 -45 -18 -85t-53.5 -70.5t-87.5 -48t-120 -17.5
q-54 0 -111 12.5t-106 36.5q1 16 3 43t4.5 56t4.5 55.5t3 43.5l36 7l18 -73q9 -34 23.5 -55.5t34.5 -34t46.5 -17t58.5 -4.5q34 0 62.5 10.5t48 28.5t30.5 41t11 48q0 24 -10 43.5t-29 36t-45.5 32.5t-60.5 33q-36 18 -68 36.5t-56.5 41t-38.5 50t-14 64.5q0 39 15 73t45 59
t75.5 39t107.5 14zM561 917q6 -8 11 -15.5l10 -15.5l-178 -154h-55l-72.5 77l-71.5 77q4 5 15 16l15 15l32.5 -22l42.5 -29.5l42.5 -30l32.5 -23.5z" />
    <glyph glyph-name="Zcaron" unicode="&#x17d;" horiz-adv-x="614" 
d="M545 0q-58 1 -120.5 1h-127.5h-128t-121 -1l-9 47q6 7 27 34l51.5 65.5l68 86l76.5 97l76.5 97l68.5 87l53 67l29 36.5l-186 -2q-21 0 -35.5 -4t-25 -12.5t-18 -21.5t-15.5 -31l-28 -62l-41 7q8 49 17 96.5t17 96.5l8 6q54 -2 110 -2h114h114.5t109.5 1l8 -49
q-6 -7 -26.5 -33l-51.5 -64.5l-68.5 -86l-76.5 -97l-77 -97.5l-69.5 -88l-53 -67.5t-28.5 -35.5q60 1 120.5 1.5t117.5 2.5q32 1 53.5 12t41.5 46l47 83l35 -9q-11 -51 -24 -99.5t-24 -99.5zM590 917q6 -8 11 -15.5l10 -15.5l-178 -154h-55l-72.5 77l-71.5 77q4 5 15 16
l15 15l32.5 -22l42.5 -29.5l42.5 -30l32.5 -23.5z" />
    <glyph glyph-name="scaron" unicode="&#x161;" horiz-adv-x="429" 
d="M299 488q19 0 40 -3.5t38.5 -12t29.5 -22t13 -33.5q0 -25 -18.5 -39t-52.5 -17q-15 42 -39.5 57t-49.5 15q-32 0 -51.5 -14t-20.5 -37q1 -20 17 -38t40 -35.5t52 -35.5t51.5 -37.5t39.5 -41t16 -46.5q0 -33 -14.5 -62t-41.5 -50.5t-66.5 -34t-89.5 -12.5q-22 0 -47.5 3.5
t-47 12.5t-36 24t-14.5 37q0 51 70 60q14 -42 45.5 -60t71.5 -18q31 0 51 15.5t20 42.5q0 24 -20 43t-59 44l-49 31t-40.5 31t-28 34t-11.5 41q0 34 17 63t45.5 50t64.5 33t75 12zM463 736q6 -7 11 -15l10 -16l-178 -160h-56l-143 160l15 15.5t14 16.5l32.5 -24.5l42 -32
l42 -32l32.5 -24.5z" />
    <glyph glyph-name="zcaron" unicode="&#x17e;" horiz-adv-x="484" 
d="M168 410l-55 -80l-30 9l15 62t15 61q5 14 12.5 19t24.5 4q33 -2 56 -3t40.5 -2t30.5 -1h27q33 0 80 2l90 4l6 -13.5t5 -13.5l-39.5 -50.5l-60.5 -76.5l-54.5 -68.5l-55.5 -70.5l-51 -67t-41 -58q32 1 64.5 1h64.5q20 0 38 0.5t38 0.5l57 87l31 -9l-17 -68t-18 -68
q-6 -23 -32 -21q-43 4 -85.5 6t-89.5 2q-41 0 -86.5 0.5t-93.5 -2.5l-4 12.5l-4 13.5q15 21 40 53l54 68l56.5 70.5l57 72l52.5 68t43 58.5zM475 736q6 -7 11 -15l10 -16l-178 -160h-56l-143 160l15 15.5t14 16.5l32.5 -24.5l42 -32l42 -32l32.5 -24.5z" />
    <glyph glyph-name="Agrave" unicode="&#xc0;" horiz-adv-x="681" 
d="M470 702l139 -582q5 -26 15.5 -43t35.5 -24l21 -6l-6 -47h-264l5 44l45 12q20 5 29.5 19t1.5 36l-13.5 63l-8.5 42h-238q-11 -23 -20.5 -47t-20.5 -48q-11 -26 -4.5 -43t36.5 -25l40 -8l-6 -45h-245l4 45l32 9q25 7 40.5 22.5t27.5 41.5l122 248l120 249l17.5 36.5
l16.5 37.5l75 15zM391 571l-36.5 -83l-36.5 -83l-60 -133h200l-28 133l-33 166h-6zM489 773l-29 -46q-15 8 -41 20l-54.5 25.5l-54.5 25.5t-41 20q4 5 11 16.5l14.5 24l14.5 24t11 16.5z" />
    <glyph glyph-name="Aacute" unicode="&#xc1;" horiz-adv-x="681" 
d="M470 702l139 -582q5 -26 15.5 -43t35.5 -24l21 -6l-6 -47h-264l5 44l45 12q20 5 29.5 19t1.5 36l-13.5 63l-8.5 42h-238q-11 -23 -20.5 -47t-20.5 -48q-11 -26 -4.5 -43t36.5 -25l40 -8l-6 -45h-245l4 45l32 9q25 7 40.5 22.5t27.5 41.5l122 248l120 249l17.5 36.5
l16.5 37.5l75 15zM391 571l-36.5 -83l-36.5 -83l-60 -133h200l-28 133l-33 166h-6zM551 902l37 -80l-44.5 -20.5l-57.5 -25.5l-57.5 -25.5t-44.5 -19.5q-2 3 -5 9.5t-6.5 13l-7 13t-4.5 9.5z" />
    <glyph glyph-name="Acircumflex" unicode="&#xc2;" horiz-adv-x="681" 
d="M470 702l139 -582q5 -26 15.5 -43t35.5 -24l21 -6l-6 -47h-264l5 44l45 12q20 5 29.5 19t1.5 36l-13.5 63l-8.5 42h-238q-11 -23 -20.5 -47t-20.5 -48q-11 -26 -4.5 -43t36.5 -25l40 -8l-6 -45h-245l4 45l32 9q25 7 40.5 22.5t27.5 41.5l122 248l120 249l17.5 36.5
l16.5 37.5l75 15zM391 571l-36.5 -83l-36.5 -83l-60 -133h200l-28 133l-33 166h-6zM433 833l-87 -53.5l-87 -53.5l-21 30l88 78l89 77h56l72 -76.5l72 -77.5q-8 -7 -16 -16l-14 -16z" />
    <glyph glyph-name="Atilde" unicode="&#xc3;" horiz-adv-x="681" 
d="M470 702l139 -582q5 -26 15.5 -43t35.5 -24l21 -6l-6 -47h-264l5 44l45 12q20 5 29.5 19t1.5 36l-13.5 63l-8.5 42h-238q-11 -23 -20.5 -47t-20.5 -48q-11 -26 -4.5 -43t36.5 -25l40 -8l-6 -45h-245l4 45l32 9q25 7 40.5 22.5t27.5 41.5l122 248l120 249l17.5 36.5
l16.5 37.5l75 15zM391 571l-36.5 -83l-36.5 -83l-60 -133h200l-28 133l-33 166h-6zM580 862l13.5 -4l13.5 -4q-6 -21 -15.5 -40.5t-23 -34.5t-32 -24t-42.5 -9q-23 0 -39.5 6.5t-31.5 14.5t-29.5 14.5t-32.5 6.5q-20 0 -36.5 -8.5t-33.5 -37.5l-30 9q4 14 11.5 33t21 36.5
t33 29.5t47.5 12q17 0 34.5 -7t35 -15l34 -15t31.5 -7q23 0 38 8.5t33 35.5z" />
    <glyph glyph-name="Adieresis" unicode="&#xc4;" horiz-adv-x="681" 
d="M470 702l139 -582q5 -26 15.5 -43t35.5 -24l21 -6l-6 -47h-264l5 44l45 12q20 5 29.5 19t1.5 36l-13.5 63l-8.5 42h-238q-11 -23 -20.5 -47t-20.5 -48q-11 -26 -4.5 -43t36.5 -25l40 -8l-6 -45h-245l4 45l32 9q25 7 40.5 22.5t27.5 41.5l122 248l120 249l17.5 36.5
l16.5 37.5l75 15zM391 571l-36.5 -83l-36.5 -83l-60 -133h200l-28 133l-33 166h-6zM343 858q22 0 35 -14.5t13 -35.5q0 -26 -18.5 -44.5t-42.5 -18.5q-20 0 -34 14t-14 36q0 26 18.5 44.5t42.5 18.5zM539 858q21 0 34.5 -14.5t13.5 -35.5q0 -26 -19 -44.5t-42 -18.5
q-20 0 -34 14t-14 36q0 26 18.5 44.5t42.5 18.5z" />
    <glyph glyph-name="Aring" unicode="&#xc5;" horiz-adv-x="681" 
d="M470 702l139 -582q5 -26 15.5 -43t35.5 -24l21 -6l-6 -47h-264l5 44l45 12q20 5 29.5 19t1.5 36l-13.5 63l-8.5 42h-238q-11 -23 -20.5 -47t-20.5 -48q-11 -26 -4.5 -43t36.5 -25l40 -8l-6 -45h-245l4 45l32 9q25 7 40.5 22.5t27.5 41.5l122 248l120 249l17.5 36.5
l16.5 37.5l75 15zM426 721q-42 0 -68.5 27.5t-26.5 69.5q0 24 9.5 46t26 38.5t38.5 26.5t46 10q41 0 67.5 -28.5t26.5 -68.5q0 -26 -10 -48t-26.5 -38t-38 -25.5t-44.5 -9.5zM391 571l-36.5 -83l-36.5 -83l-60 -133h200l-28 133l-33 166h-6zM444 889q-24 0 -42.5 -20
t-18.5 -45q0 -20 14 -36.5t35 -16.5q12 0 22.5 5.5t19 14.5t13.5 20.5t5 23.5q0 21 -14 37.5t-34 16.5z" />
    <glyph glyph-name="Ccedilla" unicode="&#xc7;" horiz-adv-x="619" 
d="M450 705q18 0 42 -2.5t50.5 -9t53 -18t48.5 -28.5l-14.5 -82t-13.5 -81l-40 -2l-4 58q-5 53 -35.5 73t-79.5 20q-69 0 -116.5 -31.5t-77.5 -81.5t-43.5 -112.5t-13.5 -124.5q0 -36 7.5 -75.5t27.5 -71.5t55 -53t90 -21q40 0 84 5t95 22l16 -57q-48 -23 -98 -33.5
t-92 -13.5l-44 -53q41 -3 70 -19.5t29 -53.5q0 -25 -15.5 -45.5t-42.5 -34.5t-63.5 -22t-77.5 -8l4 34q21 1 41.5 5.5t37.5 12t27.5 18.5t10.5 26q0 13 -8 21t-20 12.5t-25.5 6.5t-24.5 3l-8 18l33 39.5l33 38.5q-66 2 -113.5 23.5t-79 60.5t-46.5 93t-15 120q0 80 21 156
t64.5 135.5t110.5 96t160 36.5z" />
    <glyph glyph-name="Egrave" unicode="&#xc8;" horiz-adv-x="610" 
d="M295 3h-56.5t-65 -0.5l-67 -1t-61.5 -1.5v43l47 14q18 5 31 17t16 38l58 464q3 24 -1.5 36t-29.5 20l-38 13l9 43q24 -1 58.5 -1.5t69.5 -0.5h66.5h50.5q51 0 90.5 0.5t82.5 2.5h24.5t26.5 1q2 -2 4 -2.5t4 -2.5q-4 -48 -9 -94.5l-10 -94.5l-38 -5l-16 84q-4 23 -15 32
t-40 10q-32 1 -73 1.5t-105 0.5l-27 -232l118.5 4l118.5 4l-9 -75l-236 8l-26 -204q-4 -35 8 -44t40 -9q32 0 72.5 1t71.5 2q15 0 26 2.5t19 8t15.5 15t15.5 23.5q9 17 25 41t25 41l34 -8l-10.5 -41.5l-13 -53l-13 -53l-10.5 -41.5q-2 -1 -4.5 -4t-4.5 -4q-36 0 -64.5 0.5
l-56.5 1l-58 1t-69 0.5zM466 773l-29 -46q-15 8 -41 20l-54.5 25.5l-54.5 25.5t-41 20q4 5 11 16.5l14.5 24l14.5 24t11 16.5z" />
    <glyph glyph-name="Eacute" unicode="&#xc9;" horiz-adv-x="610" 
d="M295 3h-56.5t-65 -0.5l-67 -1t-61.5 -1.5v43l47 14q18 5 31 17t16 38l58 464q3 24 -1.5 36t-29.5 20l-38 13l9 43q24 -1 58.5 -1.5t69.5 -0.5h66.5h50.5q51 0 90.5 0.5t82.5 2.5h24.5t26.5 1q2 -2 4 -2.5t4 -2.5q-4 -48 -9 -94.5l-10 -94.5l-38 -5l-16 84q-4 23 -15 32
t-40 10q-32 1 -73 1.5t-105 0.5l-27 -232l118.5 4l118.5 4l-9 -75l-236 8l-26 -204q-4 -35 8 -44t40 -9q32 0 72.5 1t71.5 2q15 0 26 2.5t19 8t15.5 15t15.5 23.5q9 17 25 41t25 41l34 -8l-10.5 -41.5l-13 -53l-13 -53l-10.5 -41.5q-2 -1 -4.5 -4t-4.5 -4q-36 0 -64.5 0.5
l-56.5 1l-58 1t-69 0.5zM496 902l37 -80l-44.5 -20.5l-57.5 -25.5l-57.5 -25.5t-44.5 -19.5q-2 3 -5 9.5t-6.5 13l-7 13t-4.5 9.5z" />
    <glyph glyph-name="Ecircumflex" unicode="&#xca;" horiz-adv-x="610" 
d="M295 3h-56.5t-65 -0.5l-67 -1t-61.5 -1.5v43l47 14q18 5 31 17t16 38l58 464q3 24 -1.5 36t-29.5 20l-38 13l9 43q24 -1 58.5 -1.5t69.5 -0.5h66.5h50.5q51 0 90.5 0.5t82.5 2.5h24.5t26.5 1q2 -2 4 -2.5t4 -2.5q-4 -48 -9 -94.5l-10 -94.5l-38 -5l-16 84q-4 23 -15 32
t-40 10q-32 1 -73 1.5t-105 0.5l-27 -232l118.5 4l118.5 4l-9 -75l-236 8l-26 -204q-4 -35 8 -44t40 -9q32 0 72.5 1t71.5 2q15 0 26 2.5t19 8t15.5 15t15.5 23.5q9 17 25 41t25 41l34 -8l-10.5 -41.5l-13 -53l-13 -53l-10.5 -41.5q-2 -1 -4.5 -4t-4.5 -4q-36 0 -64.5 0.5
l-56.5 1l-58 1t-69 0.5zM399 833l-87 -53.5l-87 -53.5l-21 30l88 78l89 77h56l72 -76.5l72 -77.5q-8 -7 -16 -16l-14 -16z" />
    <glyph glyph-name="Edieresis" unicode="&#xcb;" horiz-adv-x="610" 
d="M295 3h-56.5t-65 -0.5l-67 -1t-61.5 -1.5v43l47 14q18 5 31 17t16 38l58 464q3 24 -1.5 36t-29.5 20l-38 13l9 43q24 -1 58.5 -1.5t69.5 -0.5h66.5h50.5q51 0 90.5 0.5t82.5 2.5h24.5t26.5 1q2 -2 4 -2.5t4 -2.5q-4 -48 -9 -94.5l-10 -94.5l-38 -5l-16 84q-4 23 -15 32
t-40 10q-32 1 -73 1.5t-105 0.5l-27 -232l118.5 4l118.5 4l-9 -75l-236 8l-26 -204q-4 -35 8 -44t40 -9q32 0 72.5 1t71.5 2q15 0 26 2.5t19 8t15.5 15t15.5 23.5q9 17 25 41t25 41l34 -8l-10.5 -41.5l-13 -53l-13 -53l-10.5 -41.5q-2 -1 -4.5 -4t-4.5 -4q-36 0 -64.5 0.5
l-56.5 1l-58 1t-69 0.5zM308 858q22 0 35 -14.5t13 -35.5q0 -26 -18.5 -44.5t-42.5 -18.5q-20 0 -34 14t-14 36q0 26 18.5 44.5t42.5 18.5zM504 858q21 0 34.5 -14.5t13.5 -35.5q0 -26 -19 -44.5t-42 -18.5q-20 0 -34 14t-14 36q0 26 18.5 44.5t42.5 18.5z" />
    <glyph glyph-name="Igrave" unicode="&#xcc;" horiz-adv-x="402" 
d="M423 687l-5 -46l-43 -10q-34 -9 -43 -22t-12 -36l-57 -461q-3 -23 4 -35.5t35 -20.5l44 -11l-8 -45h-278l3 40l45 15q12 4 20.5 8.5t14.5 11t9.5 16t5.5 23.5l57 463q3 23 -4 34.5t-31 19.5l-42 15l7 41h278zM335 773l-29 -46q-15 8 -41 20l-54.5 25.5l-54.5 25.5t-41 20
q4 5 11 16.5l14.5 24l14.5 24t11 16.5z" />
    <glyph glyph-name="Iacute" unicode="&#xcd;" horiz-adv-x="402" 
d="M423 687l-5 -46l-43 -10q-34 -9 -43 -22t-12 -36l-57 -461q-3 -23 4 -35.5t35 -20.5l44 -11l-8 -45h-278l3 40l45 15q12 4 20.5 8.5t14.5 11t9.5 16t5.5 23.5l57 463q3 23 -4 34.5t-31 19.5l-42 15l7 41h278zM401 902l37 -80l-44.5 -20.5l-57.5 -25.5l-57.5 -25.5
t-44.5 -19.5q-2 3 -5 9.5t-6.5 13l-7 13t-4.5 9.5z" />
    <glyph glyph-name="Icircumflex" unicode="&#xce;" horiz-adv-x="402" 
d="M423 687l-5 -46l-43 -10q-34 -9 -43 -22t-12 -36l-57 -461q-3 -23 4 -35.5t35 -20.5l44 -11l-8 -45h-278l3 40l45 15q12 4 20.5 8.5t14.5 11t9.5 16t5.5 23.5l57 463q3 23 -4 34.5t-31 19.5l-42 15l7 41h278zM298 833l-87 -53.5l-87 -53.5l-21 30l88 78l89 77h56
l72 -76.5l72 -77.5q-8 -7 -16 -16l-14 -16z" />
    <glyph glyph-name="Idieresis" unicode="&#xcf;" horiz-adv-x="402" 
d="M423 687l-5 -46l-43 -10q-34 -9 -43 -22t-12 -36l-57 -461q-3 -23 4 -35.5t35 -20.5l44 -11l-8 -45h-278l3 40l45 15q12 4 20.5 8.5t14.5 11t9.5 16t5.5 23.5l57 463q3 23 -4 34.5t-31 19.5l-42 15l7 41h278zM204 858q22 0 35 -14.5t13 -35.5q0 -26 -18.5 -44.5
t-42.5 -18.5q-20 0 -34 14t-14 36q0 26 18.5 44.5t42.5 18.5zM400 858q21 0 34.5 -14.5t13.5 -35.5q0 -26 -19 -44.5t-42 -18.5q-20 0 -34 14t-14 36q0 26 18.5 44.5t42.5 18.5z" />
    <glyph glyph-name="Eth" unicode="&#xd0;" horiz-adv-x="706" 
d="M96 374h81l26 208q2 23 -4 32.5t-28 17.5l-40 13l12 43q19 -1 34 -1.5t28.5 -1t28 -0.5h33.5q24 0 43 0.5t36.5 1.5t35.5 1.5t39 0.5q82 0 136.5 -24t87.5 -63.5t46.5 -91.5t13.5 -108q0 -31 -5.5 -72.5t-19.5 -86.5t-39 -88.5t-65 -78t-96.5 -55.5t-132.5 -21
q-6 0 -27 0.5t-44.5 1t-43.5 1t-26 0.5h-42h-34.5t-35 -0.5t-44.5 -1.5v8.5t0.5 12t0.5 12v7.5l49 16q23 8 32.5 20.5t12.5 35.5l25 204h-82zM282 374h145l-8 -57h-144l-23 -185q-2 -21 1.5 -34t13.5 -20t28 -9t44 -2q68 0 117 29t80 76t45.5 106.5t14.5 121.5
q0 63 -15.5 105t-44 67.5t-68.5 36.5t-88 11q-19 0 -37.5 -1t-30.5 -3z" />
    <glyph glyph-name="Ntilde" unicode="&#xd1;" horiz-adv-x="803" 
d="M526 347l48.5 -81l47.5 -80l42 369q5 32 -5 50t-38 26q-10 3 -19.5 6.5t-19.5 5.5l7 44h259l-5 -46q-11 -2 -21.5 -4.5t-21.5 -5.5q-15 -4 -25.5 -8.5t-18 -13.5t-13 -23.5t-8.5 -37.5l-76 -548l-54 -13l-107 181.5l-108 181.5l-58 100.5l-58 100.5q-2 0 -3.5 -0.5
t-3.5 -0.5l-23.5 -211l-23.5 -212q-5 -32 6.5 -48.5t37.5 -22.5l44 -10l-7 -46h-266l3 42l50 13q25 7 40 20.5t20 51.5l62 434q4 27 -5 45t-34 26q-11 3 -23 7t-23 7l9 42q24 0 51.5 -0.5t55 -0.5t52.5 0.5t43 1.5q6 -17 13.5 -33t14.5 -28zM634 862l13.5 -4l13.5 -4
q-6 -21 -15.5 -40.5t-23 -34.5t-32 -24t-42.5 -9q-23 0 -39.5 6.5t-31.5 14.5t-29.5 14.5t-32.5 6.5q-20 0 -36.5 -8.5t-33.5 -37.5l-30 9q4 14 11.5 33t21 36.5t33 29.5t47.5 12q17 0 34.5 -7t35 -15l34 -15t31.5 -7q23 0 38 8.5t33 35.5z" />
    <glyph glyph-name="Ograve" unicode="&#xd2;" horiz-adv-x="709" 
d="M460 703q57 0 101 -20t74 -56t46 -85.5t17 -108.5q0 -98 -25.5 -180t-73 -141.5t-115 -93t-152.5 -33.5q-54 0 -98 20t-75 56t-48 86.5t-18 112.5q0 102 29 184t79.5 139.5t117 88.5t141.5 31zM430 636q-47 0 -87.5 -28.5t-70.5 -76.5t-47 -111.5t-17 -132.5
q0 -54 9 -97.5t28 -74t49.5 -47t72.5 -16.5q53 0 94 31.5t68.5 83t42 116.5t14.5 131q0 48 -9.5 88.5t-28.5 70t-48.5 46.5t-69.5 17zM509 773l-29 -46q-15 8 -41 20l-54.5 25.5l-54.5 25.5t-41 20q4 5 11 16.5l14.5 24l14.5 24t11 16.5z" />
    <glyph glyph-name="Oacute" unicode="&#xd3;" horiz-adv-x="709" 
d="M460 703q57 0 101 -20t74 -56t46 -85.5t17 -108.5q0 -98 -25.5 -180t-73 -141.5t-115 -93t-152.5 -33.5q-54 0 -98 20t-75 56t-48 86.5t-18 112.5q0 102 29 184t79.5 139.5t117 88.5t141.5 31zM430 636q-47 0 -87.5 -28.5t-70.5 -76.5t-47 -111.5t-17 -132.5
q0 -54 9 -97.5t28 -74t49.5 -47t72.5 -16.5q53 0 94 31.5t68.5 83t42 116.5t14.5 131q0 48 -9.5 88.5t-28.5 70t-48.5 46.5t-69.5 17zM593 911l37 -80l-44.5 -20.5l-57.5 -25.5l-57.5 -25.5t-44.5 -19.5q-2 3 -5 9.5t-6.5 13l-7 13t-4.5 9.5z" />
    <glyph glyph-name="Ocircumflex" unicode="&#xd4;" horiz-adv-x="709" 
d="M460 703q57 0 101 -20t74 -56t46 -85.5t17 -108.5q0 -98 -25.5 -180t-73 -141.5t-115 -93t-152.5 -33.5q-54 0 -98 20t-75 56t-48 86.5t-18 112.5q0 102 29 184t79.5 139.5t117 88.5t141.5 31zM430 636q-47 0 -87.5 -28.5t-70.5 -76.5t-47 -111.5t-17 -132.5
q0 -54 9 -97.5t28 -74t49.5 -47t72.5 -16.5q53 0 94 31.5t68.5 83t42 116.5t14.5 131q0 48 -9.5 88.5t-28.5 70t-48.5 46.5t-69.5 17zM469 833l-87 -53.5l-87 -53.5l-21 30l88 78l89 77h56l72 -76.5l72 -77.5q-8 -7 -16 -16l-14 -16z" />
    <glyph glyph-name="Otilde" unicode="&#xd5;" horiz-adv-x="709" 
d="M460 703q57 0 101 -20t74 -56t46 -85.5t17 -108.5q0 -98 -25.5 -180t-73 -141.5t-115 -93t-152.5 -33.5q-54 0 -98 20t-75 56t-48 86.5t-18 112.5q0 102 29 184t79.5 139.5t117 88.5t141.5 31zM430 636q-47 0 -87.5 -28.5t-70.5 -76.5t-47 -111.5t-17 -132.5
q0 -54 9 -97.5t28 -74t49.5 -47t72.5 -16.5q53 0 94 31.5t68.5 83t42 116.5t14.5 131q0 48 -9.5 88.5t-28.5 70t-48.5 46.5t-69.5 17zM608 862l13.5 -4l13.5 -4q-6 -21 -15.5 -40.5t-23 -34.5t-32 -24t-42.5 -9q-23 0 -39.5 6.5t-31.5 14.5t-29.5 14.5t-32.5 6.5
q-20 0 -36.5 -8.5t-33.5 -37.5l-30 9q4 14 11.5 33t21 36.5t33 29.5t47.5 12q17 0 34.5 -7t35 -15l34 -15t31.5 -7q23 0 38 8.5t33 35.5z" />
    <glyph glyph-name="Odieresis" unicode="&#xd6;" horiz-adv-x="709" 
d="M460 703q57 0 101 -20t74 -56t46 -85.5t17 -108.5q0 -98 -25.5 -180t-73 -141.5t-115 -93t-152.5 -33.5q-54 0 -98 20t-75 56t-48 86.5t-18 112.5q0 102 29 184t79.5 139.5t117 88.5t141.5 31zM430 636q-47 0 -87.5 -28.5t-70.5 -76.5t-47 -111.5t-17 -132.5
q0 -54 9 -97.5t28 -74t49.5 -47t72.5 -16.5q53 0 94 31.5t68.5 83t42 116.5t14.5 131q0 48 -9.5 88.5t-28.5 70t-48.5 46.5t-69.5 17zM384 858q22 0 35 -14.5t13 -35.5q0 -26 -18.5 -44.5t-42.5 -18.5q-20 0 -34 14t-14 36q0 26 18.5 44.5t42.5 18.5zM580 858
q21 0 34.5 -14.5t13.5 -35.5q0 -26 -19 -44.5t-42 -18.5q-20 0 -34 14t-14 36q0 26 18.5 44.5t42.5 18.5z" />
    <glyph glyph-name="multiply" unicode="&#xd7;" horiz-adv-x="556" 
d="M305 328l146 134q3 -3 9 -10.5l13 -16t12.5 -16t8.5 -10.5l-146 -132l55.5 -66l56.5 -66l-27.5 -24.5l-26.5 -25.5l-112 131l-73.5 -66.5l-73.5 -67.5l-44 52l147 134l-114 133q14 13 28 24.5t28 25.5z" />
    <glyph glyph-name="Oslash" unicode="&#xd8;" horiz-adv-x="709" 
d="M455 703q58 0 102.5 -21t75.5 -59l67 70l28 -32l-72 -73q37 -66 37 -155q1 -98 -24.5 -180t-73.5 -141.5t-116 -93t-152 -33.5q-57 0 -102 21.5t-76 60.5l-64 -65l-28 31l68 70q-36 66 -37 157q-1 102 28.5 184t80 139.5t117.5 88.5t141 31zM581 421q-1 21 -3.5 41
t-8.5 38l-344 -355q18 -45 51 -69t86 -24q54 0 95 32.5t69 84.5t42 118t13 134zM425 636q-48 0 -89 -29t-71 -78t-46.5 -113t-15.5 -134q0 -53 10 -90l343 354q-18 42 -50.5 66t-80.5 24z" />
    <glyph glyph-name="Ugrave" unicode="&#xd9;" horiz-adv-x="751" 
d="M648 219q-8 -62 -31 -107t-59 -73.5t-83 -42t-102 -13.5q-46 0 -87.5 10.5t-72.5 34t-49 60t-18 89.5v20t2 21l46 360q4 26 -4 35.5t-31 17.5l-42 15l7 41h278q-1 -11 -2.5 -22.5t-2.5 -22.5l-43 -11q-34 -8 -43 -21.5t-12 -36.5l-40 -324q-2 -15 -3 -30t-1 -29
q0 -29 6.5 -54t22.5 -43t43.5 -28t70.5 -10q50 0 82.5 17t53 45t30.5 64.5t15 75.5l39 321q4 26 -3.5 36t-30.5 18l-40 14l5 41h244l-5 -47l-40 -9q-34 -8 -43.5 -21.5t-12.5 -36.5zM516 773l-29 -46q-15 8 -41 20l-54.5 25.5l-54.5 25.5t-41 20q4 5 11 16.5l14.5 24
l14.5 24t11 16.5z" />
    <glyph glyph-name="Uacute" unicode="&#xda;" horiz-adv-x="751" 
d="M648 219q-8 -62 -31 -107t-59 -73.5t-83 -42t-102 -13.5q-46 0 -87.5 10.5t-72.5 34t-49 60t-18 89.5v20t2 21l46 360q4 26 -4 35.5t-31 17.5l-42 15l7 41h278q-1 -11 -2.5 -22.5t-2.5 -22.5l-43 -11q-34 -8 -43 -21.5t-12 -36.5l-40 -324q-2 -15 -3 -30t-1 -29
q0 -29 6.5 -54t22.5 -43t43.5 -28t70.5 -10q50 0 82.5 17t53 45t30.5 64.5t15 75.5l39 321q4 26 -3.5 36t-30.5 18l-40 14l5 41h244l-5 -47l-40 -9q-34 -8 -43.5 -21.5t-12.5 -36.5zM599 902l37 -80l-44.5 -20.5l-57.5 -25.5l-57.5 -25.5t-44.5 -19.5q-2 3 -5 9.5t-6.5 13
l-7 13t-4.5 9.5z" />
    <glyph glyph-name="Ucircumflex" unicode="&#xdb;" horiz-adv-x="751" 
d="M648 219q-8 -62 -31 -107t-59 -73.5t-83 -42t-102 -13.5q-46 0 -87.5 10.5t-72.5 34t-49 60t-18 89.5v20t2 21l46 360q4 26 -4 35.5t-31 17.5l-42 15l7 41h278q-1 -11 -2.5 -22.5t-2.5 -22.5l-43 -11q-34 -8 -43 -21.5t-12 -36.5l-40 -324q-2 -15 -3 -30t-1 -29
q0 -29 6.5 -54t22.5 -43t43.5 -28t70.5 -10q50 0 82.5 17t53 45t30.5 64.5t15 75.5l39 321q4 26 -3.5 36t-30.5 18l-40 14l5 41h244l-5 -47l-40 -9q-34 -8 -43.5 -21.5t-12.5 -36.5zM482 833l-87 -53.5l-87 -53.5l-21 30l88 78l89 77h56l72 -76.5l72 -77.5q-8 -7 -16 -16
l-14 -16z" />
    <glyph glyph-name="Udieresis" unicode="&#xdc;" horiz-adv-x="751" 
d="M648 219q-8 -62 -31 -107t-59 -73.5t-83 -42t-102 -13.5q-46 0 -87.5 10.5t-72.5 34t-49 60t-18 89.5v20t2 21l46 360q4 26 -4 35.5t-31 17.5l-42 15l7 41h278q-1 -11 -2.5 -22.5t-2.5 -22.5l-43 -11q-34 -8 -43 -21.5t-12 -36.5l-40 -324q-2 -15 -3 -30t-1 -29
q0 -29 6.5 -54t22.5 -43t43.5 -28t70.5 -10q50 0 82.5 17t53 45t30.5 64.5t15 75.5l39 321q4 26 -3.5 36t-30.5 18l-40 14l5 41h244l-5 -47l-40 -9q-34 -8 -43.5 -21.5t-12.5 -36.5zM394 858q22 0 35 -14.5t13 -35.5q0 -26 -18.5 -44.5t-42.5 -18.5q-20 0 -34 14t-14 36
q0 26 18.5 44.5t42.5 18.5zM590 858q21 0 34.5 -14.5t13.5 -35.5q0 -26 -19 -44.5t-42 -18.5q-20 0 -34 14t-14 36q0 26 18.5 44.5t42.5 18.5z" />
    <glyph glyph-name="Yacute" unicode="&#xdd;" horiz-adv-x="628" 
d="M296 280l-120 298q-10 26 -20.5 36.5t-33.5 18.5l-32 11l8 44h176q-3 -48 17 -100l84 -222h9l125 208q12 20 9 35.5t-31 23.5l-33 9l8 45q57 0 112 0.5t112 0.5l-5 -46q-23 -10 -41 -23t-34.5 -29.5t-33 -38l-35.5 -48.5l-133 -197l-23 -192q-3 -26 5 -37.5t34 -18.5
l46 -11l-7 -47h-281q0 5 1.5 20.5t1.5 20.5l45 14q12 4 20.5 8.5t14 11.5t9 16.5t5.5 23.5zM523 902l37 -80l-44.5 -20.5l-57.5 -25.5l-57.5 -25.5t-44.5 -19.5q-2 3 -5 9.5t-6.5 13l-7 13t-4.5 9.5z" />
    <glyph glyph-name="Thorn" unicode="&#xde;" horiz-adv-x="608" 
d="M97 55q12 4 20.5 8.5t14 11.5t9 16.5t5.5 23.5l56 459q5 30 -3 40t-34 18l-39 14l7 41h280q0 -3 -1 -9t-1.5 -13.5t-1.5 -13.5t-1 -9l-39 -9q-34 -8 -45.5 -19t-13.5 -33l-2 -22l90 4q47 0 89.5 -8t74.5 -28t51 -55t19 -87q0 -48 -18 -90t-52.5 -73.5t-84.5 -50
t-115 -18.5q-18 0 -45 1.5t-59 8.5q-1 -11 -2.5 -26t-3.5 -26q-2 -26 5.5 -36t33.5 -17l46 -11l-7 -47h-282q0 5 1.5 20.5t1.5 20.5zM372 494q-19 0 -38.5 -1.5t-36.5 -6.5l-31 -259q17 -3 37 -4.5t30 -1.5q58 0 94.5 15t57.5 37.5t28.5 49.5t7.5 52q0 64 -39.5 91.5
t-109.5 27.5z" />
    <glyph glyph-name="agrave" unicode="&#xe0;" horiz-adv-x="561" 
d="M375 202q-60 -108 -116 -159.5t-102 -51.5q-38 0 -65 36t-27 119q0 18 1.5 36.5t4.5 35.5q9 47 33 94.5t56 85t68.5 61t70.5 23.5q28 0 60 -2t70 -10q10 14 17 20.5t18 6.5q7 0 18 -1.5t21.5 -5t18 -9t7.5 -12.5q0 -5 -1 -9q-12 -42 -23 -93t-19.5 -103.5t-14 -103.5
t-6.5 -93q25 2 43.5 8.5t41.5 18.5q1 -1 3.5 -4.5t6 -8l6.5 -8.5t4 -5q-14 -15 -32.5 -29.5t-38.5 -25t-40 -17t-36 -6.5q-28 0 -44 11t-16 49q0 23 4 66t12 85zM306 421q-34 0 -59.5 -22.5t-43 -57.5t-26 -78t-8.5 -84q0 -51 12.5 -71.5t31.5 -20.5q20 0 46 23.5t52 58.5
t48.5 75.5t35.5 74.5l13 67q-23 19 -53 27t-49 8zM416 569l-9.5 -6.5t-13 -10t-12.5 -10t-9 -7.5l-30 34.5l-40 45l-40.5 44.5t-30.5 34q6 4 16.5 12.5l21.5 17.5l21.5 17.5t16.5 12.5z" />
    <glyph glyph-name="aacute" unicode="&#xe1;" horiz-adv-x="561" 
d="M375 202q-60 -108 -116 -159.5t-102 -51.5q-38 0 -65 36t-27 119q0 18 1.5 36.5t4.5 35.5q9 47 33 94.5t56 85t68.5 61t70.5 23.5q28 0 60 -2t70 -10q10 14 17 20.5t18 6.5q7 0 18 -1.5t21.5 -5t18 -9t7.5 -12.5q0 -5 -1 -9q-12 -42 -23 -93t-19.5 -103.5t-14 -103.5
t-6.5 -93q25 2 43.5 8.5t41.5 18.5q1 -1 3.5 -4.5t6 -8l6.5 -8.5t4 -5q-14 -15 -32.5 -29.5t-38.5 -25t-40 -17t-36 -6.5q-28 0 -44 11t-16 49q0 23 4 66t12 85zM306 421q-34 0 -59.5 -22.5t-43 -57.5t-26 -78t-8.5 -84q0 -51 12.5 -71.5t31.5 -20.5q20 0 46 23.5t52 58.5
t48.5 75.5t35.5 74.5l13 67q-23 19 -53 27t-49 8zM428 752l32 -30.5t33 -29.5l-84 -78.5l-84 -78.5q-8 8 -19 17t-19 17z" />
    <glyph glyph-name="acircumflex" unicode="&#xe2;" horiz-adv-x="561" 
d="M375 202q-60 -108 -116 -159.5t-102 -51.5q-38 0 -65 36t-27 119q0 18 1.5 36.5t4.5 35.5q9 47 33 94.5t56 85t68.5 61t70.5 23.5q28 0 60 -2t70 -10q10 14 17 20.5t18 6.5q7 0 18 -1.5t21.5 -5t18 -9t7.5 -12.5q0 -5 -1 -9q-12 -42 -23 -93t-19.5 -103.5t-14 -103.5
t-6.5 -93q25 2 43.5 8.5t41.5 18.5q1 -1 3.5 -4.5t6 -8l6.5 -8.5t4 -5q-14 -15 -32.5 -29.5t-38.5 -25t-40 -17t-36 -6.5q-28 0 -44 11t-16 49q0 23 4 66t12 85zM306 421q-34 0 -59.5 -22.5t-43 -57.5t-26 -78t-8.5 -84q0 -51 12.5 -71.5t31.5 -20.5q20 0 46 23.5t52 58.5
t48.5 75.5t35.5 74.5l13 67q-23 19 -53 27t-49 8zM373 655l-87 -56.5t-89 -55.5l-22 30l90 81l90 80h56l71.5 -79.5l70.5 -80.5l-31 -32z" />
    <glyph glyph-name="atilde" unicode="&#xe3;" horiz-adv-x="561" 
d="M375 202q-60 -108 -116 -159.5t-102 -51.5q-38 0 -65 36t-27 119q0 18 1.5 36.5t4.5 35.5q9 47 33 94.5t56 85t68.5 61t70.5 23.5q28 0 60 -2t70 -10q10 14 17 20.5t18 6.5q7 0 18 -1.5t21.5 -5t18 -9t7.5 -12.5q0 -5 -1 -9q-12 -42 -23 -93t-19.5 -103.5t-14 -103.5
t-6.5 -93q25 2 43.5 8.5t41.5 18.5q1 -1 3.5 -4.5t6 -8l6.5 -8.5t4 -5q-14 -15 -32.5 -29.5t-38.5 -25t-40 -17t-36 -6.5q-28 0 -44 11t-16 49q0 23 4 66t12 85zM306 421q-34 0 -59.5 -22.5t-43 -57.5t-26 -78t-8.5 -84q0 -51 12.5 -71.5t31.5 -20.5q20 0 46 23.5t52 58.5
t48.5 75.5t35.5 74.5l13 67q-23 19 -53 27t-49 8zM511 686l13.5 -4l13.5 -4q-6 -21 -15.5 -40.5t-23 -34.5t-32 -24t-42.5 -9q-23 0 -39.5 6.5t-31.5 14.5t-29.5 14.5t-32.5 6.5q-20 0 -36.5 -8.5t-33.5 -37.5l-30 9q4 14 11.5 33t21 36.5t33 29.5t47.5 12q17 0 34.5 -7
t35 -15l34 -15t31.5 -7q23 0 38 8.5t33 35.5z" />
    <glyph glyph-name="adieresis" unicode="&#xe4;" horiz-adv-x="561" 
d="M375 202q-60 -108 -116 -159.5t-102 -51.5q-38 0 -65 36t-27 119q0 18 1.5 36.5t4.5 35.5q9 47 33 94.5t56 85t68.5 61t70.5 23.5q28 0 60 -2t70 -10q10 14 17 20.5t18 6.5q7 0 18 -1.5t21.5 -5t18 -9t7.5 -12.5q0 -5 -1 -9q-12 -42 -23 -93t-19.5 -103.5t-14 -103.5
t-6.5 -93q25 2 43.5 8.5t41.5 18.5q1 -1 3.5 -4.5t6 -8l6.5 -8.5t4 -5q-14 -15 -32.5 -29.5t-38.5 -25t-40 -17t-36 -6.5q-28 0 -44 11t-16 49q0 23 4 66t12 85zM306 421q-34 0 -59.5 -22.5t-43 -57.5t-26 -78t-8.5 -84q0 -51 12.5 -71.5t31.5 -20.5q20 0 46 23.5t52 58.5
t48.5 75.5t35.5 74.5l13 67q-23 19 -53 27t-49 8zM476 675q22 0 35.5 -15t11.5 -37q-2 -26 -20 -43.5t-41 -17.5t-36.5 15.5t-11.5 38.5q2 25 20 42t42 17zM281 675q21 0 34.5 -15t11.5 -37q-1 -26 -19 -43.5t-42 -17.5q-21 0 -35 15.5t-13 38.5q2 25 20.5 42t42.5 17z" />
    <glyph glyph-name="aring" unicode="&#xe5;" horiz-adv-x="561" 
d="M375 202q-60 -108 -116 -159.5t-102 -51.5q-38 0 -65 36t-27 119q0 18 1.5 36.5t4.5 35.5q9 47 33 94.5t56 85t68.5 61t70.5 23.5q28 0 60 -2t70 -10q10 14 17 20.5t18 6.5q7 0 18 -1.5t21.5 -5t18 -9t7.5 -12.5q0 -5 -1 -9q-12 -42 -23 -93t-19.5 -103.5t-14 -103.5
t-6.5 -93q25 2 43.5 8.5t41.5 18.5q1 -1 3.5 -4.5t6 -8l6.5 -8.5t4 -5q-14 -15 -32.5 -29.5t-38.5 -25t-40 -17t-36 -6.5q-28 0 -44 11t-16 49q0 23 4 66t12 85zM306 421q-34 0 -59.5 -22.5t-43 -57.5t-26 -78t-8.5 -84q0 -51 12.5 -71.5t31.5 -20.5q20 0 46 23.5t52 58.5
t48.5 75.5t35.5 74.5l13 67q-23 19 -53 27t-49 8zM365 550q-42 0 -68.5 27.5t-26.5 69.5q0 24 9.5 46t26 38.5t38.5 26.5t46 10q41 0 67.5 -28.5t26.5 -68.5q0 -26 -10 -48t-26.5 -38t-38 -25.5t-44.5 -9.5zM383 718q-24 0 -42.5 -20t-18.5 -45q0 -20 14 -36.5t35 -16.5
q12 0 22.5 5.5t19 14.5t13.5 20.5t5 23.5q0 21 -14 37.5t-34 16.5z" />
    <glyph glyph-name="egrave" unicode="&#xe8;" horiz-adv-x="431" 
d="M434 377q1 -34 -19 -62t-55.5 -50.5t-83.5 -40.5t-103 -33q-2 -10 -2 -19v-17q2 -42 17.5 -70.5t48.5 -28.5q38 0 76.5 20t76.5 55l26 -26q-14 -18 -36 -38.5t-49.5 -38t-60 -28.5t-67.5 -11q-135 0 -138 165q-2 45 10 96.5t34 94.5q12 25 36.5 51t54.5 47t63.5 34
t63.5 13q48 0 76.5 -33t30.5 -80zM180 236q28 6 57.5 17.5t53 28t38.5 38.5t15 48q-2 29 -17 47t-31 18q-18 0 -36.5 -13.5t-34 -38.5t-28 -61.5t-18.5 -81.5zM367 569l-9.5 -6.5t-13 -10t-12.5 -10t-9 -7.5l-30 34.5l-40 45l-40.5 44.5t-30.5 34q6 4 16.5 12.5l21.5 17.5
l21.5 17.5t16.5 12.5z" />
    <glyph glyph-name="eacute" unicode="&#xe9;" horiz-adv-x="431" 
d="M434 377q1 -34 -19 -62t-55.5 -50.5t-83.5 -40.5t-103 -33q-2 -10 -2 -19v-17q2 -42 17.5 -70.5t48.5 -28.5q38 0 76.5 20t76.5 55l26 -26q-14 -18 -36 -38.5t-49.5 -38t-60 -28.5t-67.5 -11q-135 0 -138 165q-2 45 10 96.5t34 94.5q12 25 36.5 51t54.5 47t63.5 34
t63.5 13q48 0 76.5 -33t30.5 -80zM180 236q28 6 57.5 17.5t53 28t38.5 38.5t15 48q-2 29 -17 47t-31 18q-18 0 -36.5 -13.5t-34 -38.5t-28 -61.5t-18.5 -81.5zM402 752l32 -30.5t33 -29.5l-84 -78.5l-84 -78.5q-8 8 -19 17t-19 17z" />
    <glyph glyph-name="ecircumflex" unicode="&#xea;" horiz-adv-x="431" 
d="M434 377q1 -34 -19 -62t-55.5 -50.5t-83.5 -40.5t-103 -33q-2 -10 -2 -19v-17q2 -42 17.5 -70.5t48.5 -28.5q38 0 76.5 20t76.5 55l26 -26q-14 -18 -36 -38.5t-49.5 -38t-60 -28.5t-67.5 -11q-135 0 -138 165q-2 45 10 96.5t34 94.5q12 25 36.5 51t54.5 47t63.5 34
t63.5 13q48 0 76.5 -33t30.5 -80zM321 655l-87 -56.5t-89 -55.5l-22 30l90 81l90 80h56l71.5 -79.5l70.5 -80.5l-31 -32zM180 236q28 6 57.5 17.5t53 28t38.5 38.5t15 48q-2 29 -17 47t-31 18q-18 0 -36.5 -13.5t-34 -38.5t-28 -61.5t-18.5 -81.5z" />
    <glyph glyph-name="edieresis" unicode="&#xeb;" horiz-adv-x="431" 
d="M434 377q1 -34 -19 -62t-55.5 -50.5t-83.5 -40.5t-103 -33q-2 -10 -2 -19v-17q2 -42 17.5 -70.5t48.5 -28.5q38 0 76.5 20t76.5 55l26 -26q-14 -18 -36 -38.5t-49.5 -38t-60 -28.5t-67.5 -11q-135 0 -138 165q-2 45 10 96.5t34 94.5q12 25 36.5 51t54.5 47t63.5 34
t63.5 13q48 0 76.5 -33t30.5 -80zM180 236q28 6 57.5 17.5t53 28t38.5 38.5t15 48q-2 29 -17 47t-31 18q-18 0 -36.5 -13.5t-34 -38.5t-28 -61.5t-18.5 -81.5zM219 675q21 0 34.5 -15t11.5 -37q-1 -26 -19 -43.5t-42 -17.5q-21 0 -35 15.5t-13 38.5q2 25 20.5 42t42.5 17z
M414 675q22 0 35.5 -15t11.5 -37q-2 -26 -20 -43.5t-41 -17.5t-36.5 15.5t-11.5 38.5q2 25 20 42t42 17z" />
    <glyph glyph-name="igrave" unicode="&#xec;" horiz-adv-x="314" 
d="M203 491q62 0 62 -63q0 -10 -4 -36.5t-10.5 -61l-13.5 -74l-14 -76.5l-12.5 -67t-7.5 -46q23 2 44 9.5t44 18.5l18 -26q-14 -15 -31.5 -29.5t-36.5 -25.5t-38.5 -17.5t-35.5 -6.5q-65 0 -65 55q0 12 5.5 47.5t14 86l19.5 111l23 123.5q-18 -1 -37.5 -7.5t-43.5 -17.5
l-19 28q29 32 66.5 53.5t72.5 21.5zM254 569l-9.5 -6.5t-13 -10t-12.5 -10t-9 -7.5l-30 34.5l-40 45l-40.5 44.5t-30.5 34q6 4 16.5 12.5l21.5 17.5l21.5 17.5t16.5 12.5z" />
    <glyph glyph-name="iacute" unicode="&#xed;" horiz-adv-x="314" 
d="M203 491q62 0 62 -63q0 -10 -4 -36.5t-10.5 -61l-13.5 -74l-14 -76.5l-12.5 -67t-7.5 -46q23 2 44 9.5t44 18.5l18 -26q-14 -15 -31.5 -29.5t-36.5 -25.5t-38.5 -17.5t-35.5 -6.5q-65 0 -65 55q0 12 5.5 47.5t14 86l19.5 111l23 123.5q-18 -1 -37.5 -7.5t-43.5 -17.5
l-19 28q29 32 66.5 53.5t72.5 21.5zM308 752l32 -30.5t33 -29.5l-84 -78.5l-84 -78.5q-8 8 -19 17t-19 17z" />
    <glyph glyph-name="icircumflex" unicode="&#xee;" horiz-adv-x="314" 
d="M203 491q62 0 62 -63q0 -10 -4 -36.5t-10.5 -61l-13.5 -74l-14 -76.5l-12.5 -67t-7.5 -46q23 2 44 9.5t44 18.5l18 -26q-14 -15 -31.5 -29.5t-36.5 -25.5t-38.5 -17.5t-35.5 -6.5q-65 0 -65 55q0 12 5.5 47.5t14 86l19.5 111l23 123.5q-18 -1 -37.5 -7.5t-43.5 -17.5
l-19 28q29 32 66.5 53.5t72.5 21.5zM215 655l-87 -56.5t-89 -55.5l-22 30l90 81l90 80h56l71.5 -79.5l70.5 -80.5l-31 -32z" />
    <glyph glyph-name="idieresis" unicode="&#xef;" horiz-adv-x="314" 
d="M203 491q62 0 62 -63q0 -10 -4 -36.5t-10.5 -61l-13.5 -74l-14 -76.5l-12.5 -67t-7.5 -46q23 2 44 9.5t44 18.5l18 -26q-14 -15 -31.5 -29.5t-36.5 -25.5t-38.5 -17.5t-35.5 -6.5q-65 0 -65 55q0 12 5.5 47.5t14 86l19.5 111l23 123.5q-18 -1 -37.5 -7.5t-43.5 -17.5
l-19 28q29 32 66.5 53.5t72.5 21.5zM130 675q21 0 34.5 -15t11.5 -37q-1 -26 -19 -43.5t-42 -17.5q-21 0 -35 15.5t-13 38.5q2 25 20.5 42t42.5 17zM325 675q22 0 35.5 -15t11.5 -37q-2 -26 -20 -43.5t-41 -17.5t-36.5 15.5t-11.5 38.5q2 25 20 42t42 17z" />
    <glyph glyph-name="ntilde" unicode="&#xf1;" horiz-adv-x="606" 
d="M500 67q21 2 41.5 8.5t44.5 18.5l19 -25q-13 -15 -30 -29.5t-36.5 -25.5t-39.5 -17.5t-38 -6.5q-42 0 -53 22.5t-7 58.5q5 33 13.5 75.5l16.5 84.5t13.5 77.5t5.5 55.5q-2 35 -28 35q-17 0 -34.5 -11.5t-33.5 -27.5q-27 -26 -50.5 -58t-42.5 -63q-9 -15 -16 -29l-13 -26
q-3 -6 -7 -26.5l-8.5 -45l-8.5 -48t-5 -35.5q-2 -10 -5 -14.5t-14 -6.5l-38.5 -8t-34.5 -9q-5 2 -8.5 4t-5.5 7l20 107.5l17 97.5l15.5 97.5t15.5 108.5q-33 -1 -81 -26l-23 28q29 32 66.5 54t73.5 22q37 0 51 -15t14 -42q0 -26 -5 -62t-12 -74h3l46 61.5t56 61.5t63 47
t69 19q32 0 50.5 -19.5t19.5 -52.5q1 -24 -4 -60.5t-13.5 -82l-18.5 -98zM506 686l13.5 -4l13.5 -4q-6 -21 -15.5 -40.5t-23 -34.5t-32 -24t-42.5 -9q-23 0 -39.5 6.5t-31.5 14.5t-29.5 14.5t-32.5 6.5q-20 0 -36.5 -8.5t-33.5 -37.5l-30 9q4 14 11.5 33t21 36.5t33 29.5
t47.5 12q17 0 34.5 -7t35 -15l34 -15t31.5 -7q23 0 38 8.5t33 35.5z" />
    <glyph glyph-name="ograve" unicode="&#xf2;" horiz-adv-x="520" 
d="M344 489q41 0 72.5 -13.5t52.5 -38t32 -58t11 -73.5q0 -69 -20 -126.5t-57 -99.5t-88.5 -65.5t-114.5 -23.5q-80 0 -124 50.5t-44 136.5q0 71 23 128.5t62 98t89.5 62.5t105.5 22zM314 435q-30 0 -55 -18.5t-43.5 -49.5t-29 -71.5t-11.5 -85.5q0 -36 4 -66.5t14 -53
t27 -35t43 -12.5q35 0 61.5 22.5t44 58.5t26.5 81.5t9 90.5q0 63 -23 101t-67 38zM416 569l-9.5 -6.5t-13 -10t-12.5 -10t-9 -7.5l-30 34.5l-40 45l-40.5 44.5t-30.5 34q6 4 16.5 12.5l21.5 17.5l21.5 17.5t16.5 12.5z" />
    <glyph glyph-name="oacute" unicode="&#xf3;" horiz-adv-x="520" 
d="M344 489q41 0 72.5 -13.5t52.5 -38t32 -58t11 -73.5q0 -69 -20 -126.5t-57 -99.5t-88.5 -65.5t-114.5 -23.5q-80 0 -124 50.5t-44 136.5q0 71 23 128.5t62 98t89.5 62.5t105.5 22zM314 435q-30 0 -55 -18.5t-43.5 -49.5t-29 -71.5t-11.5 -85.5q0 -36 4 -66.5t14 -53
t27 -35t43 -12.5q35 0 61.5 22.5t44 58.5t26.5 81.5t9 90.5q0 63 -23 101t-67 38zM435 752l32 -30.5t33 -29.5l-84 -78.5l-84 -78.5q-8 8 -19 17t-19 17z" />
    <glyph glyph-name="ocircumflex" unicode="&#xf4;" horiz-adv-x="520" 
d="M344 489q41 0 72.5 -13.5t52.5 -38t32 -58t11 -73.5q0 -69 -20 -126.5t-57 -99.5t-88.5 -65.5t-114.5 -23.5q-80 0 -124 50.5t-44 136.5q0 71 23 128.5t62 98t89.5 62.5t105.5 22zM314 435q-30 0 -55 -18.5t-43.5 -49.5t-29 -71.5t-11.5 -85.5q0 -36 4 -66.5t14 -53
t27 -35t43 -12.5q35 0 61.5 22.5t44 58.5t26.5 81.5t9 90.5q0 63 -23 101t-67 38zM362 655l-87 -56.5t-89 -55.5l-22 30l90 81l90 80h56l71.5 -79.5l70.5 -80.5l-31 -32z" />
    <glyph glyph-name="otilde" unicode="&#xf5;" horiz-adv-x="520" 
d="M344 489q41 0 72.5 -13.5t52.5 -38t32 -58t11 -73.5q0 -69 -20 -126.5t-57 -99.5t-88.5 -65.5t-114.5 -23.5q-80 0 -124 50.5t-44 136.5q0 71 23 128.5t62 98t89.5 62.5t105.5 22zM314 435q-30 0 -55 -18.5t-43.5 -49.5t-29 -71.5t-11.5 -85.5q0 -36 4 -66.5t14 -53
t27 -35t43 -12.5q35 0 61.5 22.5t44 58.5t26.5 81.5t9 90.5q0 63 -23 101t-67 38zM507 686l13.5 -4l13.5 -4q-6 -21 -15.5 -40.5t-23 -34.5t-32 -24t-42.5 -9q-23 0 -39.5 6.5t-31.5 14.5t-29.5 14.5t-32.5 6.5q-20 0 -36.5 -8.5t-33.5 -37.5l-30 9q4 14 11.5 33t21 36.5
t33 29.5t47.5 12q17 0 34.5 -7t35 -15l34 -15t31.5 -7q23 0 38 8.5t33 35.5z" />
    <glyph glyph-name="odieresis" unicode="&#xf6;" horiz-adv-x="520" 
d="M344 489q41 0 72.5 -13.5t52.5 -38t32 -58t11 -73.5q0 -69 -20 -126.5t-57 -99.5t-88.5 -65.5t-114.5 -23.5q-80 0 -124 50.5t-44 136.5q0 71 23 128.5t62 98t89.5 62.5t105.5 22zM314 435q-30 0 -55 -18.5t-43.5 -49.5t-29 -71.5t-11.5 -85.5q0 -36 4 -66.5t14 -53
t27 -35t43 -12.5q35 0 61.5 22.5t44 58.5t26.5 81.5t9 90.5q0 63 -23 101t-67 38zM259 675q21 0 34.5 -15t11.5 -37q-1 -26 -19 -43.5t-42 -17.5q-21 0 -35 15.5t-13 38.5q2 25 20.5 42t42.5 17zM454 675q22 0 35.5 -15t11.5 -37q-2 -26 -20 -43.5t-41 -17.5t-36.5 15.5
t-11.5 38.5q2 25 20 42t42 17z" />
    <glyph glyph-name="oslash" unicode="&#xf8;" horiz-adv-x="520" 
d="M341 489q73 0 117 -42q17 17 27.5 29t21.5 23l26 -28q-14 -14 -26 -27.5l-25 -27.5q13 -22 20 -50t7 -60q0 -69 -20 -126.5t-57 -99.5t-88.5 -65.5t-114.5 -23.5q-73 0 -116 41q-12 -11 -23 -23t-23 -23l-27 26l49 50q-28 46 -28 116q0 71 23 128.5t62 98t89.5 62.5
t105.5 22zM260 43q35 0 62 23.5t45.5 60.5t28 80.5t9.5 84.5q0 28 -4 48l-218 -232q10 -28 29 -46.5t48 -18.5zM312 435q-31 0 -57 -20t-44.5 -53t-28.5 -76.5t-10 -90.5q0 -24 3 -46l212 227q-11 27 -29.5 42.5t-45.5 16.5z" />
    <glyph glyph-name="ugrave" unicode="&#xf9;" horiz-adv-x="604" 
d="M167 414q-21 -2 -41.5 -9t-43.5 -19l-20 25q13 15 30.5 29.5t36.5 26t39 18t38 6.5q42 0 53.5 -23t7.5 -58q-5 -33 -13.5 -75.5l-17 -84.5t-14 -78t-4.5 -55q0 -17 7.5 -26t19.5 -9q19 0 42 18t45 43.5t41 53t30 45.5q9 15 16.5 29.5l13.5 26.5q3 6 7 26l8.5 44t8 47.5
t4.5 36.5q2 10 5.5 14t14.5 6q41 8 73 17l8 -4t5 -7l-20 -107l-17 -96.5t-15.5 -97.5l-15.5 -108q17 1 38 7.5t44 17.5l22 -28q-29 -32 -66 -53.5t-74 -21.5q-36 0 -50 15t-14 42q0 25 5 61.5t12 73.5h-3q-20 -29 -45.5 -62t-55 -61t-62.5 -47t-68 -19q-32 0 -51 20t-20 52
q-1 24 4 60t13.5 81.5l19 98t20.5 108.5h-1zM417 569l-9.5 -6.5t-13 -10t-12.5 -10t-9 -7.5l-30 34.5l-40 45l-40.5 44.5t-30.5 34q6 4 16.5 12.5l21.5 17.5l21.5 17.5t16.5 12.5z" />
    <glyph glyph-name="uacute" unicode="&#xfa;" horiz-adv-x="604" 
d="M167 414q-21 -2 -41.5 -9t-43.5 -19l-20 25q13 15 30.5 29.5t36.5 26t39 18t38 6.5q42 0 53.5 -23t7.5 -58q-5 -33 -13.5 -75.5l-17 -84.5t-14 -78t-4.5 -55q0 -17 7.5 -26t19.5 -9q19 0 42 18t45 43.5t41 53t30 45.5q9 15 16.5 29.5l13.5 26.5q3 6 7 26l8.5 44t8 47.5
t4.5 36.5q2 10 5.5 14t14.5 6q41 8 73 17l8 -4t5 -7l-20 -107l-17 -96.5t-15.5 -97.5l-15.5 -108q17 1 38 7.5t44 17.5l22 -28q-29 -32 -66 -53.5t-74 -21.5q-36 0 -50 15t-14 42q0 25 5 61.5t12 73.5h-3q-20 -29 -45.5 -62t-55 -61t-62.5 -47t-68 -19q-32 0 -51 20t-20 52
q-1 24 4 60t13.5 81.5l19 98t20.5 108.5h-1zM459 752l32 -30.5t33 -29.5l-84 -78.5l-84 -78.5q-8 8 -19 17t-19 17z" />
    <glyph glyph-name="ucircumflex" unicode="&#xfb;" horiz-adv-x="604" 
d="M167 414q-21 -2 -41.5 -9t-43.5 -19l-20 25q13 15 30.5 29.5t36.5 26t39 18t38 6.5q42 0 53.5 -23t7.5 -58q-5 -33 -13.5 -75.5l-17 -84.5t-14 -78t-4.5 -55q0 -17 7.5 -26t19.5 -9q19 0 42 18t45 43.5t41 53t30 45.5q9 15 16.5 29.5l13.5 26.5q3 6 7 26l8.5 44t8 47.5
t4.5 36.5q2 10 5.5 14t14.5 6q41 8 73 17l8 -4t5 -7l-20 -107l-17 -96.5t-15.5 -97.5l-15.5 -108q17 1 38 7.5t44 17.5l22 -28q-29 -32 -66 -53.5t-74 -21.5q-36 0 -50 15t-14 42q0 25 5 61.5t12 73.5h-3q-20 -29 -45.5 -62t-55 -61t-62.5 -47t-68 -19q-32 0 -51 20t-20 52
q-1 24 4 60t13.5 81.5l19 98t20.5 108.5h-1zM379 655l-87 -56.5t-89 -55.5l-22 30l90 81l90 80h56l71.5 -79.5l70.5 -80.5l-31 -32z" />
    <glyph glyph-name="udieresis" unicode="&#xfc;" horiz-adv-x="604" 
d="M167 414q-21 -2 -41.5 -9t-43.5 -19l-20 25q13 15 30.5 29.5t36.5 26t39 18t38 6.5q42 0 53.5 -23t7.5 -58q-5 -33 -13.5 -75.5l-17 -84.5t-14 -78t-4.5 -55q0 -17 7.5 -26t19.5 -9q19 0 42 18t45 43.5t41 53t30 45.5q9 15 16.5 29.5l13.5 26.5q3 6 7 26l8.5 44t8 47.5
t4.5 36.5q2 10 5.5 14t14.5 6q41 8 73 17l8 -4t5 -7l-20 -107l-17 -96.5t-15.5 -97.5l-15.5 -108q17 1 38 7.5t44 17.5l22 -28q-29 -32 -66 -53.5t-74 -21.5q-36 0 -50 15t-14 42q0 25 5 61.5t12 73.5h-3q-20 -29 -45.5 -62t-55 -61t-62.5 -47t-68 -19q-32 0 -51 20t-20 52
q-1 24 4 60t13.5 81.5l19 98t20.5 108.5h-1zM297 675q21 0 34.5 -15t11.5 -37q-1 -26 -19 -43.5t-42 -17.5q-21 0 -35 15.5t-13 38.5q2 25 20.5 42t42.5 17zM492 675q22 0 35.5 -15t11.5 -37q-2 -26 -20 -43.5t-41 -17.5t-36.5 15.5t-11.5 38.5q2 25 20 42t42 17z" />
    <glyph glyph-name="yacute" unicode="&#xfd;" horiz-adv-x="551" 
d="M168 -5q-32 0 -51.5 19t-19.5 51q0 23 5 59t13 81.5l18 98l21 108.5q-24 -3 -43.5 -9.5t-43.5 -18.5l-9.5 13.5t-9.5 12.5q13 15 30.5 29.5t36.5 25.5t38.5 17.5t36.5 6.5q29 0 46 -11.5t19 -37.5q0 -14 -4 -38.5t-9.5 -55l-12 -64l-12 -64.5t-9.5 -56.5t-4 -40.5
q0 -17 6.5 -29t20.5 -12q23 0 46.5 18t44.5 43.5t38.5 53.5l29.5 47q9 15 16 29t12 27q3 6 7.5 26t9 44t8 47t4.5 35q2 10 5.5 14.5t15.5 7.5q19 3 37 7t35 9l8 -4t5 -7q-9 -50 -19 -98.5l-20 -98.5q-8 -45 -21 -101t-32 -114t-45 -113t-59.5 -98.5t-76.5 -69.5t-96 -26
q-27 0 -48 6.5t-35.5 16.5t-21.5 22.5t-7 23.5q0 17 13 34.5t52 27.5q7 -24 28 -40.5t48 -16.5q33 0 59.5 23.5t47.5 57t35.5 71.5t23.5 67q23 70 36 146q-2 0 -2.5 0.5t-2.5 0.5q-18 -30 -44.5 -65t-58.5 -66t-67.5 -51.5t-71.5 -20.5zM451 752l32 -30.5t33 -29.5
l-84 -78.5l-84 -78.5q-8 8 -19 17t-19 17z" />
    <glyph glyph-name="thorn" unicode="&#xfe;" horiz-adv-x="561" 
d="M298 56q34 0 59.5 23.5t43 60t26 80t8.5 84.5q0 49 -12.5 69t-32.5 20t-46 -22.5t-51.5 -57t-48 -75t-35.5 -75.5l-12 -72q24 -20 52.5 -27.5t48.5 -7.5zM180 6q-1 -1 -2 -1q-8 -54 -14.5 -109.5t-13.5 -106.5q-22 -14 -41.5 -21.5t-49.5 -13.5l-10 10q11 72 24.5 152
t25.5 161q6 36 13 83.5l14 99.5l14 106l13.5 104t11.5 93t9 73q-22 -2 -42.5 -10t-43.5 -19q-5 7 -9.5 14t-9.5 14q14 15 32 29.5t37.5 25t39 17t36.5 6.5q31 0 45.5 -13t14.5 -47q0 -11 -2.5 -37.5t-7 -61l-10 -74.5t-11.5 -78l-11 -71t-9 -53q1 0 2 -0.5t2 -0.5
q60 108 117 160.5t105 52.5q41 0 64 -38.5t25 -107.5q-1 -22 -1.5 -43.5t-4.5 -41.5q-9 -46 -32 -93t-54.5 -85t-68 -62t-73.5 -24q-27 0 -57.5 1.5t-66.5 9.5z" />
    <glyph glyph-name="ydieresis" unicode="&#xff;" horiz-adv-x="551" 
d="M168 -5q-32 0 -51.5 19t-19.5 51q0 23 5 59t13 81.5l18 98l21 108.5q-24 -3 -43.5 -9.5t-43.5 -18.5l-9.5 13.5t-9.5 12.5q13 15 30.5 29.5t36.5 25.5t38.5 17.5t36.5 6.5q29 0 46 -11.5t19 -37.5q0 -14 -4 -38.5t-9.5 -55l-12 -64l-12 -64.5t-9.5 -56.5t-4 -40.5
q0 -17 6.5 -29t20.5 -12q23 0 46.5 18t44.5 43.5t38.5 53.5l29.5 47q9 15 16 29t12 27q3 6 7.5 26t9 44t8 47t4.5 35q2 10 5.5 14.5t15.5 7.5q19 3 37 7t35 9l8 -4t5 -7q-9 -50 -19 -98.5l-20 -98.5q-8 -45 -21 -101t-32 -114t-45 -113t-59.5 -98.5t-76.5 -69.5t-96 -26
q-27 0 -48 6.5t-35.5 16.5t-21.5 22.5t-7 23.5q0 17 13 34.5t52 27.5q7 -24 28 -40.5t48 -16.5q33 0 59.5 23.5t47.5 57t35.5 71.5t23.5 67q23 70 36 146q-2 0 -2.5 0.5t-2.5 0.5q-18 -30 -44.5 -65t-58.5 -66t-67.5 -51.5t-71.5 -20.5zM267 675q21 0 34.5 -15t11.5 -37
q-1 -26 -19 -43.5t-42 -17.5q-21 0 -35 15.5t-13 38.5q2 25 20.5 42t42.5 17zM462 675q22 0 35.5 -15t11.5 -37q-2 -26 -20 -43.5t-41 -17.5t-36.5 15.5t-11.5 38.5q2 25 20 42t42 17z" />
    <glyph glyph-name="Amacron" unicode="&#x100;" horiz-adv-x="681" 
d="M470 702l139 -582q5 -26 15.5 -43t35.5 -24l21 -6l-6 -47h-264l5 44l45 12q20 5 29.5 19t1.5 36l-13.5 63l-8.5 42h-238q-11 -23 -20.5 -47t-20.5 -48q-11 -26 -4.5 -43t36.5 -25l40 -8l-6 -45h-245l4 45l32 9q25 7 40.5 22.5t27.5 41.5l122 248l120 249l17.5 36.5
l16.5 37.5l75 15zM391 571l-36.5 -83l-36.5 -83l-60 -133h200l-28 133l-33 166h-6zM601 833l-4 -37l-4 -37h-318l8 74h318z" />
    <glyph glyph-name="amacron" unicode="&#x101;" horiz-adv-x="561" 
d="M375 202q-60 -108 -116 -159.5t-102 -51.5q-38 0 -65 36t-27 119q0 18 1.5 36.5t4.5 35.5q9 47 33 94.5t56 85t68.5 61t70.5 23.5q28 0 60 -2t70 -10q10 14 17 20.5t18 6.5q7 0 18 -1.5t21.5 -5t18 -9t7.5 -12.5q0 -5 -1 -9q-12 -42 -23 -93t-19.5 -103.5t-14 -103.5
t-6.5 -93q25 2 43.5 8.5t41.5 18.5q1 -1 3.5 -4.5t6 -8l6.5 -8.5t4 -5q-14 -15 -32.5 -29.5t-38.5 -25t-40 -17t-36 -6.5q-28 0 -44 11t-16 49q0 23 4 66t12 85zM306 421q-34 0 -59.5 -22.5t-43 -57.5t-26 -78t-8.5 -84q0 -51 12.5 -71.5t31.5 -20.5q20 0 46 23.5t52 58.5
t48.5 75.5t35.5 74.5l13 67q-23 19 -53 27t-49 8zM546 662q-2 -18 -4.5 -34.5t-4.5 -34.5h-318l4 34.5l4 34.5h319z" />
    <glyph glyph-name="Abreve" unicode="&#x102;" horiz-adv-x="681" 
d="M470 702l139 -582q5 -26 15.5 -43t35.5 -24l21 -6l-6 -47h-264l5 44l45 12q20 5 29.5 19t1.5 36l-13.5 63l-8.5 42h-238q-11 -23 -20.5 -47t-20.5 -48q-11 -26 -4.5 -43t36.5 -25l40 -8l-6 -45h-245l4 45l32 9q25 7 40.5 22.5t27.5 41.5l122 248l120 249l17.5 36.5
l16.5 37.5l75 15zM391 571l-36.5 -83l-36.5 -83l-60 -133h200l-28 133l-33 166h-6zM267 864l68 34q17 -38 43 -61.5t47 -23.5t53.5 16t84.5 66q8 -6 16 -14t16 -14q-45 -63 -94 -91.5t-89 -28.5q-26 0 -49 9.5t-41.5 25t-33 35t-23.5 38.5z" />
    <glyph glyph-name="abreve" unicode="&#x103;" horiz-adv-x="561" 
d="M375 202q-60 -108 -116 -159.5t-102 -51.5q-38 0 -65 36t-27 119q0 18 1.5 36.5t4.5 35.5q9 47 33 94.5t56 85t68.5 61t70.5 23.5q28 0 60 -2t70 -10q10 14 17 20.5t18 6.5q7 0 18 -1.5t21.5 -5t18 -9t7.5 -12.5q0 -5 -1 -9q-12 -42 -23 -93t-19.5 -103.5t-14 -103.5
t-6.5 -93q25 2 43.5 8.5t41.5 18.5q1 -1 3.5 -4.5t6 -8l6.5 -8.5t4 -5q-14 -15 -32.5 -29.5t-38.5 -25t-40 -17t-36 -6.5q-28 0 -44 11t-16 49q0 23 4 66t12 85zM306 421q-34 0 -59.5 -22.5t-43 -57.5t-26 -78t-8.5 -84q0 -51 12.5 -71.5t31.5 -20.5q20 0 46 23.5t52 58.5
t48.5 75.5t35.5 74.5l13 67q-23 19 -53 27t-49 8zM349 551q-50 0 -87 32t-62 83l73 36q17 -38 42.5 -61.5t46.5 -23.5q23 0 56 17t83 66l31 -28q-45 -63 -94 -92t-89 -29z" />
    <glyph glyph-name="Aogonek" unicode="&#x104;" horiz-adv-x="681" 
d="M470 702l139 -582q5 -26 15.5 -43t35.5 -24l21 -6l-6 -47h-109q-24 -29 -36 -57.5t-12 -51.5q0 -29 21 -38.5t47 -9.5q15 0 31 2.5t29 5.5l5 -31q-27 -14 -57.5 -21.5t-58.5 -7.5q-51 0 -73 19.5t-22 48.5q0 24 17.5 63t62.5 78h-109l5 44l45 12q20 5 29.5 19t1.5 36
l-13.5 63l-8.5 42h-238q-11 -23 -20.5 -47t-20.5 -48q-11 -26 -4.5 -43t36.5 -25l40 -8l-6 -45h-245l4 45l32 9q25 7 40.5 22.5t27.5 41.5l122 248l120 249l17.5 36.5l16.5 37.5l75 15zM391 571l-36.5 -83l-36.5 -83l-60 -133h200l-28 133l-33 166h-6z" />
    <glyph glyph-name="aogonek" unicode="&#x105;" horiz-adv-x="561" 
d="M375 202q-60 -108 -116 -159.5t-102 -51.5q-38 0 -65 36t-27 119q0 18 1.5 36.5t4.5 35.5q9 47 33 94.5t56 85t68.5 61t70.5 23.5q28 0 60 -2t70 -10q10 14 17 20.5t18 6.5q7 0 18 -1.5t21.5 -5t18 -9t7.5 -12.5q0 -5 -1 -9q-12 -42 -23 -93t-19.5 -103.5t-14 -103.5
t-6.5 -93q25 2 43.5 8.5t41.5 18.5q1 -1 3.5 -4.5t6 -8l6.5 -8.5t4 -5q-18 -21 -45 -39t-54 -29q-25 -29 -37 -58t-12 -52q0 -29 21 -38.5t47 -9.5q15 0 31 2.5t29 5.5l5 -31q-27 -14 -57.5 -21.5t-58.5 -7.5q-51 0 -73 19.5t-22 48.5q0 23 15.5 58.5t55.5 73.5
q-24 2 -38 13.5t-14 46.5q0 23 4 66t12 85zM306 421q-34 0 -59.5 -22.5t-43 -57.5t-26 -78t-8.5 -84q0 -51 12.5 -71.5t31.5 -20.5q20 0 46 23.5t52 58.5t48.5 75.5t35.5 74.5l13 67q-23 19 -53 27t-49 8z" />
    <glyph glyph-name="Cacute" unicode="&#x106;" horiz-adv-x="619" 
d="M450 705q18 0 42 -2.5t50.5 -9t53 -18t48.5 -28.5l-14.5 -82t-13.5 -81l-40 -2l-4 58q-5 53 -35.5 73t-79.5 20q-69 0 -116.5 -31.5t-77.5 -81.5t-43.5 -112.5t-13.5 -124.5q0 -36 7.5 -75.5t27.5 -71.5t55 -53t90 -21q40 0 84 5t95 22l16 -57q-28 -14 -58 -23t-59 -14.5
t-56 -8t-49 -2.5q-69 0 -119 21t-82.5 60t-48 93.5t-15.5 122.5q0 80 21 156t64.5 135.5t110.5 96t160 36.5zM546 902l37 -80l-44.5 -20.5l-57.5 -25.5l-57.5 -25.5t-44.5 -19.5q-2 3 -5 9.5t-6.5 13l-7 13t-4.5 9.5z" />
    <glyph glyph-name="cacute" unicode="&#x107;" horiz-adv-x="434" 
d="M219 -12q-77 0 -112 48t-38 131q-3 82 36.5 154t107.5 123q33 23 62.5 34.5t58.5 11.5q32 0 54.5 -7.5t36.5 -19t20 -24.5t5 -23q0 -17 -17.5 -34.5t-58.5 -25.5q-5 41 -23 55t-37 14q-23 0 -39.5 -9t-33.5 -27q-14 -16 -26.5 -40.5t-22 -52.5t-14.5 -57.5t-4 -55.5
q2 -61 21 -94t61 -33q26 0 61.5 16.5t75.5 54.5l26 -27q-17 -22 -40.5 -42t-50.5 -35.5t-55.5 -25t-53.5 -9.5zM412 752l32 -30.5t33 -29.5l-84 -78.5l-84 -78.5q-8 8 -19 17t-19 17z" />
    <glyph glyph-name="Ccircumflex" unicode="&#x108;" horiz-adv-x="619" 
d="M450 705q18 0 42 -2.5t50.5 -9t53 -18t48.5 -28.5l-14.5 -82t-13.5 -81l-40 -2l-4 58q-5 53 -35.5 73t-79.5 20q-69 0 -116.5 -31.5t-77.5 -81.5t-43.5 -112.5t-13.5 -124.5q0 -36 7.5 -75.5t27.5 -71.5t55 -53t90 -21q40 0 84 5t95 22l16 -57q-28 -14 -58 -23t-59 -14.5
t-56 -8t-49 -2.5q-69 0 -119 21t-82.5 60t-48 93.5t-15.5 122.5q0 80 21 156t64.5 135.5t110.5 96t160 36.5zM437 833l-87 -53.5l-87 -53.5l-21 30l88 78l89 77h56l72 -76.5l72 -77.5q-8 -7 -16 -16l-14 -16z" />
    <glyph glyph-name="ccircumflex" unicode="&#x109;" horiz-adv-x="434" 
d="M219 -12q-77 0 -112 48t-38 131q-3 82 36.5 154t107.5 123q33 23 62.5 34.5t58.5 11.5q32 0 54.5 -7.5t36.5 -19t20 -24.5t5 -23q0 -17 -17.5 -34.5t-58.5 -25.5q-5 41 -23 55t-37 14q-23 0 -39.5 -9t-33.5 -27q-14 -16 -26.5 -40.5t-22 -52.5t-14.5 -57.5t-4 -55.5
q2 -61 21 -94t61 -33q26 0 61.5 16.5t75.5 54.5l26 -27q-17 -22 -40.5 -42t-50.5 -35.5t-55.5 -25t-53.5 -9.5zM325 655l-87 -56.5t-89 -55.5l-22 30l90 81l90 80h56l71.5 -79.5l70.5 -80.5l-31 -32z" />
    <glyph glyph-name="Cdotaccent" unicode="&#x10a;" horiz-adv-x="619" 
d="M450 705q18 0 42 -2.5t50.5 -9t53 -18t48.5 -28.5l-14.5 -82t-13.5 -81l-40 -2l-4 58q-5 53 -35.5 73t-79.5 20q-69 0 -116.5 -31.5t-77.5 -81.5t-43.5 -112.5t-13.5 -124.5q0 -36 7.5 -75.5t27.5 -71.5t55 -53t90 -21q40 0 84 5t95 22l16 -57q-28 -14 -58 -23t-59 -14.5
t-56 -8t-49 -2.5q-69 0 -119 21t-82.5 60t-48 93.5t-15.5 122.5q0 80 21 156t64.5 135.5t110.5 96t160 36.5zM454 887q26 0 42 -16.5t16 -41.5q0 -31 -21 -53.5t-51 -22.5q-28 0 -43.5 17t-15.5 43q0 32 22 53t51 21z" />
    <glyph glyph-name="cdotaccent" unicode="&#x10b;" horiz-adv-x="434" 
d="M219 -12q-77 0 -112 48t-38 131q-3 82 36.5 154t107.5 123q33 23 62.5 34.5t58.5 11.5q32 0 54.5 -7.5t36.5 -19t20 -24.5t5 -23q0 -17 -17.5 -34.5t-58.5 -25.5q-5 41 -23 55t-37 14q-23 0 -39.5 -9t-33.5 -27q-14 -16 -26.5 -40.5t-22 -52.5t-14.5 -57.5t-4 -55.5
q2 -61 21 -94t61 -33q26 0 61.5 16.5t75.5 54.5l26 -27q-17 -22 -40.5 -42t-50.5 -35.5t-55.5 -25t-53.5 -9.5zM358 711q26 0 42 -16.5t16 -41.5q0 -31 -21 -53.5t-51 -22.5q-28 0 -43.5 17t-15.5 43q0 32 22 53t51 21z" />
    <glyph glyph-name="Ccaron" unicode="&#x10c;" horiz-adv-x="619" 
d="M450 705q18 0 42 -2.5t50.5 -9t53 -18t48.5 -28.5l-14.5 -82t-13.5 -81l-40 -2l-4 58q-5 53 -35.5 73t-79.5 20q-69 0 -116.5 -31.5t-77.5 -81.5t-43.5 -112.5t-13.5 -124.5q0 -36 7.5 -75.5t27.5 -71.5t55 -53t90 -21q40 0 84 5t95 22l16 -57q-28 -14 -58 -23t-59 -14.5
t-56 -8t-49 -2.5q-69 0 -119 21t-82.5 60t-48 93.5t-15.5 122.5q0 80 21 156t64.5 135.5t110.5 96t160 36.5zM618 917q6 -8 11 -15.5l10 -15.5l-178 -154h-55l-72.5 77l-71.5 77q4 5 15 16l15 15l32.5 -22l42.5 -29.5l42.5 -30l32.5 -23.5z" />
    <glyph glyph-name="ccaron" unicode="&#x10d;" horiz-adv-x="434" 
d="M219 -12q-77 0 -112 48t-38 131q-3 82 36.5 154t107.5 123q33 23 62.5 34.5t58.5 11.5q32 0 54.5 -7.5t36.5 -19t20 -24.5t5 -23q0 -17 -17.5 -34.5t-58.5 -25.5q-5 41 -23 55t-37 14q-23 0 -39.5 -9t-33.5 -27q-14 -16 -26.5 -40.5t-22 -52.5t-14.5 -57.5t-4 -55.5
q2 -61 21 -94t61 -33q26 0 61.5 16.5t75.5 54.5l26 -27q-17 -22 -40.5 -42t-50.5 -35.5t-55.5 -25t-53.5 -9.5zM500 736q6 -7 11 -15l10 -16l-178 -160h-56l-143 160l15 15.5t14 16.5l32.5 -24.5l42 -32l42 -32l32.5 -24.5z" />
    <glyph glyph-name="Dcaron" unicode="&#x10e;" horiz-adv-x="706" 
d="M206 3h-42h-34.5t-35 -0.5t-44.5 -1.5v8.5t0.5 12t0.5 12v7.5l49 16q23 8 32.5 20.5t12.5 35.5l58 469q2 23 -4 32.5t-28 17.5l-40 13l12 43q19 -1 34 -1.5t28.5 -1t28 -0.5h33.5q24 0 43 0.5t36.5 1.5t35.5 1.5t39 0.5q82 0 136.5 -24t87.5 -63.5t46.5 -91.5t13.5 -108
q0 -31 -5.5 -72.5t-19.5 -86.5t-39 -88.5t-65 -78t-96.5 -55.5t-132.5 -21q-6 0 -27 0.5t-44.5 1t-43.5 1t-26 0.5zM252 132q-2 -21 1.5 -34t13.5 -20t28 -9t44 -2q68 0 117 29t80 76t45.5 106.5t14.5 121.5q0 63 -15.5 105t-44 67.5t-68.5 36.5t-88 11q-19 0 -37.5 -1
t-30.5 -3zM573 917q6 -8 11 -15.5l10 -15.5l-178 -154h-55l-72.5 77l-71.5 77q4 5 15 16l15 15l32.5 -22l42.5 -29.5l42.5 -30l32.5 -23.5z" />
    <glyph glyph-name="dcaron" unicode="&#x10f;" horiz-adv-x="708" 
d="M60 135l2 42t4 40q9 48 32.5 95t56 85t69 61.5t70.5 23.5q21 0 42 -0.5t47 -5.5q8 -2 16.5 -3t18.5 -3q7 50 14.5 95t14.5 94l-87 15l5 35q15 4 34 8.5t38.5 8t37.5 5.5t32 2q43 0 43 -40q0 -9 -3.5 -32.5l-8.5 -55l-11 -67l-11 -67.5l-18.5 -111.5t-17.5 -107.5
t-13.5 -99.5t-7.5 -86.5q23 2 42.5 8.5t43.5 20.5q5 -8 9.5 -14t9.5 -14q-14 -15 -32 -29t-38.5 -24.5t-40.5 -17t-36 -6.5q-28 0 -44 11t-17 48q0 12 1.5 29.5t4 37.5t6 42t8.5 43h-4q-31 -50 -58.5 -88.5t-54 -65.5t-53.5 -41t-57 -14q-38 0 -62.5 35t-26.5 108zM301 420
q-34 0 -59.5 -22.5t-43 -57t-26 -77.5t-8.5 -83q0 -93 44 -93q20 0 46 23.5t52 58.5t48.5 75t35.5 74l6 33.5t7 33.5q-24 20 -53.5 27.5t-48.5 7.5zM674 730q29 0 45 -19.5t16 -48.5q0 -45 -35.5 -89t-97.5 -74q-2 4 -7 12.5t-7 12.5q27 20 39.5 39t20.5 42q-21 3 -33.5 18
t-12.5 35q0 29 21 50.5t51 21.5z" />
    <glyph glyph-name="Dcroat" unicode="&#x110;" horiz-adv-x="706" 
d="M94 373h82l27 209q2 23 -4 32.5t-28 17.5l-40 13l12 43q19 -1 34 -1.5t28.5 -1t28 -0.5h33.5q24 0 43 0.5t36.5 1.5t35.5 1.5t39 0.5q82 0 136.5 -24t87.5 -63.5t46.5 -91.5t13.5 -108q0 -31 -5.5 -72.5t-19.5 -86.5t-39 -88.5t-65 -78t-96.5 -55.5t-132.5 -21
q-6 0 -27 0.5t-44.5 1t-43.5 1t-26 0.5h-42h-34.5t-35 -0.5t-44.5 -1.5v8.5t0.5 12t0.5 12v7.5l49 16q23 8 32.5 20.5t12.5 35.5l25 206h-83zM282 373h142l-7 -54h-142l-23 -187q-2 -21 1.5 -34t13.5 -20t28 -9t44 -2q68 0 117 29t80 76t45.5 106.5t14.5 121.5
q0 63 -15.5 105t-44 67.5t-68.5 36.5t-88 11q-19 0 -37.5 -1t-30.5 -3z" />
    <glyph glyph-name="dcroat" unicode="&#x111;" horiz-adv-x="550" 
d="M267 527q2 12 3.5 23t3.5 23h160q3 21 6.5 42t6.5 44l-87 15l5 35q15 4 34 8.5t38.5 8t37.5 5.5t32 2q23 0 33 -11t10 -29q0 -28 -6 -57.5t-12 -62.5h77q-2 -12 -3.5 -23t-3.5 -23h-77q-12 -61 -22.5 -124t-19.5 -123.5t-15.5 -115.5t-8.5 -98q23 2 42.5 8.5t43.5 20.5
q5 -8 9.5 -14t9.5 -14q-14 -15 -32 -29t-38.5 -24.5t-40.5 -17t-36 -6.5q-29 0 -45 12t-16 47q0 12 1.5 29.5t4 37.5t6 42t8.5 43h-4q-62 -109 -119.5 -159t-103.5 -50q-35 0 -61 34t-28 109q2 22 2.5 42t3.5 40q9 48 32.5 94t55.5 82t68 58.5t70 22.5q27 0 58.5 -2
t66.5 -10l9 65h-159zM299 412q-34 0 -59 -21t-42 -54.5t-25.5 -75t-8.5 -81.5q0 -53 12.5 -73t31.5 -20q20 0 46 23.5t52 58.5t48.5 75t35.5 74l11 59q-23 19 -53 27t-49 8z" />
    <glyph glyph-name="Emacron" unicode="&#x112;" horiz-adv-x="610" 
d="M295 3h-56.5t-65 -0.5l-67 -1t-61.5 -1.5v43l47 14q18 5 31 17t16 38l58 464q3 24 -1.5 36t-29.5 20l-38 13l9 43q24 -1 58.5 -1.5t69.5 -0.5h66.5h50.5q51 0 90.5 0.5t82.5 2.5h24.5t26.5 1q2 -2 4 -2.5t4 -2.5q-4 -48 -9 -94.5l-10 -94.5l-38 -5l-16 84q-4 23 -15 32
t-40 10q-32 1 -73 1.5t-105 0.5l-27 -232l118.5 4l118.5 4l-9 -75l-236 8l-26 -204q-4 -35 8 -44t40 -9q32 0 72.5 1t71.5 2q15 0 26 2.5t19 8t15.5 15t15.5 23.5q9 17 25 41t25 41l34 -8l-10.5 -41.5l-13 -53l-13 -53l-10.5 -41.5q-2 -1 -4.5 -4t-4.5 -4q-36 0 -64.5 0.5
l-56.5 1l-58 1t-69 0.5zM558 833l-4 -37l-4 -37h-318l8 74h318z" />
    <glyph glyph-name="emacron" unicode="&#x113;" horiz-adv-x="431" 
d="M434 377q1 -34 -19 -62t-55.5 -50.5t-83.5 -40.5t-103 -33q-2 -10 -2 -19v-17q2 -42 17.5 -70.5t48.5 -28.5q38 0 76.5 20t76.5 55l26 -26q-14 -18 -36 -38.5t-49.5 -38t-60 -28.5t-67.5 -11q-135 0 -138 165q-2 45 10 96.5t34 94.5q12 25 36.5 51t54.5 47t63.5 34
t63.5 13q48 0 76.5 -33t30.5 -80zM180 236q28 6 57.5 17.5t53 28t38.5 38.5t15 48q-2 29 -17 47t-31 18q-18 0 -36.5 -13.5t-34 -38.5t-28 -61.5t-18.5 -81.5zM470 662q-2 -18 -4.5 -34.5t-4.5 -34.5h-318l4 34.5l4 34.5h319z" />
    <glyph glyph-name="Ebreve" unicode="&#x114;" horiz-adv-x="610" 
d="M295 3h-56.5t-65 -0.5l-67 -1t-61.5 -1.5v43l47 14q18 5 31 17t16 38l58 464q3 24 -1.5 36t-29.5 20l-38 13l9 43q24 -1 58.5 -1.5t69.5 -0.5h66.5h50.5q51 0 90.5 0.5t82.5 2.5h24.5t26.5 1q2 -2 4 -2.5t4 -2.5q-4 -48 -9 -94.5l-10 -94.5l-38 -5l-16 84q-4 23 -15 32
t-40 10q-32 1 -73 1.5t-105 0.5l-27 -232l118.5 4l118.5 4l-9 -75l-236 8l-26 -204q-4 -35 8 -44t40 -9q32 0 72.5 1t71.5 2q15 0 26 2.5t19 8t15.5 15t15.5 23.5q9 17 25 41t25 41l34 -8l-10.5 -41.5l-13 -53l-13 -53l-10.5 -41.5q-2 -1 -4.5 -4t-4.5 -4q-36 0 -64.5 0.5
l-56.5 1l-58 1t-69 0.5zM244 864l68 34q17 -38 43 -61.5t47 -23.5t53.5 16t84.5 66q8 -6 16 -14t16 -14q-45 -63 -94 -91.5t-89 -28.5q-26 0 -49 9.5t-41.5 25t-33 35t-23.5 38.5z" />
    <glyph glyph-name="ebreve" unicode="&#x115;" horiz-adv-x="431" 
d="M434 377q1 -34 -19 -62t-55.5 -50.5t-83.5 -40.5t-103 -33q-2 -10 -2 -19v-17q2 -42 17.5 -70.5t48.5 -28.5q38 0 76.5 20t76.5 55l26 -26q-14 -18 -36 -38.5t-49.5 -38t-60 -28.5t-67.5 -11q-135 0 -138 165q-2 45 10 96.5t34 94.5q12 25 36.5 51t54.5 47t63.5 34
t63.5 13q48 0 76.5 -33t30.5 -80zM325 551q-50 0 -87 32t-62 83l73 36q17 -38 42.5 -61.5t46.5 -23.5q23 0 56 17t83 66l31 -28q-45 -63 -94 -92t-89 -29zM180 236q28 6 57.5 17.5t53 28t38.5 38.5t15 48q-2 29 -17 47t-31 18q-18 0 -36.5 -13.5t-34 -38.5t-28 -61.5
t-18.5 -81.5z" />
    <glyph glyph-name="Edotaccent" unicode="&#x116;" horiz-adv-x="610" 
d="M295 3h-56.5t-65 -0.5l-67 -1t-61.5 -1.5v43l47 14q18 5 31 17t16 38l58 464q3 24 -1.5 36t-29.5 20l-38 13l9 43q24 -1 58.5 -1.5t69.5 -0.5h66.5h50.5q51 0 90.5 0.5t82.5 2.5h24.5t26.5 1q2 -2 4 -2.5t4 -2.5q-4 -48 -9 -94.5l-10 -94.5l-38 -5l-16 84q-4 23 -15 32
t-40 10q-32 1 -73 1.5t-105 0.5l-27 -232l118.5 4l118.5 4l-9 -75l-236 8l-26 -204q-4 -35 8 -44t40 -9q32 0 72.5 1t71.5 2q15 0 26 2.5t19 8t15.5 15t15.5 23.5q9 17 25 41t25 41l34 -8l-10.5 -41.5l-13 -53l-13 -53l-10.5 -41.5q-2 -1 -4.5 -4t-4.5 -4q-36 0 -64.5 0.5
l-56.5 1l-58 1t-69 0.5zM404 887q26 0 42 -16.5t16 -41.5q0 -31 -21 -53.5t-51 -22.5q-28 0 -43.5 17t-15.5 43q0 32 22 53t51 21z" />
    <glyph glyph-name="edotaccent" unicode="&#x117;" horiz-adv-x="431" 
d="M434 377q1 -34 -19 -62t-55.5 -50.5t-83.5 -40.5t-103 -33q-2 -10 -2 -19v-17q2 -42 17.5 -70.5t48.5 -28.5q38 0 76.5 20t76.5 55l26 -26q-14 -18 -36 -38.5t-49.5 -38t-60 -28.5t-67.5 -11q-135 0 -138 165q-2 45 10 96.5t34 94.5q12 25 36.5 51t54.5 47t63.5 34
t63.5 13q48 0 76.5 -33t30.5 -80zM180 236q28 6 57.5 17.5t53 28t38.5 38.5t15 48q-2 29 -17 47t-31 18q-18 0 -36.5 -13.5t-34 -38.5t-28 -61.5t-18.5 -81.5zM330 711q26 0 42 -16.5t16 -41.5q0 -31 -21 -53.5t-51 -22.5q-28 0 -43.5 17t-15.5 43q0 32 22 53t51 21z" />
    <glyph glyph-name="Eogonek" unicode="&#x118;" horiz-adv-x="610" 
d="M295 3h-56.5t-65 -0.5l-67 -1t-61.5 -1.5v43l47 14q18 5 31 17t16 38l58 464q3 24 -1.5 36t-29.5 20l-38 13l9 43q24 -1 58.5 -1.5t69.5 -0.5h66.5h50.5q51 0 90.5 0.5t82.5 2.5h24.5t26.5 1q2 -2 4 -2.5t4 -2.5q-4 -48 -9 -94.5l-10 -94.5l-38 -5l-16 84q-4 23 -15 32
t-40 10q-32 1 -73 1.5t-105 0.5l-27 -232l118.5 4l118.5 4l-9 -75l-236 8l-26 -204q-4 -35 8 -44t40 -9q32 0 72.5 1t71.5 2q15 0 26 2.5t19 8t15.5 15t15.5 23.5q9 17 25 41t25 41l34 -8l-10.5 -41.5l-13 -53l-13 -53l-10.5 -41.5q-2 -1 -4.5 -4t-4.5 -4h-29
q-24 -29 -36 -57.5t-12 -51.5q0 -29 21 -38.5t47 -9.5q15 0 31 2.5t29 5.5l5 -31q-27 -14 -57.5 -21.5t-58.5 -7.5q-51 0 -73 19.5t-22 48.5q0 25 17.5 63.5t63.5 77.5l-80 2t-94 1z" />
    <glyph glyph-name="eogonek" unicode="&#x119;" horiz-adv-x="431" 
d="M434 377q1 -34 -19 -62t-55.5 -50.5t-83.5 -40.5t-103 -33q-2 -10 -2 -19v-17q2 -42 17.5 -70.5t48.5 -28.5q38 0 76.5 20t76.5 55l26 -26q-14 -17 -33 -35.5t-44 -35.5q-22 -27 -32 -53.5t-10 -48.5q0 -29 21 -38.5t47 -9.5q15 0 31 2.5t29 5.5l5 -31
q-27 -14 -57.5 -21.5t-58.5 -7.5q-51 0 -73 19.5t-22 48.5q0 17 8.5 42.5t29.5 54.5q-27 -8 -54 -8q-135 0 -138 165q-2 45 10 96.5t34 94.5q12 25 36.5 51t54.5 47t63.5 34t63.5 13q48 0 76.5 -33t30.5 -80zM180 236q28 6 57.5 17.5t53 28t38.5 38.5t15 48q-2 29 -17 47
t-31 18q-18 0 -36.5 -13.5t-34 -38.5t-28 -61.5t-18.5 -81.5z" />
    <glyph glyph-name="Ecaron" unicode="&#x11a;" horiz-adv-x="610" 
d="M295 3h-56.5t-65 -0.5l-67 -1t-61.5 -1.5v43l47 14q18 5 31 17t16 38l58 464q3 24 -1.5 36t-29.5 20l-38 13l9 43q24 -1 58.5 -1.5t69.5 -0.5h66.5h50.5q51 0 90.5 0.5t82.5 2.5h24.5t26.5 1q2 -2 4 -2.5t4 -2.5q-4 -48 -9 -94.5l-10 -94.5l-38 -5l-16 84q-4 23 -15 32
t-40 10q-32 1 -73 1.5t-105 0.5l-27 -232l118.5 4l118.5 4l-9 -75l-236 8l-26 -204q-4 -35 8 -44t40 -9q32 0 72.5 1t71.5 2q15 0 26 2.5t19 8t15.5 15t15.5 23.5q9 17 25 41t25 41l34 -8l-10.5 -41.5l-13 -53l-13 -53l-10.5 -41.5q-2 -1 -4.5 -4t-4.5 -4q-36 0 -64.5 0.5
l-56.5 1l-58 1t-69 0.5zM569 917q6 -8 11 -15.5l10 -15.5l-178 -154h-55l-72.5 77l-71.5 77q4 5 15 16l15 15l32.5 -22l42.5 -29.5l42.5 -30l32.5 -23.5z" />
    <glyph glyph-name="ecaron" unicode="&#x11b;" horiz-adv-x="431" 
d="M434 377q1 -34 -19 -62t-55.5 -50.5t-83.5 -40.5t-103 -33q-2 -10 -2 -19v-17q2 -42 17.5 -70.5t48.5 -28.5q38 0 76.5 20t76.5 55l26 -26q-14 -18 -36 -38.5t-49.5 -38t-60 -28.5t-67.5 -11q-135 0 -138 165q-2 45 10 96.5t34 94.5q12 25 36.5 51t54.5 47t63.5 34
t63.5 13q48 0 76.5 -33t30.5 -80zM486 736q6 -7 11 -15l10 -16l-178 -160h-56l-143 160l15 15.5t14 16.5l32.5 -24.5l42 -32l42 -32l32.5 -24.5zM180 236q28 6 57.5 17.5t53 28t38.5 38.5t15 48q-2 29 -17 47t-31 18q-18 0 -36.5 -13.5t-34 -38.5t-28 -61.5t-18.5 -81.5z
" />
    <glyph glyph-name="Gcircumflex" unicode="&#x11c;" horiz-adv-x="688" 
d="M95 274q0 79 22 156t67.5 138t115 99t164.5 38q18 0 43 -2.5t52 -9t54.5 -18t49.5 -28.5q-7 -45 -13.5 -81.5t-13.5 -80.5l-41 -3l-4 58q-4 53 -37.5 73t-82.5 20q-73 0 -123 -33t-81.5 -85t-45.5 -115.5t-14 -124.5q0 -43 9 -81t30 -67t55.5 -46t84.5 -17q23 0 55 4
t61 18l15 134q2 26 -2.5 40.5t-31.5 25.5l-42 14l6 41h231v-47l-22 -6q-34 -11 -38 -55l-21 -194q-74 -32 -132 -43.5t-106 -11.5q-69 0 -119 21.5t-82 60t-47.5 91.5t-15.5 117zM451 833l-87 -53.5l-87 -53.5l-21 30l88 78l89 77h56l72 -76.5l72 -77.5q-8 -7 -16 -16
l-14 -16z" />
    <glyph glyph-name="gcircumflex" unicode="&#x11d;" horiz-adv-x="521" 
d="M297 482q28 0 59.5 -2.5t68.5 -9.5q10 14 17 20t18 6q8 0 19 -1.5t21 -5t17.5 -9t7.5 -13.5q0 -2 -0.5 -3.5t-0.5 -3.5q-12 -49 -23.5 -104.5t-21 -112.5l-18.5 -113.5t-16 -107.5q-4 -26 -7.5 -52.5t-8.5 -52.5q-5 -29 -23.5 -57t-47.5 -50t-68.5 -35.5t-86.5 -13.5
q-46 0 -78.5 8t-53.5 20t-30.5 25.5t-9.5 24.5q0 8 4 18.5t13.5 21t26 19.5t40.5 12q6 -20 17.5 -36t27.5 -27.5t34 -18t37 -6.5q27 0 45 10.5t30 29.5t18.5 44t11.5 55l18 118.5t22 118.5h-4q-60 -106 -115.5 -156t-101.5 -50q-39 0 -65.5 36.5t-26.5 120.5q0 36 6 68
q9 47 33 94.5t56 85.5t68.5 61.5t70.5 23.5zM304 420q-33 0 -59 -22.5t-43 -57.5t-26 -77.5t-9 -82.5q0 -52 12.5 -72.5t32.5 -20.5t46 23.5t51.5 58.5t48 75t36.5 74l12 67q-23 20 -53 27.5t-49 7.5zM364 655l-87 -56.5t-89 -55.5l-22 30l90 81l90 80h56l71.5 -79.5
l70.5 -80.5l-31 -32z" />
    <glyph glyph-name="Gbreve" unicode="&#x11e;" horiz-adv-x="688" 
d="M95 274q0 79 22 156t67.5 138t115 99t164.5 38q18 0 43 -2.5t52 -9t54.5 -18t49.5 -28.5q-7 -45 -13.5 -81.5t-13.5 -80.5l-41 -3l-4 58q-4 53 -37.5 73t-82.5 20q-73 0 -123 -33t-81.5 -85t-45.5 -115.5t-14 -124.5q0 -43 9 -81t30 -67t55.5 -46t84.5 -17q23 0 55 4
t61 18l15 134q2 26 -2.5 40.5t-31.5 25.5l-42 14l6 41h231v-47l-22 -6q-34 -11 -38 -55l-21 -194q-74 -32 -132 -43.5t-106 -11.5q-69 0 -119 21.5t-82 60t-47.5 91.5t-15.5 117zM289 864l68 34q17 -38 43 -61.5t47 -23.5t53.5 16t84.5 66q8 -6 16 -14t16 -14
q-45 -63 -94 -91.5t-89 -28.5q-26 0 -49 9.5t-41.5 25t-33 35t-23.5 38.5z" />
    <glyph glyph-name="gbreve" unicode="&#x11f;" horiz-adv-x="521" 
d="M297 482q28 0 59.5 -2.5t68.5 -9.5q10 14 17 20t18 6q8 0 19 -1.5t21 -5t17.5 -9t7.5 -13.5q0 -2 -0.5 -3.5t-0.5 -3.5q-12 -49 -23.5 -104.5t-21 -112.5l-18.5 -113.5t-16 -107.5q-4 -26 -7.5 -52.5t-8.5 -52.5q-5 -29 -23.5 -57t-47.5 -50t-68.5 -35.5t-86.5 -13.5
q-46 0 -78.5 8t-53.5 20t-30.5 25.5t-9.5 24.5q0 8 4 18.5t13.5 21t26 19.5t40.5 12q6 -20 17.5 -36t27.5 -27.5t34 -18t37 -6.5q27 0 45 10.5t30 29.5t18.5 44t11.5 55l18 118.5t22 118.5h-4q-60 -106 -115.5 -156t-101.5 -50q-39 0 -65.5 36.5t-26.5 120.5q0 36 6 68
q9 47 33 94.5t56 85.5t68.5 61.5t70.5 23.5zM304 420q-33 0 -59 -22.5t-43 -57.5t-26 -77.5t-9 -82.5q0 -52 12.5 -72.5t32.5 -20.5t46 23.5t51.5 58.5t48 75t36.5 74l12 67q-23 20 -53 27.5t-49 7.5zM363 551q-50 0 -87 32t-62 83l73 36q17 -38 42.5 -61.5t46.5 -23.5
q23 0 56 17t83 66l31 -28q-45 -63 -94 -92t-89 -29z" />
    <glyph glyph-name="Gdotaccent" unicode="&#x120;" horiz-adv-x="688" 
d="M95 274q0 79 22 156t67.5 138t115 99t164.5 38q18 0 43 -2.5t52 -9t54.5 -18t49.5 -28.5q-7 -45 -13.5 -81.5t-13.5 -80.5l-41 -3l-4 58q-4 53 -37.5 73t-82.5 20q-73 0 -123 -33t-81.5 -85t-45.5 -115.5t-14 -124.5q0 -43 9 -81t30 -67t55.5 -46t84.5 -17q23 0 55 4
t61 18l15 134q2 26 -2.5 40.5t-31.5 25.5l-42 14l6 41h231v-47l-22 -6q-34 -11 -38 -55l-21 -194q-74 -32 -132 -43.5t-106 -11.5q-69 0 -119 21.5t-82 60t-47.5 91.5t-15.5 117zM470 887q26 0 42 -16.5t16 -41.5q0 -31 -21 -53.5t-51 -22.5q-28 0 -43.5 17t-15.5 43
q0 32 22 53t51 21z" />
    <glyph glyph-name="gdotaccent" unicode="&#x121;" horiz-adv-x="521" 
d="M297 482q28 0 59.5 -2.5t68.5 -9.5q10 14 17 20t18 6q8 0 19 -1.5t21 -5t17.5 -9t7.5 -13.5q0 -2 -0.5 -3.5t-0.5 -3.5q-12 -49 -23.5 -104.5t-21 -112.5l-18.5 -113.5t-16 -107.5q-4 -26 -7.5 -52.5t-8.5 -52.5q-5 -29 -23.5 -57t-47.5 -50t-68.5 -35.5t-86.5 -13.5
q-46 0 -78.5 8t-53.5 20t-30.5 25.5t-9.5 24.5q0 8 4 18.5t13.5 21t26 19.5t40.5 12q6 -20 17.5 -36t27.5 -27.5t34 -18t37 -6.5q27 0 45 10.5t30 29.5t18.5 44t11.5 55l18 118.5t22 118.5h-4q-60 -106 -115.5 -156t-101.5 -50q-39 0 -65.5 36.5t-26.5 120.5q0 36 6 68
q9 47 33 94.5t56 85.5t68.5 61.5t70.5 23.5zM304 420q-33 0 -59 -22.5t-43 -57.5t-26 -77.5t-9 -82.5q0 -52 12.5 -72.5t32.5 -20.5t46 23.5t51.5 58.5t48 75t36.5 74l12 67q-23 20 -53 27.5t-49 7.5zM374 690q26 0 42 -16.5t16 -41.5q0 -31 -21 -53.5t-51 -22.5
q-28 0 -43.5 17t-15.5 43q0 32 22 53t51 21z" />
    <glyph glyph-name="Gcommaaccent" unicode="&#x122;" horiz-adv-x="688" 
d="M95 274q0 79 22 156t67.5 138t115 99t164.5 38q18 0 43 -2.5t52 -9t54.5 -18t49.5 -28.5q-7 -45 -13.5 -81.5t-13.5 -80.5l-41 -3l-4 58q-4 53 -37.5 73t-82.5 20q-73 0 -123 -33t-81.5 -85t-45.5 -115.5t-14 -124.5q0 -43 9 -81t30 -67t55.5 -46t84.5 -17q23 0 55 4
t61 18l15 134q2 26 -2.5 40.5t-31.5 25.5l-42 14l6 41h231v-47l-22 -6q-34 -11 -38 -55l-21 -194q-74 -32 -132 -43.5t-106 -11.5q-69 0 -119 21.5t-82 60t-47.5 91.5t-15.5 117zM347 -54q29 0 45 -19.5t16 -48.5q0 -45 -35.5 -89t-97.5 -74q-2 4 -7 12.5t-7 12.5
q27 20 39.5 39t20.5 42q-21 3 -33.5 18t-12.5 35q0 29 21 50.5t51 21.5z" />
    <glyph glyph-name="gcommaaccent" unicode="&#x123;" horiz-adv-x="521" 
d="M297 482q28 0 59.5 -2.5t68.5 -9.5q10 14 17 20t18 6q8 0 19 -1.5t21 -5t17.5 -9t7.5 -13.5q0 -2 -0.5 -3.5t-0.5 -3.5q-12 -49 -23.5 -104.5t-21 -112.5l-18.5 -113.5t-16 -107.5q-4 -26 -7.5 -52.5t-8.5 -52.5q-5 -29 -23.5 -57t-47.5 -50t-68.5 -35.5t-86.5 -13.5
q-46 0 -78.5 8t-53.5 20t-30.5 25.5t-9.5 24.5q0 8 4 18.5t13.5 21t26 19.5t40.5 12q6 -20 17.5 -36t27.5 -27.5t34 -18t37 -6.5q27 0 45 10.5t30 29.5t18.5 44t11.5 55l18 118.5t22 118.5h-4q-60 -106 -115.5 -156t-101.5 -50q-39 0 -65.5 36.5t-26.5 120.5q0 36 6 68
q9 47 33 94.5t56 85.5t68.5 61.5t70.5 23.5zM304 420q-33 0 -59 -22.5t-43 -57.5t-26 -77.5t-9 -82.5q0 -52 12.5 -72.5t32.5 -20.5t46 23.5t51.5 58.5t48 75t36.5 74l12 67q-23 20 -53 27.5t-49 7.5zM309 628q0 50 36.5 96t100.5 79l17 -28q-27 -20 -40 -40t-22 -43
q22 -6 33 -21t11 -33q0 -14 -6 -27.5t-16 -24t-24.5 -17t-30.5 -6.5q-29 0 -44 18t-15 47z" />
    <glyph glyph-name="Hcircumflex" unicode="&#x124;" horiz-adv-x="763" 
d="M125 687h278q0 -2 -0.5 -8.5t-1.5 -14t-2 -14t-1 -8.5l-42 -11q-17 -4 -27.5 -9.5t-16.5 -12.5t-8.5 -16t-3.5 -20l-23 -185h299l22 188q3 26 -5.5 37t-28.5 18q-2 1 -7.5 3l-12.5 4.5l-13 4.5t-7 2l7 42h277l-5 -45l-42 -11q-35 -9 -44.5 -22.5t-12.5 -36.5l-57 -459
q-3 -28 5.5 -38t33.5 -17l45 -11l-7 -47h-279q0 5 1.5 20.5t1.5 20.5l43 14q26 8 36 20t15 41l26 213h-298q-3 -20 -6.5 -48.5l-7 -59l-7 -59.5t-5.5 -48q-3 -25 5.5 -37t33.5 -19l43 -12l-7 -46h-279q0 5 2 20.5t2 20.5l44 14q24 8 34.5 19.5t14.5 40.5q5 42 13 103.5
l16.5 127.5l16 128l12.5 104q2 24 -6 35t-28 18l-43 15zM477 833l-87 -53.5l-87 -53.5l-21 30l88 78l89 77h56l72 -76.5l72 -77.5q-8 -7 -16 -16l-14 -16z" />
    <glyph glyph-name="hcircumflex" unicode="&#x125;" horiz-adv-x="557" 
d="M216 733q23 0 34 -13t9 -34q-11 -97 -27.5 -197.5l-31.5 -188.5h5q19 29 45 62t56 60.5t64 46t69 18.5q32 0 50.5 -19.5t20.5 -51.5q0 -27 -6.5 -69.5t-15.5 -91l-18.5 -98t-16.5 -90.5q23 2 43 9t43 19l20 -27q-14 -15 -32 -29t-37.5 -25t-39 -17.5t-36.5 -6.5
q-35 0 -49 13.5t-14 41.5q0 12 4 36.5t10 55l13 64t12.5 65t9 57t3.5 40.5q0 36 -27 36q-17 0 -34.5 -11.5t-33.5 -27.5q-26 -25 -51 -58.5t-43 -62.5l-16 -29t-13 -26q-3 -6 -7 -25t-7.5 -42.5l-7 -47.5t-5.5 -42q-1 -8 -4 -12.5t-14 -6.5q-20 -4 -39.5 -8.5l-35.5 -8.5
l-7 3.5t-5 6.5q3 16 7 40.5l8 50t8 48.5t7 37l19 111.5t17 106.5l17 118l20 146l-86 16l5 32l33.5 9t37.5 8.5t37.5 6t32.5 2.5zM211 844l-87 -56.5t-89 -55.5l-22 30l90 81l90 80h56l71.5 -79.5l70.5 -80.5l-31 -32z" />
    <glyph glyph-name="Hbar" unicode="&#x126;" horiz-adv-x="763" 
d="M125 687h278q0 -2 -0.5 -8.5t-1.5 -14t-2 -14t-1 -8.5l-42 -11q-17 -4 -27.5 -9.5t-16.5 -12.5t-8.5 -16t-3.5 -20l-5 -37h298q2 8 3 20t2 20q3 26 -5.5 37t-28.5 18q-2 1 -7.5 3l-12.5 4.5l-13 4.5t-7 2l7 42h277l-5 -45l-42 -11q-35 -9 -44.5 -22.5t-12.5 -36.5l-5 -36
h57l-6 -45h-56l-47 -378q-3 -28 5.5 -38t33.5 -17l45 -11l-7 -47h-279q0 5 1.5 20.5t1.5 20.5l43 14q26 8 36 20t15 41l26 213h-298q-3 -20 -6.5 -48.5l-7 -59l-7 -59.5t-5.5 -48q-3 -25 5.5 -37t33.5 -19l43 -12l-7 -46h-279q0 5 2 20.5t2 20.5l44 14q24 8 34.5 19.5
t14.5 40.5q4 34 11 84t13.5 103.5l13 103.5t10.5 85h-67l6 45h66l5 42q2 24 -6 35t-28 18l-43 15zM576 388q1 10 2.5 23.5l3 27.5l3 27.5t3.5 24.5h-298l-13 -103h299z" />
    <glyph glyph-name="hbar" unicode="&#x127;" horiz-adv-x="557" 
d="M216 733q23 0 34 -13t9 -34l-14 -112h171l-3 -45h-175q-9 -64 -19.5 -125l-20.5 -115h5q20 28 46 61t56 60.5t63.5 46t68.5 18.5q32 0 50.5 -19t20.5 -52q0 -27 -6 -67.5t-14.5 -86.5l-18 -94t-16.5 -89q23 2 43 9t43 19l20 -27q-14 -15 -32 -29t-37.5 -25t-39 -17.5
t-36.5 -6.5q-35 0 -49 13.5t-14 41.5q0 19 8 60.5l17.5 89l17.5 91t7 65.5q0 36 -27 36q-17 0 -34.5 -11t-33.5 -27q-26 -26 -51 -59t-42 -62q-9 -14 -17 -29.5t-13 -26.5q-3 -6 -6.5 -23t-7 -38t-6.5 -43.5t-5 -40.5q-1 -8 -4 -12.5t-14 -6.5q-20 -4 -39.5 -8.5l-35.5 -8.5
l-7 3.5t-5 6.5q3 16 7 40.5l8 50t8 48.5t7 37l15 88.5l13.5 82.5l13 85l13.5 96h-72l2 45h77l11 85l-86 16l5 32l33.5 9t37.5 8.5t37.5 6t32.5 2.5z" />
    <glyph glyph-name="Itilde" unicode="&#x128;" horiz-adv-x="402" 
d="M423 687l-5 -46l-43 -10q-34 -9 -43 -22t-12 -36l-57 -461q-3 -23 4 -35.5t35 -20.5l44 -11l-8 -45h-278l3 40l45 15q12 4 20.5 8.5t14.5 11t9.5 16t5.5 23.5l57 463q3 23 -4 34.5t-31 19.5l-42 15l7 41h278zM434 862l13.5 -4l13.5 -4q-6 -21 -15.5 -40.5t-23 -34.5
t-32 -24t-42.5 -9q-23 0 -39.5 6.5t-31.5 14.5t-29.5 14.5t-32.5 6.5q-20 0 -36.5 -8.5t-33.5 -37.5l-30 9q4 14 11.5 33t21 36.5t33 29.5t47.5 12q17 0 34.5 -7t35 -15l34 -15t31.5 -7q23 0 38 8.5t33 35.5z" />
    <glyph glyph-name="itilde" unicode="&#x129;" horiz-adv-x="314" 
d="M203 491q62 0 62 -63q0 -10 -4 -36.5t-10.5 -61l-13.5 -74l-14 -76.5l-12.5 -67t-7.5 -46q23 2 44 9.5t44 18.5l18 -26q-14 -15 -31.5 -29.5t-36.5 -25.5t-38.5 -17.5t-35.5 -6.5q-65 0 -65 55q0 12 5.5 47.5t14 86l19.5 111l23 123.5q-18 -1 -37.5 -7.5t-43.5 -17.5
l-19 28q29 32 66.5 53.5t72.5 21.5zM359 686l13.5 -4l13.5 -4q-6 -21 -15.5 -40.5t-23 -34.5t-32 -24t-42.5 -9q-23 0 -39.5 6.5t-31.5 14.5t-29.5 14.5t-32.5 6.5q-20 0 -36.5 -8.5t-33.5 -37.5l-30 9q4 14 11.5 33t21 36.5t33 29.5t47.5 12q17 0 34.5 -7t35 -15l34 -15
t31.5 -7q23 0 38 8.5t33 35.5z" />
    <glyph glyph-name="Imacron" unicode="&#x12a;" horiz-adv-x="402" 
d="M423 687l-5 -46l-43 -10q-34 -9 -43 -22t-12 -36l-57 -461q-3 -23 4 -35.5t35 -20.5l44 -11l-8 -45h-278l3 40l45 15q12 4 20.5 8.5t14.5 11t9.5 16t5.5 23.5l57 463q3 23 -4 34.5t-31 19.5l-42 15l7 41h278zM456 833l-4 -37l-4 -37h-318l8 74h318z" />
    <glyph glyph-name="imacron" unicode="&#x12b;" horiz-adv-x="314" 
d="M203 491q62 0 62 -63q0 -10 -4 -36.5t-10.5 -61l-13.5 -74l-14 -76.5l-12.5 -67t-7.5 -46q23 2 44 9.5t44 18.5l18 -26q-14 -15 -31.5 -29.5t-36.5 -25.5t-38.5 -17.5t-35.5 -6.5q-65 0 -65 55q0 12 5.5 47.5t14 86l19.5 111l23 123.5q-18 -1 -37.5 -7.5t-43.5 -17.5
l-19 28q29 32 66.5 53.5t72.5 21.5zM370 662q-2 -18 -4.5 -34.5t-4.5 -34.5h-318l4 34.5l4 34.5h319z" />
    <glyph glyph-name="Ibreve" unicode="&#x12c;" horiz-adv-x="415" 
d="M423 687l-5 -46l-43 -10q-34 -9 -43 -22t-12 -36l-57 -461q-3 -23 4 -35.5t35 -20.5l44 -11l-8 -45h-278l3 40l45 15q12 4 20.5 8.5t14.5 11t9.5 16t5.5 23.5l57 463q3 23 -4 34.5t-31 19.5l-42 15l7 41h278zM278 746q-50 0 -87 32t-62 83l73 36q17 -38 42.5 -61.5
t46.5 -23.5q23 0 56 17t83 66l31 -28q-45 -63 -94 -92t-89 -29z" />
    <glyph glyph-name="ibreve" unicode="&#x12d;" horiz-adv-x="314" 
d="M203 491q62 0 62 -63q0 -10 -4 -36.5t-10.5 -61l-13.5 -74l-14 -76.5l-12.5 -67t-7.5 -46q23 2 44 9.5t44 18.5l18 -26q-14 -15 -31.5 -29.5t-36.5 -25.5t-38.5 -17.5t-35.5 -6.5q-65 0 -65 55q0 12 5.5 47.5t14 86l19.5 111l23 123.5q-18 -1 -37.5 -7.5t-43.5 -17.5
l-19 28q29 32 66.5 53.5t72.5 21.5zM207 557q-50 0 -87 32t-62 83l73 36q17 -38 42.5 -61.5t46.5 -23.5q23 0 56 17t83 66l31 -28q-45 -63 -94 -92t-89 -29z" />
    <glyph glyph-name="Iogonek" unicode="&#x12e;" horiz-adv-x="402" 
d="M423 687l-5 -46l-43 -10q-34 -9 -43 -22t-12 -36l-57 -461q-3 -23 4 -35.5t35 -20.5l44 -11l-8 -45h-128q-24 -29 -36 -57.5t-12 -51.5q0 -29 21 -38.5t47 -9.5q15 0 31 2.5t29 5.5l5 -31q-27 -14 -57.5 -21.5t-58.5 -7.5q-51 0 -73 19.5t-22 48.5q0 24 17.5 63t62.5 78
h-104l3 40l45 15q12 4 20.5 8.5t14.5 11t9.5 16t5.5 23.5l57 463q3 23 -4 34.5t-31 19.5l-42 15l7 41h278z" />
    <glyph glyph-name="iogonek" unicode="&#x12f;" horiz-adv-x="314" 
d="M203 491q62 0 62 -63q0 -10 -4 -36.5t-10.5 -61l-13.5 -74l-14 -76.5l-12.5 -67t-7.5 -46q23 2 44 9.5t44 18.5l18 -26q-23 -26 -55 -47t-63 -28q-21 -27 -31 -53.5t-10 -48.5q0 -29 21 -38.5t47 -9.5q15 0 31 2.5t29 5.5l5 -31q-27 -14 -57.5 -21.5t-58.5 -7.5
q-51 0 -73 19.5t-22 48.5q0 23 15.5 58.5t55.5 73.5q-41 9 -41 53q0 15 5.5 51t14 85.5l19.5 109l23 122.5q-18 -1 -37.5 -7.5t-43.5 -17.5l-19 28q29 32 66.5 53.5t72.5 21.5zM233 719q26 0 42 -17t16 -44q0 -32 -19 -53.5t-48 -21.5q-27 0 -44 16.5t-17 42.5q0 32 19 54.5
t51 22.5z" />
    <glyph glyph-name="Idotaccent" unicode="&#x130;" horiz-adv-x="402" 
d="M423 687l-5 -46l-43 -10q-34 -9 -43 -22t-12 -36l-57 -461q-3 -23 4 -35.5t35 -20.5l44 -11l-8 -45h-278l3 40l45 15q12 4 20.5 8.5t14.5 11t9.5 16t5.5 23.5l57 463q3 23 -4 34.5t-31 19.5l-42 15l7 41h278zM304 884q26 0 42 -16.5t16 -41.5q0 -31 -21 -53.5t-51 -22.5
q-28 0 -43.5 17t-15.5 43q0 32 22 53t51 21z" />
    <glyph glyph-name="IJ" unicode="&#x132;" horiz-adv-x="774" 
d="M594 578q4 26 -3.5 35.5t-30.5 17.5l-47 16l8 40h283q0 -2 -0.5 -8.5t-1.5 -14t-2 -14t-1 -8.5l-44 -11q-34 -8 -43.5 -21.5t-12.5 -36.5l-57 -467q-10 -74 -32 -128.5t-57.5 -93t-85 -62t-113.5 -35.5l-11 57q51 18 85 41.5t56 53t33.5 66t16.5 80.5zM423 687l-5 -46
l-43 -10q-34 -9 -43 -22t-12 -36l-57 -461q-3 -23 4 -35.5t35 -20.5l44 -11l-8 -45h-278l3 40l45 15q12 4 20.5 8.5t14.5 11t9.5 16t5.5 23.5l57 463q3 23 -4 34.5t-31 19.5l-42 15l7 41h278z" />
    <glyph glyph-name="ij" unicode="&#x133;" horiz-adv-x="549" 
d="M203 491q62 0 62 -63q0 -10 -4 -36.5t-10.5 -61l-13.5 -74l-14 -76.5l-12.5 -67t-7.5 -46q23 2 44 9.5t44 18.5l18 -26q-14 -15 -31.5 -29.5t-36.5 -25.5t-38.5 -17.5t-35.5 -6.5q-65 0 -65 55q0 15 5.5 51t14 85.5l19.5 109l23 122.5q-18 -1 -37.5 -7.5t-43.5 -17.5
l-19 28q29 32 66.5 53.5t72.5 21.5zM233 719q26 0 42 -17t16 -44q0 -32 -19 -53.5t-48 -21.5q-27 0 -44 16.5t-17 42.5q0 32 19 54.5t51 22.5zM463 491q63 0 63 -57q0 -12 -4.5 -42.5t-13 -81.5l-21.5 -124.5l-29 -172.5q-9 -54 -27 -101t-45.5 -81.5t-65 -53.5t-85.5 -18
q-40 1 -66 9.5t-41 21.5t-20 27t-3 25q2 17 20.5 30.5t58.5 20.5q5 -21 14.5 -35.5t21 -24t24 -13.5t24.5 -4q49 0 67 75q2 9 7 37l12.5 69.5l16.5 93l18 106.5l18 110l17 105q-20 -1 -39 -7.5t-44 -18.5l-20 28q29 32 67.5 54.5t74.5 22.5zM500 719q30 0 46.5 -17.5
t17.5 -44.5q-1 -31 -18.5 -52.5t-46.5 -21.5q-32 0 -49.5 16.5t-18.5 42.5q-1 32 18.5 54.5t50.5 22.5z" />
    <glyph glyph-name="Jcircumflex" unicode="&#x134;" horiz-adv-x="405" 
d="M225 579q4 26 -3.5 35.5t-30.5 17.5l-47 16l8 40h283q0 -2 -0.5 -8.5t-1.5 -14t-2 -14t-1 -8.5l-44 -11q-34 -8 -43.5 -21.5t-12.5 -36.5l-57 -467q-10 -74 -32 -128.5t-57.5 -93t-85 -62t-113.5 -35.5l-11 57q51 18 85 41.5t56 53t33.5 66t16.5 80.5zM298 835l-87 -53.5
l-87 -53.5l-21 30l88 78l89 77h56l72 -76.5l72 -77.5q-8 -7 -16 -16l-14 -16z" />
    <glyph glyph-name="jcircumflex" unicode="&#x135;" horiz-adv-x="288" 
d="M202 491q63 0 63 -57q0 -12 -4.5 -42.5t-13 -81.5l-21.5 -124.5l-29 -172.5q-9 -54 -27 -101t-45.5 -81.5t-65 -53.5t-85.5 -18q-40 1 -66 9.5t-41 21.5t-20 27t-3 25q2 17 20.5 30.5t58.5 20.5q5 -21 14.5 -35.5t21 -24t24 -13.5t24.5 -4q49 0 67 75q2 9 7 37l12.5 69.5
l16.5 93l18 106.5l18 110l17 105q-20 -1 -39 -7.5t-44 -18.5l-20 28q29 32 67.5 54.5t74.5 22.5zM225 655l-86.5 -56.5t-88.5 -55.5q-5 7 -11 14.5t-11 15.5l89.5 81l90.5 80h56l70.5 -79.5l70.5 -80.5l-30 -32z" />
    <glyph glyph-name="Kcommaaccent" unicode="&#x136;" horiz-adv-x="682" 
d="M413 687q-1 -12 -2.5 -23.5t-2.5 -22.5l-42 -10q-34 -8 -43 -22t-13 -36l-56 -459q0 -23 5.5 -35.5t33.5 -20.5l43 -12l-7 -46h-279l2 20t1 20l45 15q25 8 36 19.5t14 39.5l57 463q7 39 -35 54l-42 15q2 10 3.5 20t3.5 21h278zM308 355l222 230q4 4 8 10.5t4.5 13t-3 12
t-13.5 9.5l-32 12l8 46h228q-2 -12 -3 -23.5t-3 -23.5q-28 -12 -52 -26.5t-46.5 -32t-44 -37l-43.5 -40.5l-136 -126l92.5 -149t80.5 -123q17 -24 35 -39.5t48 -29.5l-6 -48q-24 -7 -51 -7t-48 8.5t-37.5 22t-30 31.5t-25.5 38l-154 256zM394 -34q29 0 45 -19.5t16 -48.5
q0 -45 -35.5 -89t-97.5 -74q-2 4 -7 12.5t-7 12.5q27 20 39.5 39t20.5 42q-21 3 -33.5 18t-12.5 35q0 29 21 50.5t51 21.5z" />
    <glyph glyph-name="kcommaaccent" unicode="&#x137;" horiz-adv-x="516" 
d="M217 733q45 0 45 -40q0 -11 -6 -52l-15 -98l-20 -124l-21 -130l3 -1q23 37 52.5 73t62 64.5t65.5 46.5t62 18q33 0 52.5 -15t20.5 -41q0 -11 -8.5 -29.5t-36.5 -32.5q-11 21 -28.5 29.5t-33.5 8.5q-32 0 -61 -24.5t-58 -56.5q14 -41 36 -84.5t44.5 -81.5t43 -65.5
t31.5 -35.5q19 7 34.5 16t31.5 21l20 -22q-20 -29 -38.5 -46.5t-35.5 -27t-31.5 -13t-25.5 -3.5q-18 0 -37.5 18.5t-40.5 52.5t-44.5 83l-50.5 110q-17 -21 -28.5 -42t-19.5 -53q-2 -8 -4 -23.5t-5 -33.5t-5.5 -36.5l-4.5 -32.5q-2 -8 -5 -13t-16 -7l-72 -14l-6 3t-6 7
l50.5 320.5t49.5 332.5l-85 16l3 32l33.5 9t38 8.5t38 6t32.5 2.5zM236 -48q29 0 45 -19.5t16 -48.5q0 -45 -35.5 -89t-97.5 -74q-2 4 -7 12.5t-7 12.5q27 20 39.5 39t20.5 42q-21 3 -33.5 18t-12.5 35q0 29 21 50.5t51 21.5z" />
    <glyph glyph-name="kgreenlandic" unicode="&#x138;" horiz-adv-x="545" 
d="M241 291q23 37 52 72t60.5 62t64 43.5t61.5 16.5q33 0 52.5 -15t20.5 -41q0 -11 -8.5 -29.5t-36.5 -32.5q-11 21 -28.5 29.5t-33.5 8.5q-32 0 -61 -24.5t-58 -56.5q14 -41 36 -84.5t44.5 -81.5t43 -65.5t31.5 -35.5q19 7 34.5 16t31.5 21l20 -22q-20 -29 -38.5 -46.5
t-35.5 -27t-31.5 -13t-25.5 -3.5q-18 0 -37.5 18.5t-40.5 52.5t-44.5 83l-50.5 110q-17 -21 -28.5 -42t-19.5 -53q-2 -8 -4 -23.5t-5 -33.5t-5.5 -36.5l-4.5 -32.5q-2 -8 -5 -13t-16 -7l-72 -14l-6 3t-6 7q27 158 42.5 259t22.5 152q-17 -2 -35 -8.5t-42 -17.5l-19 28
q29 32 66.5 53.5t72.5 21.5t48.5 -14.5t13.5 -43.5q0 -10 -2 -27t-5.5 -36.5t-7.5 -39.5t-8 -36z" />
    <glyph glyph-name="Lacute" unicode="&#x139;" horiz-adv-x="603" 
d="M205 577q0 26 -8 37t-26 17l-42 15l7 41h277l-2 -23t-3 -23l-42 -10q-26 -8 -38.5 -20t-16.5 -38l-56 -451q-5 -27 7 -41t41 -11q54 1 93 1.5t65 0.5q29 0 44 11.5t31 38.5l51 87l33 -8l-24.5 -96.5t-23.5 -96.5l-9 -8q-37 0 -67.5 0.5l-60 1l-61.5 1t-71 0.5h-56.5
t-65 -0.5l-67 -1t-61.5 -1.5q0 10 0.5 21t0.5 22l46 14q18 6 31 17t17 37zM388 902l37 -80l-44.5 -20.5l-57.5 -25.5l-57.5 -25.5t-44.5 -19.5q-2 3 -5 9.5t-6.5 13l-7 13t-4.5 9.5z" />
    <glyph glyph-name="lacute" unicode="&#x13a;" horiz-adv-x="302" 
d="M234 733q45 0 45 -41q0 -10 -5.5 -49l-14 -95l-19.5 -122.5l-21.5 -132.5l-20.5 -125.5t-16 -100.5q23 2 44 8.5t44 18.5l18 -26q-14 -15 -32 -29.5t-37 -25t-38.5 -17t-35.5 -6.5q-65 0 -65 56q0 8 1 17t3 20q5 28 12.5 74.5l16.5 102.5l19 116l18.5 115l15 99.5
t9.5 68.5q-8 1 -19 3.5t-23.5 5t-24 4.5t-18.5 3l3 32l33.5 9t38 8.5t37.5 6t32 2.5zM342 918l37 -80l-44.5 -20.5l-57.5 -25.5l-57.5 -25.5t-44.5 -19.5q-2 3 -5 9.5t-6.5 13l-7 13t-4.5 9.5z" />
    <glyph glyph-name="Lcommaaccent" unicode="&#x13b;" horiz-adv-x="603" 
d="M205 577q0 26 -8 37t-26 17l-42 15l7 41h277l-2 -23t-3 -23l-42 -10q-26 -8 -38.5 -20t-16.5 -38l-56 -451q-5 -27 7 -41t41 -11q54 1 93 1.5t65 0.5q29 0 44 11.5t31 38.5l51 87l33 -8l-24.5 -96.5t-23.5 -96.5l-9 -8q-37 0 -67.5 0.5l-60 1l-61.5 1t-71 0.5h-56.5
t-65 -0.5l-67 -1t-61.5 -1.5q0 10 0.5 21t0.5 22l46 14q18 6 31 17t17 37zM321 -46q29 0 45 -19.5t16 -48.5q0 -45 -35.5 -89t-97.5 -74q-2 4 -7 12.5t-7 12.5q27 20 39.5 39t20.5 42q-21 3 -33.5 18t-12.5 35q0 29 21 50.5t51 21.5z" />
    <glyph glyph-name="lcommaaccent" unicode="&#x13c;" horiz-adv-x="302" 
d="M234 733q45 0 45 -41q0 -10 -5.5 -49l-14 -95l-19.5 -122.5l-21.5 -132.5l-20.5 -125.5t-16 -100.5q23 2 44 8.5t44 18.5l18 -26q-14 -15 -32 -29.5t-37 -25t-38.5 -17t-35.5 -6.5q-65 0 -65 56q0 8 1 17t3 20q5 28 12.5 74.5l16.5 102.5l19 116l18.5 115l15 99.5
t9.5 68.5q-8 1 -19 3.5t-23.5 5t-24 4.5t-18.5 3l3 32l33.5 9t38 8.5t37.5 6t32 2.5zM123 -48q29 0 45 -19.5t16 -48.5q0 -45 -35.5 -89t-97.5 -74q-2 4 -7 12.5t-7 12.5q27 20 39.5 39t20.5 42q-21 3 -33.5 18t-12.5 35q0 29 21 50.5t51 21.5z" />
    <glyph glyph-name="Lcaron" unicode="&#x13d;" horiz-adv-x="603" 
d="M205 577q0 26 -8 37t-26 17l-42 15l7 41h277l-2 -23t-3 -23l-42 -10q-26 -8 -38.5 -20t-16.5 -38l-56 -451q-5 -27 7 -41t41 -11q54 1 93 1.5t65 0.5q29 0 44 11.5t31 38.5l51 87l33 -8l-24.5 -96.5t-23.5 -96.5l-9 -8q-37 0 -67.5 0.5l-60 1l-61.5 1t-71 0.5h-56.5
t-65 -0.5l-67 -1t-61.5 -1.5q0 10 0.5 21t0.5 22l46 14q18 6 31 17t17 37zM532 689q29 0 45 -19.5t16 -48.5q0 -45 -35.5 -89t-97.5 -74q-2 4 -7 12.5t-7 12.5q27 20 39.5 39t20.5 42q-21 3 -33.5 18t-12.5 35q0 29 21 50.5t51 21.5z" />
    <glyph glyph-name="lcaron" unicode="&#x13e;" horiz-adv-x="437" 
d="M412 733q29 0 45 -19.5t16 -48.5q0 -45 -35.5 -89t-97.5 -74q-2 4 -7 12.5t-7 12.5q27 20 39.5 39t20.5 42q-21 3 -33.5 18t-12.5 35q0 29 21 50.5t51 21.5zM234 733q45 0 45 -41q0 -10 -5.5 -49l-14 -95l-19.5 -122.5l-21.5 -132.5l-20.5 -125.5t-16 -100.5q23 2 44 8.5
t44 18.5l18 -26q-14 -15 -32 -29.5t-37 -25t-38.5 -17t-35.5 -6.5q-65 0 -65 56q0 8 1 17t3 20q5 28 12.5 74.5l16.5 102.5l19 116l18.5 115l15 99.5t9.5 68.5q-8 1 -19 3.5t-23.5 5t-24 4.5t-18.5 3l3 32l33.5 9t38 8.5t37.5 6t32 2.5z" />
    <glyph glyph-name="Ldot" unicode="&#x13f;" horiz-adv-x="603" 
d="M205 577q0 26 -8 37t-26 17l-42 15l7 41h277l-2 -23t-3 -23l-42 -10q-26 -8 -38.5 -20t-16.5 -38l-56 -451q-5 -27 7 -41t41 -11q54 1 93 1.5t65 0.5q29 0 44 11.5t31 38.5l51 87l33 -8l-24.5 -96.5t-23.5 -96.5l-9 -8q-37 0 -67.5 0.5l-60 1l-61.5 1t-71 0.5h-56.5
t-65 -0.5l-67 -1t-61.5 -1.5q0 10 0.5 21t0.5 22l46 14q18 6 31 17t17 37zM456 436q26 0 42 -16.5t16 -41.5q0 -31 -21 -53.5t-51 -22.5q-28 0 -43.5 17t-15.5 43q0 32 22 53t51 21z" />
    <glyph glyph-name="ldot" unicode="&#x140;" horiz-adv-x="387" 
d="M371 452q26 0 42 -16.5t16 -41.5q0 -31 -21 -53.5t-51 -22.5q-28 0 -43.5 17t-15.5 43q0 32 22 53t51 21zM234 733q45 0 45 -41q0 -10 -5.5 -49l-14 -95l-19.5 -122.5l-21.5 -132.5l-20.5 -125.5t-16 -100.5q23 2 44 8.5t44 18.5l18 -26q-14 -15 -32 -29.5t-37 -25
t-38.5 -17t-35.5 -6.5q-65 0 -65 56q0 8 1 17t3 20q5 28 12.5 74.5l16.5 102.5l19 116l18.5 115l15 99.5t9.5 68.5q-8 1 -19 3.5t-23.5 5t-24 4.5t-18.5 3l3 32l33.5 9t38 8.5t37.5 6t32 2.5z" />
    <glyph glyph-name="Lslash" unicode="&#x141;" horiz-adv-x="603" 
d="M164 248l-103 -60l-10 21l-10 21l131 76l33 271q0 26 -8 37t-26 17l-42 15l7 41h277l-2 -23t-3 -23l-42 -10q-26 -8 -38.5 -20t-16.5 -38l-25 -201l134 78l11.5 -21t10.5 -21l-164 -95l-23 -191q-5 -27 7 -41t41 -11q54 1 93 1.5t65 0.5q29 0 44 11.5t31 38.5l51 87
l33 -8l-24.5 -96.5t-23.5 -96.5l-9 -8q-37 0 -67.5 0.5l-60 1l-61.5 1t-71 0.5h-56.5t-65 -0.5l-67 -1t-61.5 -1.5q0 10 0.5 21t0.5 22l46 14q18 6 31 17t17 37z" />
    <glyph glyph-name="lslash" unicode="&#x142;" horiz-adv-x="302" 
d="M234 733q45 0 45 -41q0 -9 -4 -38l-10 -71t-14.5 -94l-17.5 -107l64 37t29 17l4 -8t7 -12.5t7 -12.5t4 -9l-124 -71l-23.5 -142.5t-18.5 -113.5q23 2 44 8.5t44 18.5l18 -26q-14 -15 -32 -29.5t-37 -25t-38.5 -17t-35.5 -6.5q-65 0 -65 56q0 8 1 17t3 20l29 177l-84 -48
q-1 3 -3.5 9t-6 12.5l-6.5 12.5l-4 8l114 64l16.5 102.5l15.5 97.5t12 83l8 58q-8 1 -19 3.5t-23.5 5t-24 4.5t-18.5 3l3 32l33.5 9t38 8.5t37.5 6t32 2.5z" />
    <glyph glyph-name="Nacute" unicode="&#x143;" horiz-adv-x="803" 
d="M526 347l48.5 -81l47.5 -80l42 369q5 32 -5 50t-38 26q-10 3 -19.5 6.5t-19.5 5.5l7 44h259l-5 -46q-11 -2 -21.5 -4.5t-21.5 -5.5q-15 -4 -25.5 -8.5t-18 -13.5t-13 -23.5t-8.5 -37.5l-76 -548l-54 -13l-107 181.5l-108 181.5l-58 100.5l-58 100.5q-2 0 -3.5 -0.5
t-3.5 -0.5l-23.5 -211l-23.5 -212q-5 -32 6.5 -48.5t37.5 -22.5l44 -10l-7 -46h-266l3 42l50 13q25 7 40 20.5t20 51.5l62 434q4 27 -5 45t-34 26q-11 3 -23 7t-23 7l9 42q24 0 51.5 -0.5t55 -0.5t52.5 0.5t43 1.5q6 -17 13.5 -33t14.5 -28zM590 902l37 -80l-44.5 -20.5
l-57.5 -25.5l-57.5 -25.5t-44.5 -19.5q-2 3 -5 9.5t-6.5 13l-7 13t-4.5 9.5z" />
    <glyph glyph-name="nacute" unicode="&#x144;" horiz-adv-x="606" 
d="M500 67q21 2 41.5 8.5t44.5 18.5l19 -25q-13 -15 -30 -29.5t-36.5 -25.5t-39.5 -17.5t-38 -6.5q-42 0 -53 22.5t-7 58.5q5 33 13.5 75.5l16.5 84.5t13.5 77.5t5.5 55.5q-2 35 -28 35q-17 0 -34.5 -11.5t-33.5 -27.5q-27 -26 -50.5 -58t-42.5 -63q-9 -15 -16 -29l-13 -26
q-3 -6 -7 -26.5l-8.5 -45l-8.5 -48t-5 -35.5q-2 -10 -5 -14.5t-14 -6.5l-38.5 -8t-34.5 -9q-5 2 -8.5 4t-5.5 7l20 107.5l17 97.5l15.5 97.5t15.5 108.5q-33 -1 -81 -26l-23 28q29 32 66.5 54t73.5 22q37 0 51 -15t14 -42q0 -26 -5 -62t-12 -74h3l46 61.5t56 61.5t63 47
t69 19q32 0 50.5 -19.5t19.5 -52.5q1 -24 -4 -60.5t-13.5 -82l-18.5 -98zM435 752l32 -30.5t33 -29.5l-84 -78.5l-84 -78.5q-8 8 -19 17t-19 17z" />
    <glyph glyph-name="Ncommaaccent" unicode="&#x145;" horiz-adv-x="803" 
d="M526 347l48.5 -81l47.5 -80l42 369q5 32 -5 50t-38 26q-10 3 -19.5 6.5t-19.5 5.5l7 44h259l-5 -46q-11 -2 -21.5 -4.5t-21.5 -5.5q-15 -4 -25.5 -8.5t-18 -13.5t-13 -23.5t-8.5 -37.5l-76 -548l-54 -13l-107 181.5l-108 181.5l-58 100.5l-58 100.5q-2 0 -3.5 -0.5
t-3.5 -0.5l-23.5 -211l-23.5 -212q-5 -32 6.5 -48.5t37.5 -22.5l44 -10l-7 -46h-266l3 42l50 13q25 7 40 20.5t20 51.5l62 434q4 27 -5 45t-34 26q-11 3 -23 7t-23 7l9 42q24 0 51.5 -0.5t55 -0.5t52.5 0.5t43 1.5q6 -17 13.5 -33t14.5 -28zM424 -28q29 0 45 -19.5t16 -48.5
q0 -45 -35.5 -89t-97.5 -74q-2 4 -7 12.5t-7 12.5q27 20 39.5 39t20.5 42q-21 3 -33.5 18t-12.5 35q0 29 21 50.5t51 21.5z" />
    <glyph glyph-name="ncommaaccent" unicode="&#x146;" horiz-adv-x="606" 
d="M500 67q21 2 41.5 8.5t44.5 18.5l19 -25q-13 -15 -30 -29.5t-36.5 -25.5t-39.5 -17.5t-38 -6.5q-42 0 -53 22.5t-7 58.5q5 33 13.5 75.5l16.5 84.5t13.5 77.5t5.5 55.5q-2 35 -28 35q-17 0 -34.5 -11.5t-33.5 -27.5q-27 -26 -50.5 -58t-42.5 -63q-9 -15 -16 -29l-13 -26
q-3 -6 -7 -26.5l-8.5 -45l-8.5 -48t-5 -35.5q-2 -10 -5 -14.5t-14 -6.5l-38.5 -8t-34.5 -9q-5 2 -8.5 4t-5.5 7l20 107.5l17 97.5l15.5 97.5t15.5 108.5q-33 -1 -81 -26l-23 28q29 32 66.5 54t73.5 22q37 0 51 -15t14 -42q0 -26 -5 -62t-12 -74h3l46 61.5t56 61.5t63 47
t69 19q32 0 50.5 -19.5t19.5 -52.5q1 -24 -4 -60.5t-13.5 -82l-18.5 -98zM297 -46q29 0 45 -19.5t16 -48.5q0 -45 -35.5 -89t-97.5 -74q-2 4 -7 12.5t-7 12.5q27 20 39.5 39t20.5 42q-21 3 -33.5 18t-12.5 35q0 29 21 50.5t51 21.5z" />
    <glyph glyph-name="Ncaron" unicode="&#x147;" horiz-adv-x="803" 
d="M526 347l48.5 -81l47.5 -80l42 369q5 32 -5 50t-38 26q-10 3 -19.5 6.5t-19.5 5.5l7 44h259l-5 -46q-11 -2 -21.5 -4.5t-21.5 -5.5q-15 -4 -25.5 -8.5t-18 -13.5t-13 -23.5t-8.5 -37.5l-76 -548l-54 -13l-107 181.5l-108 181.5l-58 100.5l-58 100.5q-2 0 -3.5 -0.5
t-3.5 -0.5l-23.5 -211l-23.5 -212q-5 -32 6.5 -48.5t37.5 -22.5l44 -10l-7 -46h-266l3 42l50 13q25 7 40 20.5t20 51.5l62 434q4 27 -5 45t-34 26q-11 3 -23 7t-23 7l9 42q24 0 51.5 -0.5t55 -0.5t52.5 0.5t43 1.5q6 -17 13.5 -33t14.5 -28zM659 917q6 -8 11 -15.5l10 -15.5
l-178 -154h-55l-72.5 77l-71.5 77q4 5 15 16l15 15l32.5 -22l42.5 -29.5l42.5 -30l32.5 -23.5z" />
    <glyph glyph-name="ncaron" unicode="&#x148;" horiz-adv-x="606" 
d="M500 67q21 2 41.5 8.5t44.5 18.5l19 -25q-13 -15 -30 -29.5t-36.5 -25.5t-39.5 -17.5t-38 -6.5q-42 0 -53 22.5t-7 58.5q5 33 13.5 75.5l16.5 84.5t13.5 77.5t5.5 55.5q-2 35 -28 35q-17 0 -34.5 -11.5t-33.5 -27.5q-27 -26 -50.5 -58t-42.5 -63q-9 -15 -16 -29l-13 -26
q-3 -6 -7 -26.5l-8.5 -45l-8.5 -48t-5 -35.5q-2 -10 -5 -14.5t-14 -6.5l-38.5 -8t-34.5 -9q-5 2 -8.5 4t-5.5 7l20 107.5l17 97.5l15.5 97.5t15.5 108.5q-33 -1 -81 -26l-23 28q29 32 66.5 54t73.5 22q37 0 51 -15t14 -42q0 -26 -5 -62t-12 -74h3l46 61.5t56 61.5t63 47
t69 19q32 0 50.5 -19.5t19.5 -52.5q1 -24 -4 -60.5t-13.5 -82l-18.5 -98zM543 736q6 -7 11 -15l10 -16l-178 -160h-56l-143 160l15 15.5t14 16.5l32.5 -24.5l42 -32l42 -32l32.5 -24.5z" />
    <glyph glyph-name="napostrophe" unicode="&#x149;" horiz-adv-x="696" 
d="M590 67q21 2 41.5 8.5t44.5 18.5l19 -25q-13 -15 -30 -29.5t-36.5 -25.5t-39.5 -17.5t-38 -6.5q-42 0 -53 22.5t-7 58.5q5 33 13.5 75.5l16.5 84.5t13.5 77.5t5.5 55.5q-2 35 -28 35q-17 0 -34.5 -11.5t-33.5 -27.5q-27 -26 -50.5 -58t-42.5 -63q-9 -15 -16 -29l-13 -26
q-3 -6 -7 -26.5l-8.5 -45l-8.5 -48t-5 -35.5q-2 -10 -5 -14.5t-14 -6.5l-38.5 -8t-34.5 -9q-5 2 -8.5 4t-5.5 7l20 107.5l17 97.5l15.5 97.5t15.5 108.5q-33 -1 -81 -26l-23 28q29 32 66.5 54t73.5 22q37 0 51 -15t14 -42q0 -26 -5 -62t-12 -74h3l46 61.5t56 61.5t63 47
t69 19q32 0 50.5 -19.5t19.5 -52.5q1 -24 -4 -60.5t-13.5 -82l-18.5 -98zM118 698q29 0 45 -19.5t16 -48.5q0 -45 -35.5 -89t-97.5 -74q-2 4 -7 12.5t-7 12.5q27 20 39.5 39t20.5 42q-21 3 -33.5 18t-12.5 35q0 29 21 50.5t51 21.5z" />
    <glyph glyph-name="Eng" unicode="&#x14a;" horiz-adv-x="803" 
d="M526 347l48.5 -81l47.5 -80l42 369q5 32 -5 50t-38 26q-10 3 -19.5 6.5t-19.5 5.5l7 44h259l-5 -46q-11 -2 -21.5 -4.5t-21.5 -5.5q-15 -4 -25.5 -8.5t-18 -13.5t-13 -23.5t-8.5 -37.5l-20.5 -147.5l-15 -108l-11.5 -82.5l-10 -71l-10 -73.5l-12 -90.5q-4 -35 -14.5 -64
t-29 -50t-47.5 -33t-71 -12q-12 0 -26.5 2.5t-29.5 7t-29 10.5t-24 14l10 22.5t11 22.5q23 -8 45.5 -10.5t36.5 -2.5q25 0 43 8t29 21.5t16.5 29.5t7.5 33l4 40l-98 168.5l-100 167.5l-58 100.5l-58 100.5q-2 0 -3.5 -0.5t-3.5 -0.5l-23.5 -211l-23.5 -212q-5 -32 6.5 -48.5
t37.5 -22.5l44 -10l-7 -46h-266l3 42l50 13q25 7 40 20.5t20 51.5l62 434q4 27 -5 45t-34 26q-11 3 -23 7t-23 7l9 42q24 0 51.5 -0.5t55 -0.5t52.5 0.5t43 1.5q6 -17 13.5 -33t14.5 -28l162 -281v0z" />
    <glyph glyph-name="eng" unicode="&#x14b;" horiz-adv-x="576" 
d="M465 487q40 0 59.5 -30t26.5 -74t4.5 -94t-6.5 -90q-6 -68 -21 -135.5t-41 -121t-66 -86.5t-96 -33q-22 0 -50.5 7t-53.5 21l17 44q16 -5 34.5 -7.5t33.5 -2.5q34 0 59 24t42 65.5t27.5 96t16.5 115.5q3 36 5.5 74t0 68.5t-12 50.5t-30.5 20q-25 0 -52 -24t-51.5 -58
t-45.5 -71t-34 -63q-3 -5 -7 -25t-8 -45l-8 -48.5t-5 -36.5q-1 -10 -4.5 -14.5t-15.5 -6.5q-16 0 -37 -5.5l-36 -9.5q-4 1 -8 3.5t-5 6.5l20 107t17 97l15.5 97.5t15.5 108.5q-17 -1 -38 -7.5t-44 -17.5l-22 28q29 32 66 53.5t74 21.5q38 0 51 -15.5t13 -41.5
q0 -25 -5 -61.5t-12 -73.5h3l45 62.5t51 61.5t56.5 46.5t61.5 18.5z" />
    <glyph glyph-name="Omacron" unicode="&#x14c;" horiz-adv-x="709" 
d="M460 703q57 0 101 -20t74 -56t46 -85.5t17 -108.5q0 -98 -25.5 -180t-73 -141.5t-115 -93t-152.5 -33.5q-54 0 -98 20t-75 56t-48 86.5t-18 112.5q0 102 29 184t79.5 139.5t117 88.5t141.5 31zM430 636q-47 0 -87.5 -28.5t-70.5 -76.5t-47 -111.5t-17 -132.5
q0 -54 9 -97.5t28 -74t49.5 -47t72.5 -16.5q53 0 94 31.5t68.5 83t42 116.5t14.5 131q0 48 -9.5 88.5t-28.5 70t-48.5 46.5t-69.5 17zM619 833l-4 -37l-4 -37h-318l8 74h318z" />
    <glyph glyph-name="omacron" unicode="&#x14d;" horiz-adv-x="520" 
d="M344 489q41 0 72.5 -13.5t52.5 -38t32 -58t11 -73.5q0 -69 -20 -126.5t-57 -99.5t-88.5 -65.5t-114.5 -23.5q-80 0 -124 50.5t-44 136.5q0 71 23 128.5t62 98t89.5 62.5t105.5 22zM314 435q-30 0 -55 -18.5t-43.5 -49.5t-29 -71.5t-11.5 -85.5q0 -36 4 -66.5t14 -53
t27 -35t43 -12.5q35 0 61.5 22.5t44 58.5t26.5 81.5t9 90.5q0 63 -23 101t-67 38zM530 643q-2 -18 -4.5 -34.5t-4.5 -34.5h-318l4 34.5l4 34.5h319z" />
    <glyph glyph-name="Obreve" unicode="&#x14e;" horiz-adv-x="709" 
d="M460 703q57 0 101 -20t74 -56t46 -85.5t17 -108.5q0 -98 -25.5 -180t-73 -141.5t-115 -93t-152.5 -33.5q-54 0 -98 20t-75 56t-48 86.5t-18 112.5q0 102 29 184t79.5 139.5t117 88.5t141.5 31zM430 636q-47 0 -87.5 -28.5t-70.5 -76.5t-47 -111.5t-17 -132.5
q0 -54 9 -97.5t28 -74t49.5 -47t72.5 -16.5q53 0 94 31.5t68.5 83t42 116.5t14.5 131q0 48 -9.5 88.5t-28.5 70t-48.5 46.5t-69.5 17zM313 864l68 34q17 -38 43 -61.5t47 -23.5t53.5 16t84.5 66q8 -6 16 -14t16 -14q-45 -63 -94 -91.5t-89 -28.5q-26 0 -49 9.5t-41.5 25
t-33 35t-23.5 38.5z" />
    <glyph glyph-name="obreve" unicode="&#x14f;" horiz-adv-x="520" 
d="M344 489q41 0 72.5 -13.5t52.5 -38t32 -58t11 -73.5q0 -69 -20 -126.5t-57 -99.5t-88.5 -65.5t-114.5 -23.5q-80 0 -124 50.5t-44 136.5q0 71 23 128.5t62 98t89.5 62.5t105.5 22zM314 435q-30 0 -55 -18.5t-43.5 -49.5t-29 -71.5t-11.5 -85.5q0 -36 4 -66.5t14 -53
t27 -35t43 -12.5q35 0 61.5 22.5t44 58.5t26.5 81.5t9 90.5q0 63 -23 101t-67 38zM366 551q-50 0 -87 32t-62 83l73 36q17 -38 42.5 -61.5t46.5 -23.5q23 0 56 17t83 66l31 -28q-45 -63 -94 -92t-89 -29z" />
    <glyph glyph-name="Ohungarumlaut" unicode="&#x150;" horiz-adv-x="709" 
d="M460 703q57 0 101 -20t74 -56t46 -85.5t17 -108.5q0 -98 -25.5 -180t-73 -141.5t-115 -93t-152.5 -33.5q-54 0 -98 20t-75 56t-48 86.5t-18 112.5q0 102 29 184t79.5 139.5t117 88.5t141.5 31zM430 636q-47 0 -87.5 -28.5t-70.5 -76.5t-47 -111.5t-17 -132.5
q0 -54 9 -97.5t28 -74t49.5 -47t72.5 -16.5q53 0 94 31.5t68.5 83t42 116.5t14.5 131q0 48 -9.5 88.5t-28.5 70t-48.5 46.5t-69.5 17zM654 915l46 -74l-95.5 -57.5l-96.5 -57.5l-28 41zM489 915l46 -74l-96.5 -57.5l-95.5 -57.5q-8 10 -14 20t-14 21z" />
    <glyph glyph-name="ohungarumlaut" unicode="&#x151;" horiz-adv-x="520" 
d="M344 489q41 0 72.5 -13.5t52.5 -38t32 -58t11 -73.5q0 -69 -20 -126.5t-57 -99.5t-88.5 -65.5t-114.5 -23.5q-80 0 -124 50.5t-44 136.5q0 71 23 128.5t62 98t89.5 62.5t105.5 22zM314 435q-30 0 -55 -18.5t-43.5 -49.5t-29 -71.5t-11.5 -85.5q0 -36 4 -66.5t14 -53
t27 -35t43 -12.5q35 0 61.5 22.5t44 58.5t26.5 81.5t9 90.5q0 63 -23 101t-67 38zM352 753l34 -27l34 -25l-78.5 -83.5l-79.5 -83.5q-2 2 -7.5 6t-12.5 8.5t-12.5 8.5t-7.5 6zM492 753l34 -27l34 -25l-78.5 -83.5l-79.5 -83.5l-40 29z" />
    <glyph glyph-name="Racute" unicode="&#x154;" horiz-adv-x="660" 
d="M374 294l-43.5 2.5t-55.5 7.5l-23 -190q-3 -26 6 -38t33 -18l42 -11l-7 -47h-277l3 41l44 14q12 4 21 9t14.5 11.5t9 16t5.5 23.5l57 461q3 23 -2 36.5t-30 21.5l-37 11l10 44q19 -1 33 -1.5l27 -1t28 -0.5h36q45 0 90.5 1.5t90.5 1.5t82 -9t63 -29.5t40.5 -52
t14.5 -76.5q0 -32 -10.5 -65t-32 -62.5t-54.5 -52.5t-79 -34l46 -101l45 -99q12 -29 28.5 -47.5t47.5 -31.5l-7 -45q-13 -3 -26 -4t-24 -1q-36 0 -65 18t-48 60zM387 622q-19 0 -38 -1.5t-36 -6.5l-30 -245q18 -4 36.5 -5t28.5 -1q57 0 94 13.5t58 35t29 48.5t8 53
q0 61 -41 85t-109 24zM531 902l37 -80l-44.5 -20.5l-57.5 -25.5l-57.5 -25.5t-44.5 -19.5q-2 3 -5 9.5t-6.5 13l-7 13t-4.5 9.5z" />
    <glyph glyph-name="racute" unicode="&#x155;" horiz-adv-x="425" 
d="M250 311l14 28.5t18 33.5q19 37 36.5 60t33 36.5t28 18.5t23.5 5q29 0 45.5 -14t16.5 -38q0 -17 -11 -36.5t-39 -39.5q-8 11 -20.5 18.5t-27.5 7.5q-11 0 -24.5 -7t-27.5 -28q-15 -22 -30 -50.5t-28 -59.5t-23.5 -63t-15.5 -60q-7 -32 -11 -56t-6 -38q-2 -11 -6.5 -16
t-18.5 -7q-20 -3 -35 -7l-31 -8l-8 4t-6 7q10 51 18 96l16 92.5t16 101l18 121.5q-34 -1 -83 -26l-22 28q29 32 65.5 54t74.5 22q22 0 35 -6t20 -16.5t8 -25.5t0 -34l-2.5 -20.5l-3 -26t-4 -27.5t-4.5 -24h2zM390 752l32 -30.5t33 -29.5l-84 -78.5l-84 -78.5q-8 8 -19 17
t-19 17z" />
    <glyph glyph-name="Rcommaaccent" unicode="&#x156;" horiz-adv-x="660" 
d="M374 294l-43.5 2.5t-55.5 7.5l-23 -190q-3 -26 6 -38t33 -18l42 -11l-7 -47h-277l3 41l44 14q12 4 21 9t14.5 11.5t9 16t5.5 23.5l57 461q3 23 -2 36.5t-30 21.5l-37 11l10 44q19 -1 33 -1.5l27 -1t28 -0.5h36q45 0 90.5 1.5t90.5 1.5t82 -9t63 -29.5t40.5 -52
t14.5 -76.5q0 -32 -10.5 -65t-32 -62.5t-54.5 -52.5t-79 -34l46 -101l45 -99q12 -29 28.5 -47.5t47.5 -31.5l-7 -45q-13 -3 -26 -4t-24 -1q-36 0 -65 18t-48 60zM387 622q-19 0 -38 -1.5t-36 -6.5l-30 -245q18 -4 36.5 -5t28.5 -1q57 0 94 13.5t58 35t29 48.5t8 53
q0 61 -41 85t-109 24zM373 -30q29 0 45 -19.5t16 -48.5q0 -45 -35.5 -89t-97.5 -74q-2 4 -7 12.5t-7 12.5q27 20 39.5 39t20.5 42q-21 3 -33.5 18t-12.5 35q0 29 21 50.5t51 21.5z" />
    <glyph glyph-name="rcommaaccent" unicode="&#x157;" horiz-adv-x="425" 
d="M250 311l14 28.5t18 33.5q19 37 36.5 60t33 36.5t28 18.5t23.5 5q29 0 45.5 -14t16.5 -38q0 -17 -11 -36.5t-39 -39.5q-8 11 -20.5 18.5t-27.5 7.5q-11 0 -24.5 -7t-27.5 -28q-15 -22 -30 -50.5t-28 -59.5t-23.5 -63t-15.5 -60q-7 -32 -11 -56t-6 -38q-2 -11 -6.5 -16
t-18.5 -7q-20 -3 -35 -7l-31 -8l-8 4t-6 7q10 51 18 96l16 92.5t16 101l18 121.5q-34 -1 -83 -26l-22 28q29 32 65.5 54t74.5 22q22 0 35 -6t20 -16.5t8 -25.5t0 -34l-2.5 -20.5l-3 -26t-4 -27.5t-4.5 -24h2zM133 -48q29 0 45 -19.5t16 -48.5q0 -45 -35.5 -89t-97.5 -74
q-2 4 -7 12.5t-7 12.5q27 20 39.5 39t20.5 42q-21 3 -33.5 18t-12.5 35q0 29 21 50.5t51 21.5z" />
    <glyph glyph-name="Rcaron" unicode="&#x158;" horiz-adv-x="660" 
d="M374 294l-43.5 2.5t-55.5 7.5l-23 -190q-3 -26 6 -38t33 -18l42 -11l-7 -47h-277l3 41l44 14q12 4 21 9t14.5 11.5t9 16t5.5 23.5l57 461q3 23 -2 36.5t-30 21.5l-37 11l10 44q19 -1 33 -1.5l27 -1t28 -0.5h36q45 0 90.5 1.5t90.5 1.5t82 -9t63 -29.5t40.5 -52
t14.5 -76.5q0 -32 -10.5 -65t-32 -62.5t-54.5 -52.5t-79 -34l46 -101l45 -99q12 -29 28.5 -47.5t47.5 -31.5l-7 -45q-13 -3 -26 -4t-24 -1q-36 0 -65 18t-48 60zM387 622q-19 0 -38 -1.5t-36 -6.5l-30 -245q18 -4 36.5 -5t28.5 -1q57 0 94 13.5t58 35t29 48.5t8 53
q0 61 -41 85t-109 24zM572 917q6 -8 11 -15.5l10 -15.5l-178 -154h-55l-72.5 77l-71.5 77q4 5 15 16l15 15l32.5 -22l42.5 -29.5l42.5 -30l32.5 -23.5z" />
    <glyph glyph-name="rcaron" unicode="&#x159;" horiz-adv-x="425" 
d="M250 311l14 28.5t18 33.5q19 37 36.5 60t33 36.5t28 18.5t23.5 5q29 0 45.5 -14t16.5 -38q0 -17 -11 -36.5t-39 -39.5q-8 11 -20.5 18.5t-27.5 7.5q-11 0 -24.5 -7t-27.5 -28q-15 -22 -30 -50.5t-28 -59.5t-23.5 -63t-15.5 -60q-7 -32 -11 -56t-6 -38q-2 -11 -6.5 -16
t-18.5 -7q-20 -3 -35 -7l-31 -8l-8 4t-6 7q10 51 18 96l16 92.5t16 101l18 121.5q-34 -1 -83 -26l-22 28q29 32 65.5 54t74.5 22q22 0 35 -6t20 -16.5t8 -25.5t0 -34l-2.5 -20.5l-3 -26t-4 -27.5t-4.5 -24h2zM468 736q6 -7 11 -15l10 -16l-178 -160h-56l-143 160l15 15.5
t14 16.5l32.5 -24.5l42 -32l42 -32l32.5 -24.5z" />
    <glyph glyph-name="Sacute" unicode="&#x15a;" horiz-adv-x="583" 
d="M362 704q16 0 40 -1.5t51 -6t56 -12t56 -19.5l-21 -183l-40 -5l-10 49q-11 52 -48 78.5t-97 26.5q-48 0 -82 -24t-34 -71q0 -20 13 -37.5t33.5 -32.5t46.5 -29.5l53 -28.5q37 -19 69 -39t55 -44t36.5 -53t13.5 -67q0 -45 -18 -85t-53.5 -70.5t-87.5 -48t-120 -17.5
q-54 0 -111 12.5t-106 36.5q1 16 3 43t4.5 56t4.5 55.5t3 43.5l36 7l18 -73q9 -34 23.5 -55.5t34.5 -34t46.5 -17t58.5 -4.5q34 0 62.5 10.5t48 28.5t30.5 41t11 48q0 24 -10 43.5t-29 36t-45.5 32.5t-60.5 33q-36 18 -68 36.5t-56.5 41t-38.5 50t-14 64.5q0 39 15 73t45 59
t75.5 39t107.5 14zM479 902l37 -80l-44.5 -20.5l-57.5 -25.5l-57.5 -25.5t-44.5 -19.5q-2 3 -5 9.5t-6.5 13l-7 13t-4.5 9.5z" />
    <glyph glyph-name="sacute" unicode="&#x15b;" horiz-adv-x="429" 
d="M299 488q19 0 40 -3.5t38.5 -12t29.5 -22t13 -33.5q0 -25 -18.5 -39t-52.5 -17q-15 42 -39.5 57t-49.5 15q-32 0 -51.5 -14t-20.5 -37q1 -20 17 -38t40 -35.5t52 -35.5t51.5 -37.5t39.5 -41t16 -46.5q0 -33 -14.5 -62t-41.5 -50.5t-66.5 -34t-89.5 -12.5q-22 0 -47.5 3.5
t-47 12.5t-36 24t-14.5 37q0 51 70 60q14 -42 45.5 -60t71.5 -18q31 0 51 15.5t20 42.5q0 24 -20 43t-59 44l-49 31t-40.5 31t-28 34t-11.5 41q0 34 17 63t45.5 50t64.5 33t75 12zM377 752l32 -30.5t33 -29.5l-84 -78.5l-84 -78.5q-8 8 -19 17t-19 17z" />
    <glyph glyph-name="Scircumflex" unicode="&#x15c;" horiz-adv-x="583" 
d="M362 704q16 0 40 -1.5t51 -6t56 -12t56 -19.5l-21 -183l-40 -5l-10 49q-11 52 -48 78.5t-97 26.5q-48 0 -82 -24t-34 -71q0 -20 13 -37.5t33.5 -32.5t46.5 -29.5l53 -28.5q37 -19 69 -39t55 -44t36.5 -53t13.5 -67q0 -45 -18 -85t-53.5 -70.5t-87.5 -48t-120 -17.5
q-54 0 -111 12.5t-106 36.5q1 16 3 43t4.5 56t4.5 55.5t3 43.5l36 7l18 -73q9 -34 23.5 -55.5t34.5 -34t46.5 -17t58.5 -4.5q34 0 62.5 10.5t48 28.5t30.5 41t11 48q0 24 -10 43.5t-29 36t-45.5 32.5t-60.5 33q-36 18 -68 36.5t-56.5 41t-38.5 50t-14 64.5q0 39 15 73t45 59
t75.5 39t107.5 14zM368 833l-87 -53.5l-87 -53.5l-21 30l88 78l89 77h56l72 -76.5l72 -77.5q-8 -7 -16 -16l-14 -16z" />
    <glyph glyph-name="scircumflex" unicode="&#x15d;" horiz-adv-x="429" 
d="M299 488q19 0 40 -3.5t38.5 -12t29.5 -22t13 -33.5q0 -25 -18.5 -39t-52.5 -17q-15 42 -39.5 57t-49.5 15q-32 0 -51.5 -14t-20.5 -37q1 -20 17 -38t40 -35.5t52 -35.5t51.5 -37.5t39.5 -41t16 -46.5q0 -33 -14.5 -62t-41.5 -50.5t-66.5 -34t-89.5 -12.5q-22 0 -47.5 3.5
t-47 12.5t-36 24t-14.5 37q0 51 70 60q14 -42 45.5 -60t71.5 -18q31 0 51 15.5t20 42.5q0 24 -20 43t-59 44l-49 31t-40.5 31t-28 34t-11.5 41q0 34 17 63t45.5 50t64.5 33t75 12zM296 639l-87 -56.5t-89 -55.5l-22 30l90 81l90 80h56l71.5 -79.5l70.5 -80.5l-31 -32z" />
    <glyph glyph-name="Scedilla" unicode="&#x15e;" horiz-adv-x="583" 
d="M362 704q16 0 40 -1.5t51 -6t56 -12t56 -19.5l-21 -183l-40 -5l-10 49q-11 52 -48 78.5t-97 26.5q-48 0 -82 -24t-34 -71q0 -20 13 -37.5t33.5 -32.5t46.5 -29.5l53 -28.5q37 -19 69 -39t55 -44t36.5 -53t13.5 -67q0 -42 -15.5 -80t-46.5 -67t-76 -48.5t-105 -23.5
l-22 -27l-22 -27q41 -3 70 -19.5t29 -53.5q0 -25 -15.5 -45.5t-42.5 -34.5t-63.5 -22t-77.5 -8l4 34q21 1 41.5 5.5t37.5 12t27.5 18.5t10.5 26q0 13 -8 21t-20 12.5t-25.5 6.5t-24.5 3l-8 18l33 39.5l33 38.5q-53 1 -107.5 13.5t-102.5 35.5q1 16 3 43t4.5 56t4.5 55.5
t3 43.5l36 7l18 -73q9 -34 23.5 -55.5t34.5 -34t46.5 -17t58.5 -4.5q34 0 62.5 10.5t48 28.5t30.5 41t11 48q0 24 -10 43.5t-29 36t-45.5 32.5t-60.5 33q-36 18 -68 36.5t-56.5 41t-38.5 50t-14 64.5q0 39 15 73t45 59t75.5 39t107.5 14z" />
    <glyph glyph-name="scedilla" unicode="&#x15f;" horiz-adv-x="429" 
d="M299 488q19 0 40 -3.5t38.5 -12t29.5 -22t13 -33.5q0 -25 -18.5 -39t-52.5 -17q-15 42 -39.5 57t-49.5 15q-32 0 -51.5 -14t-20.5 -37q1 -20 17 -38t40 -35.5t52 -35.5t51.5 -37.5t39.5 -41t16 -46.5q0 -59 -43.5 -102.5t-123.5 -53.5l-25.5 -30l-24.5 -30
q41 -3 70 -19.5t29 -53.5q0 -25 -15.5 -45.5t-42.5 -34.5t-63.5 -22t-77.5 -8l4 34q21 1 41.5 5.5t37.5 12t27.5 18.5t10.5 26q0 13 -8 21t-20 12.5t-25.5 6.5t-24.5 3l-8 18l70 83q-22 0 -47.5 3.5t-47 12.5t-36 24t-14.5 37q0 51 70 60q14 -42 45.5 -60t71.5 -18
q31 0 51 15.5t20 42.5q0 24 -20 43t-59 44l-49 31t-40.5 31t-28 34t-11.5 41q0 34 17 63t45.5 50t64.5 33t75 12z" />
    <glyph glyph-name="Tcommaaccent" unicode="&#x162;" horiz-adv-x="635" 
d="M338 623h-103q-35 0 -51 -16.5t-32 -53.5l-30 -69l-39 6l27 193l13 7q69 -2 133.5 -3t142.5 -1q69 0 138.5 1t138.5 3l10 -6q-2 -17 -4.5 -43l-5.5 -54.5l-6 -54.5t-4 -42l-41 -6l-13 66q-4 22 -8.5 36.5t-11.5 22.5t-18 11t-27 3h-103l-63 -509q-3 -26 4.5 -38t33.5 -18
l47 -12l-7 -46h-283q0 5 2 20.5t2 20.5l45 14q24 8 34.5 19.5t14.5 40.5zM306 -45q29 0 45 -19.5t16 -48.5q0 -45 -35.5 -89t-97.5 -74q-2 4 -7 12.5t-7 12.5q27 20 39.5 39t20.5 42q-21 3 -33.5 18t-12.5 35q0 29 21 50.5t51 21.5z" />
    <glyph glyph-name="tcommaaccent" unicode="&#x163;" horiz-adv-x="366" 
d="M255 424l-31 -179.5t-27 -180.5q16 0 34 4t35.5 9.5t33.5 12.5t28 14l20 -30q-42 -41 -93 -63.5t-97 -22.5q-67 0 -67 60q0 7 0.5 15t1.5 18q11 82 27.5 172.5t33.5 170.5h-86l6 35l97 29l61 125h54l-23 -135h118l-10 -54h-116zM145 -49q29 0 45 -19.5t16 -48.5
q0 -45 -35.5 -89t-97.5 -74q-2 4 -7 12.5t-7 12.5q27 20 39.5 39t20.5 42q-21 3 -33.5 18t-12.5 35q0 29 21 50.5t51 21.5z" />
    <glyph glyph-name="Tcaron" unicode="&#x164;" horiz-adv-x="635" 
d="M338 623h-103q-35 0 -51 -16.5t-32 -53.5l-30 -69l-39 6l27 193l13 7q69 -2 133.5 -3t142.5 -1q69 0 138.5 1t138.5 3l10 -6q-2 -17 -4.5 -43l-5.5 -54.5l-6 -54.5t-4 -42l-41 -6l-13 66q-4 22 -8.5 36.5t-11.5 22.5t-18 11t-27 3h-103l-63 -509q-3 -26 4.5 -38t33.5 -18
l47 -12l-7 -46h-283q0 5 2 20.5t2 20.5l45 14q24 8 34.5 19.5t14.5 40.5zM585 917q6 -8 11 -15.5l10 -15.5l-178 -154h-55l-72.5 77l-71.5 77q4 5 15 16l15 15l32.5 -22l42.5 -29.5l42.5 -30l32.5 -23.5z" />
    <glyph glyph-name="tcaron" unicode="&#x165;" horiz-adv-x="486" 
d="M255 424l-31 -179.5t-27 -180.5q16 0 34 4t35.5 9.5t33.5 12.5t28 14l20 -30q-42 -41 -93 -63.5t-97 -22.5q-67 0 -67 60q0 7 0.5 15t1.5 18q11 82 27.5 172.5t33.5 170.5h-86l6 35l97 29l61 125h54l-23 -135h118l-10 -54h-116zM460 752q29 0 45 -19.5t16 -48.5
q0 -45 -35.5 -89t-97.5 -74q-2 4 -7 12.5t-7 12.5q27 20 39.5 39t20.5 42q-21 3 -33.5 18t-12.5 35q0 29 21 50.5t51 21.5z" />
    <glyph glyph-name="Tbar" unicode="&#x166;" horiz-adv-x="635" 
d="M112 395h197l29 228h-103q-35 0 -51 -16.5t-32 -53.5l-30 -69l-39 6l27 193l13 7q69 -2 133.5 -3t142.5 -1q69 0 138.5 1t138.5 3l10 -6q-2 -17 -4.5 -43l-5.5 -54.5l-6 -54.5t-4 -42l-41 -6l-13 66q-4 22 -8.5 36.5t-11.5 22.5t-18 11t-27 3h-103l-28 -228h202l-5 -44
h-203l-29 -237q-3 -26 4.5 -38t33.5 -18l47 -12l-7 -46h-283q0 5 2 20.5t2 20.5l45 14q24 8 34.5 19.5t14.5 40.5l29 236h-196z" />
    <glyph glyph-name="tbar" unicode="&#x167;" horiz-adv-x="366" 
d="M255 424l-19 -107h126l-8 -44h-125l-17.5 -104.5t-14.5 -104.5q16 0 34 4t35.5 9.5t33.5 12.5t28 14l20 -30q-42 -41 -93 -63.5t-97 -22.5q-67 0 -67 60q0 7 0.5 15t1.5 18q6 45 14 94t17 98h-84l7 44h85q5 28 11 54.5t11 52.5h-86l6 35l97 29l61 125h54l-23 -135h118
l-10 -54h-116z" />
    <glyph glyph-name="Utilde" unicode="&#x168;" horiz-adv-x="751" 
d="M648 219q-8 -62 -31 -107t-59 -73.5t-83 -42t-102 -13.5q-46 0 -87.5 10.5t-72.5 34t-49 60t-18 89.5v20t2 21l46 360q4 26 -4 35.5t-31 17.5l-42 15l7 41h278q-1 -11 -2.5 -22.5t-2.5 -22.5l-43 -11q-34 -8 -43 -21.5t-12 -36.5l-40 -324q-2 -15 -3 -30t-1 -29
q0 -29 6.5 -54t22.5 -43t43.5 -28t70.5 -10q50 0 82.5 17t53 45t30.5 64.5t15 75.5l39 321q4 26 -3.5 36t-30.5 18l-40 14l5 41h244l-5 -47l-40 -9q-34 -8 -43.5 -21.5t-12.5 -36.5zM628 862l13.5 -4l13.5 -4q-6 -21 -15.5 -40.5t-23 -34.5t-32 -24t-42.5 -9
q-23 0 -39.5 6.5t-31.5 14.5t-29.5 14.5t-32.5 6.5q-20 0 -36.5 -8.5t-33.5 -37.5l-30 9q4 14 11.5 33t21 36.5t33 29.5t47.5 12q17 0 34.5 -7t35 -15l34 -15t31.5 -7q23 0 38 8.5t33 35.5z" />
    <glyph glyph-name="utilde" unicode="&#x169;" horiz-adv-x="604" 
d="M167 414q-21 -2 -41.5 -9t-43.5 -19l-20 25q13 15 30.5 29.5t36.5 26t39 18t38 6.5q42 0 53.5 -23t7.5 -58q-5 -33 -13.5 -75.5l-17 -84.5t-14 -78t-4.5 -55q0 -17 7.5 -26t19.5 -9q19 0 42 18t45 43.5t41 53t30 45.5q9 15 16.5 29.5l13.5 26.5q3 6 7 26l8.5 44t8 47.5
t4.5 36.5q2 10 5.5 14t14.5 6q41 8 73 17l8 -4t5 -7l-20 -107l-17 -96.5t-15.5 -97.5l-15.5 -108q17 1 38 7.5t44 17.5l22 -28q-29 -32 -66 -53.5t-74 -21.5q-36 0 -50 15t-14 42q0 25 5 61.5t12 73.5h-3q-20 -29 -45.5 -62t-55 -61t-62.5 -47t-68 -19q-32 0 -51 20t-20 52
q-1 24 4 60t13.5 81.5l19 98t20.5 108.5h-1zM526 686l13.5 -4l13.5 -4q-6 -21 -15.5 -40.5t-23 -34.5t-32 -24t-42.5 -9q-23 0 -39.5 6.5t-31.5 14.5t-29.5 14.5t-32.5 6.5q-20 0 -36.5 -8.5t-33.5 -37.5l-30 9q4 14 11.5 33t21 36.5t33 29.5t47.5 12q17 0 34.5 -7t35 -15
l34 -15t31.5 -7q23 0 38 8.5t33 35.5z" />
    <glyph glyph-name="Umacron" unicode="&#x16a;" horiz-adv-x="751" 
d="M648 219q-8 -62 -31 -107t-59 -73.5t-83 -42t-102 -13.5q-46 0 -87.5 10.5t-72.5 34t-49 60t-18 89.5v20t2 21l46 360q4 26 -4 35.5t-31 17.5l-42 15l7 41h278q-1 -11 -2.5 -22.5t-2.5 -22.5l-43 -11q-34 -8 -43 -21.5t-12 -36.5l-40 -324q-2 -15 -3 -30t-1 -29
q0 -29 6.5 -54t22.5 -43t43.5 -28t70.5 -10q50 0 82.5 17t53 45t30.5 64.5t15 75.5l39 321q4 26 -3.5 36t-30.5 18l-40 14l5 41h244l-5 -47l-40 -9q-34 -8 -43.5 -21.5t-12.5 -36.5zM647 833l-4 -37l-4 -37h-318l8 74h318z" />
    <glyph glyph-name="umacron" unicode="&#x16b;" horiz-adv-x="604" 
d="M167 414q-21 -2 -41.5 -9t-43.5 -19l-20 25q13 15 30.5 29.5t36.5 26t39 18t38 6.5q42 0 53.5 -23t7.5 -58q-5 -33 -13.5 -75.5l-17 -84.5t-14 -78t-4.5 -55q0 -17 7.5 -26t19.5 -9q19 0 42 18t45 43.5t41 53t30 45.5q9 15 16.5 29.5l13.5 26.5q3 6 7 26l8.5 44t8 47.5
t4.5 36.5q2 10 5.5 14t14.5 6q41 8 73 17l8 -4t5 -7l-20 -107l-17 -96.5t-15.5 -97.5l-15.5 -108q17 1 38 7.5t44 17.5l22 -28q-29 -32 -66 -53.5t-74 -21.5q-36 0 -50 15t-14 42q0 25 5 61.5t12 73.5h-3q-20 -29 -45.5 -62t-55 -61t-62.5 -47t-68 -19q-32 0 -51 20t-20 52
q-1 24 4 60t13.5 81.5l19 98t20.5 108.5h-1zM536 662q-2 -18 -4.5 -34.5t-4.5 -34.5h-318l4 34.5l4 34.5h319z" />
    <glyph glyph-name="Ubreve" unicode="&#x16c;" horiz-adv-x="751" 
d="M648 219q-8 -62 -31 -107t-59 -73.5t-83 -42t-102 -13.5q-46 0 -87.5 10.5t-72.5 34t-49 60t-18 89.5v20t2 21l46 360q4 26 -4 35.5t-31 17.5l-42 15l7 41h278q-1 -11 -2.5 -22.5t-2.5 -22.5l-43 -11q-34 -8 -43 -21.5t-12 -36.5l-40 -324q-2 -15 -3 -30t-1 -29
q0 -29 6.5 -54t22.5 -43t43.5 -28t70.5 -10q50 0 82.5 17t53 45t30.5 64.5t15 75.5l39 321q4 26 -3.5 36t-30.5 18l-40 14l5 41h244l-5 -47l-40 -9q-34 -8 -43.5 -21.5t-12.5 -36.5zM472 716q-50 0 -87 32t-62 83l73 36q17 -38 42.5 -61.5t46.5 -23.5q23 0 56 17t83 66
l31 -28q-45 -63 -94 -92t-89 -29z" />
    <glyph glyph-name="ubreve" unicode="&#x16d;" horiz-adv-x="604" 
d="M167 414q-21 -2 -41.5 -9t-43.5 -19l-20 25q13 15 30.5 29.5t36.5 26t39 18t38 6.5q42 0 53.5 -23t7.5 -58q-5 -33 -13.5 -75.5l-17 -84.5t-14 -78t-4.5 -55q0 -17 7.5 -26t19.5 -9q19 0 42 18t45 43.5t41 53t30 45.5q9 15 16.5 29.5l13.5 26.5q3 6 7 26l8.5 44t8 47.5
t4.5 36.5q2 10 5.5 14t14.5 6q41 8 73 17l8 -4t5 -7l-20 -107l-17 -96.5t-15.5 -97.5l-15.5 -108q17 1 38 7.5t44 17.5l22 -28q-29 -32 -66 -53.5t-74 -21.5q-36 0 -50 15t-14 42q0 25 5 61.5t12 73.5h-3q-20 -29 -45.5 -62t-55 -61t-62.5 -47t-68 -19q-32 0 -51 20t-20 52
q-1 24 4 60t13.5 81.5l19 98t20.5 108.5h-1zM366 551q-50 0 -87 32t-62 83l73 36q17 -38 42.5 -61.5t46.5 -23.5q23 0 56 17t83 66l31 -28q-45 -63 -94 -92t-89 -29z" />
    <glyph glyph-name="Uring" unicode="&#x16e;" horiz-adv-x="751" 
d="M648 219q-8 -62 -31 -107t-59 -73.5t-83 -42t-102 -13.5q-46 0 -87.5 10.5t-72.5 34t-49 60t-18 89.5v20t2 21l46 360q4 26 -4 35.5t-31 17.5l-42 15l7 41h278q-1 -11 -2.5 -22.5t-2.5 -22.5l-43 -11q-34 -8 -43 -21.5t-12 -36.5l-40 -324q-2 -15 -3 -30t-1 -29
q0 -29 6.5 -54t22.5 -43t43.5 -28t70.5 -10q50 0 82.5 17t53 45t30.5 64.5t15 75.5l39 321q4 26 -3.5 36t-30.5 18l-40 14l5 41h244l-5 -47l-40 -9q-34 -8 -43.5 -21.5t-12.5 -36.5zM470 714q-42 0 -68.5 27.5t-26.5 69.5q0 24 9.5 46t26 38.5t38.5 26.5t46 10
q41 0 67.5 -28.5t26.5 -68.5q0 -26 -10 -48t-26.5 -38t-38 -25.5t-44.5 -9.5zM488 882q-24 0 -42.5 -20t-18.5 -45q0 -20 14 -36.5t35 -16.5q12 0 22.5 5.5t19 14.5t13.5 20.5t5 23.5q0 21 -14 37.5t-34 16.5z" />
    <glyph glyph-name="uring" unicode="&#x16f;" horiz-adv-x="604" 
d="M167 414q-21 -2 -41.5 -9t-43.5 -19l-20 25q13 15 30.5 29.5t36.5 26t39 18t38 6.5q42 0 53.5 -23t7.5 -58q-5 -33 -13.5 -75.5l-17 -84.5t-14 -78t-4.5 -55q0 -17 7.5 -26t19.5 -9q19 0 42 18t45 43.5t41 53t30 45.5q9 15 16.5 29.5l13.5 26.5q3 6 7 26l8.5 44t8 47.5
t4.5 36.5q2 10 5.5 14t14.5 6q41 8 73 17l8 -4t5 -7l-20 -107l-17 -96.5t-15.5 -97.5l-15.5 -108q17 1 38 7.5t44 17.5l22 -28q-29 -32 -66 -53.5t-74 -21.5q-36 0 -50 15t-14 42q0 25 5 61.5t12 73.5h-3q-20 -29 -45.5 -62t-55 -61t-62.5 -47t-68 -19q-32 0 -51 20t-20 52
q-1 24 4 60t13.5 81.5l19 98t20.5 108.5h-1zM373 550q-42 0 -68.5 27.5t-26.5 69.5q0 24 9.5 46t26 38.5t38.5 26.5t46 10q41 0 67.5 -28.5t26.5 -68.5q0 -26 -10 -48t-26.5 -38t-38 -25.5t-44.5 -9.5zM391 718q-24 0 -42.5 -20t-18.5 -45q0 -20 14 -36.5t35 -16.5
q12 0 22.5 5.5t19 14.5t13.5 20.5t5 23.5q0 21 -14 37.5t-34 16.5z" />
    <glyph glyph-name="Uhungarumlaut" unicode="&#x170;" horiz-adv-x="751" 
d="M648 219q-8 -62 -31 -107t-59 -73.5t-83 -42t-102 -13.5q-46 0 -87.5 10.5t-72.5 34t-49 60t-18 89.5v20t2 21l46 360q4 26 -4 35.5t-31 17.5l-42 15l7 41h278q-1 -11 -2.5 -22.5t-2.5 -22.5l-43 -11q-34 -8 -43 -21.5t-12 -36.5l-40 -324q-2 -15 -3 -30t-1 -29
q0 -29 6.5 -54t22.5 -43t43.5 -28t70.5 -10q50 0 82.5 17t53 45t30.5 64.5t15 75.5l39 321q4 26 -3.5 36t-30.5 18l-40 14l5 41h244l-5 -47l-40 -9q-34 -8 -43.5 -21.5t-12.5 -36.5zM678 915l46 -74l-95.5 -57.5l-96.5 -57.5l-28 41zM513 915l46 -74l-96.5 -57.5
l-95.5 -57.5q-8 10 -14 20t-14 21z" />
    <glyph glyph-name="uhungarumlaut" unicode="&#x171;" horiz-adv-x="604" 
d="M167 414q-21 -2 -41.5 -9t-43.5 -19l-20 25q13 15 30.5 29.5t36.5 26t39 18t38 6.5q42 0 53.5 -23t7.5 -58q-5 -33 -13.5 -75.5l-17 -84.5t-14 -78t-4.5 -55q0 -17 7.5 -26t19.5 -9q19 0 42 18t45 43.5t41 53t30 45.5q9 15 16.5 29.5l13.5 26.5q3 6 7 26l8.5 44t8 47.5
t4.5 36.5q2 10 5.5 14t14.5 6q41 8 73 17l8 -4t5 -7l-20 -107l-17 -96.5t-15.5 -97.5l-15.5 -108q17 1 38 7.5t44 17.5l22 -28q-29 -32 -66 -53.5t-74 -21.5q-36 0 -50 15t-14 42q0 25 5 61.5t12 73.5h-3q-20 -29 -45.5 -62t-55 -61t-62.5 -47t-68 -19q-32 0 -51 20t-20 52
q-1 24 4 60t13.5 81.5l19 98t20.5 108.5h-1zM381 753l34 -27l34 -25l-78.5 -83.5l-79.5 -83.5q-2 2 -7.5 6t-12.5 8.5t-12.5 8.5t-7.5 6zM521 753l34 -27l34 -25l-78.5 -83.5l-79.5 -83.5l-40 29z" />
    <glyph glyph-name="Uogonek" unicode="&#x172;" horiz-adv-x="751" 
d="M648 219q-7 -59 -28 -101.5t-53.5 -71t-75 -44t-91.5 -18.5q-25 -29 -37 -58.5t-12 -52.5q0 -29 21 -38.5t47 -9.5q15 0 31 2.5t29 5.5l5 -31q-27 -14 -57.5 -21.5t-58.5 -7.5q-51 0 -73 19.5t-22 48.5q0 25 17.5 64t64.5 79q-43 2 -81 13.5t-66.5 35t-45 59t-16.5 85.5
v20t2 21l46 360q4 26 -4 35.5t-31 17.5l-42 15l7 41h278q-1 -11 -2.5 -22.5t-2.5 -22.5l-43 -11q-34 -8 -43 -21.5t-12 -36.5l-40 -324q-2 -15 -3 -30t-1 -29q0 -29 6.5 -54t22.5 -43t43.5 -28t70.5 -10q50 0 82.5 17t53 45t30.5 64.5t15 75.5l39 321q4 26 -3.5 36t-30.5 18
l-40 14l5 41h244l-5 -47l-40 -9q-34 -8 -43.5 -21.5t-12.5 -36.5z" />
    <glyph glyph-name="uogonek" unicode="&#x173;" horiz-adv-x="604" 
d="M167 414q-21 -2 -41.5 -9t-43.5 -19l-20 25q13 15 30.5 29.5t36.5 26t39 18t38 6.5q42 0 53.5 -23t7.5 -58q-5 -33 -13.5 -75.5l-17 -84.5t-14 -78t-4.5 -55q0 -17 7.5 -26t19.5 -9q19 0 42 18t45 43.5t41 53t30 45.5q9 15 16.5 29.5l13.5 26.5q3 6 7 26l8.5 44t8 47.5
t4.5 36.5q2 10 5.5 14t14.5 6q41 8 73 17l8 -4t5 -7l-20 -107l-17 -96.5t-15.5 -97.5l-15.5 -108q17 1 38 7.5t44 17.5l22 -28q-20 -22 -44.5 -39.5t-50.5 -26.5q-27 -30 -40.5 -61t-13.5 -56q0 -29 21 -38.5t47 -9.5q15 0 31 2.5t29 5.5l5 -31q-27 -14 -57.5 -21.5
t-58.5 -7.5q-51 0 -73 19.5t-22 48.5q0 24 17.5 62.5t61.5 77.5q-32 2 -44 16.5t-12 40.5q0 25 5 61.5t12 73.5h-3q-20 -29 -45.5 -62t-55 -61t-62.5 -47t-68 -19q-32 0 -51 20t-20 52q-1 24 4 60t13.5 81.5l19 98t20.5 108.5h-1z" />
    <glyph glyph-name="Wcircumflex" unicode="&#x174;" horiz-adv-x="1027" 
d="M566 417l-86 -187l-53 -117l-53 -116q-20 -3 -39.5 -7t-40.5 -6l-64 293.5l-65 295.5q-7 30 -15.5 42t-31.5 20l-24 10l9 42q44 0 87 0.5t87 0.5q-2 -27 1.5 -55.5t8.5 -56.5l38.5 -226.5l40.5 -235.5l8 1l91 213q17 44 36.5 86.5t36.5 85.5l-8.5 40.5l-8.5 40.5
q-7 27 -15.5 36.5t-27.5 17.5l-28 10l10 42q45 0 89.5 0.5t89.5 0.5q-2 -25 0.5 -50.5t7.5 -51.5q1 -8 7.5 -39.5l15 -72t16 -81.5t12.5 -66l38 -208h8l96 267l34 91.5l34 90.5q8 24 4 38t-33 24l-46 13l8 44q60 0 119.5 0.5t119.5 0.5q-2 -12 -2.5 -23t-1.5 -22
q-27 -12 -48 -33t-38 -47.5t-31 -56.5t-26 -60l-185 -449q-21 -3 -41 -7t-42 -6l-27.5 122l-27.5 124l-38 187h-6zM592 833l-87 -53.5l-87 -53.5l-21 30l88 78l89 77h56l72 -76.5l72 -77.5q-8 -7 -16 -16l-14 -16z" />
    <glyph glyph-name="wcircumflex" unicode="&#x175;" horiz-adv-x="742" 
d="M401 213q-19 -33 -40.5 -65.5t-43.5 -62t-43.5 -54.5t-39.5 -43q-17 2 -34 5l-34 6q0 49 -2 105.5t-5.5 111.5t-10 104.5t-16.5 84.5q-19 -5 -34 -13t-35 -22l-22 29q25 37 60 62t68 25q30 0 45 -19t22 -51q4 -20 8.5 -58.5t7 -84.5t3.5 -94t-1 -85q4 0 6 1
q29 34 51.5 69t38 65.5t25.5 55.5t15 40q0 4 -1 15t-2 15q-4 21 -9 40.5t-13 40.5q-2 5 -1.5 12.5t3.5 10.5q11 11 29.5 17t30.5 6q14 0 22.5 -5.5t15.5 -20.5q9 -18 16 -58t12.5 -90.5t9 -107t4.5 -108.5h6q33 38 58 79.5t42 79t25.5 68t8.5 48.5q0 23 -13.5 34.5
t-32.5 13.5q0 13 5.5 26t15 23.5t22.5 17.5t28 7q37 0 54.5 -22.5t17.5 -61.5q0 -48 -26.5 -105t-65.5 -114t-84 -109t-82 -89q-17 2 -33.5 5l-33.5 6l-4.5 99.5t-9.5 114.5h-4zM450 655l-87 -56.5t-89 -55.5l-22 30l90 81l90 80h56l71.5 -79.5l70.5 -80.5l-31 -32z" />
    <glyph glyph-name="Ycircumflex" unicode="&#x176;" horiz-adv-x="628" 
d="M296 280l-120 298q-10 26 -20.5 36.5t-33.5 18.5l-32 11l8 44h176q-3 -48 17 -100l84 -222h9l125 208q12 20 9 35.5t-31 23.5l-33 9l8 45q57 0 112 0.5t112 0.5l-5 -46q-23 -10 -41 -23t-34.5 -29.5t-33 -38l-35.5 -48.5l-133 -197l-23 -192q-3 -26 5 -37.5t34 -18.5
l46 -11l-7 -47h-281q0 5 1.5 20.5t1.5 20.5l45 14q12 4 20.5 8.5t14 11.5t9 16.5t5.5 23.5zM408 833l-87 -53.5l-87 -53.5l-21 30l88 78l89 77h56l72 -76.5l72 -77.5q-8 -7 -16 -16l-14 -16z" />
    <glyph glyph-name="ycircumflex" unicode="&#x177;" horiz-adv-x="551" 
d="M168 -5q-32 0 -51.5 19t-19.5 51q0 23 5 59t13 81.5l18 98l21 108.5q-24 -3 -43.5 -9.5t-43.5 -18.5l-9.5 13.5t-9.5 12.5q13 15 30.5 29.5t36.5 25.5t38.5 17.5t36.5 6.5q29 0 46 -11.5t19 -37.5q0 -14 -4 -38.5t-9.5 -55l-12 -64l-12 -64.5t-9.5 -56.5t-4 -40.5
q0 -17 6.5 -29t20.5 -12q23 0 46.5 18t44.5 43.5t38.5 53.5l29.5 47q9 15 16 29t12 27q3 6 7.5 26t9 44t8 47t4.5 35q2 10 5.5 14.5t15.5 7.5q19 3 37 7t35 9l8 -4t5 -7q-9 -50 -19 -98.5l-20 -98.5q-8 -45 -21 -101t-32 -114t-45 -113t-59.5 -98.5t-76.5 -69.5t-96 -26
q-27 0 -48 6.5t-35.5 16.5t-21.5 22.5t-7 23.5q0 17 13 34.5t52 27.5q7 -24 28 -40.5t48 -16.5q33 0 59.5 23.5t47.5 57t35.5 71.5t23.5 67q23 70 36 146q-2 0 -2.5 0.5t-2.5 0.5q-18 -30 -44.5 -65t-58.5 -66t-67.5 -51.5t-71.5 -20.5zM370 655l-87 -56.5t-89 -55.5l-22 30
l90 81l90 80h56l71.5 -79.5l70.5 -80.5l-31 -32z" />
    <glyph glyph-name="Zacute" unicode="&#x179;" horiz-adv-x="614" 
d="M545 0q-58 1 -120.5 1h-127.5h-128t-121 -1l-9 47q6 7 27 34l51.5 65.5l68 86l76.5 97l76.5 97l68.5 87l53 67l29 36.5l-186 -2q-21 0 -35.5 -4t-25 -12.5t-18 -21.5t-15.5 -31l-28 -62l-41 7q8 49 17 96.5t17 96.5l8 6q54 -2 110 -2h114h114.5t109.5 1l8 -49
q-6 -7 -26.5 -33l-51.5 -64.5l-68.5 -86l-76.5 -97l-77 -97.5l-69.5 -88l-53 -67.5t-28.5 -35.5q60 1 120.5 1.5t117.5 2.5q32 1 53.5 12t41.5 46l47 83l35 -9q-11 -51 -24 -99.5t-24 -99.5zM516 902l37 -80l-44.5 -20.5l-57.5 -25.5l-57.5 -25.5t-44.5 -19.5q-2 3 -5 9.5
t-6.5 13l-7 13t-4.5 9.5z" />
    <glyph glyph-name="zacute" unicode="&#x17a;" horiz-adv-x="484" 
d="M168 410l-55 -80l-30 9l15 62t15 61q5 14 12.5 19t24.5 4q33 -2 56 -3t40.5 -2t30.5 -1h27q33 0 80 2l90 4l6 -13.5t5 -13.5l-39.5 -50.5l-60.5 -76.5l-54.5 -68.5l-55.5 -70.5l-51 -67t-41 -58q32 1 64.5 1h64.5q20 0 38 0.5t38 0.5l57 87l31 -9l-17 -68t-18 -68
q-6 -23 -32 -21q-43 4 -85.5 6t-89.5 2q-41 0 -86.5 0.5t-93.5 -2.5l-4 12.5l-4 13.5q15 21 40 53l54 68l56.5 70.5l57 72l52.5 68t43 58.5zM383 752l32 -30.5t33 -29.5l-84 -78.5l-84 -78.5q-8 8 -19 17t-19 17z" />
    <glyph glyph-name="Zdotaccent" unicode="&#x17b;" horiz-adv-x="614" 
d="M545 0q-58 1 -120.5 1h-127.5h-128t-121 -1l-9 47q6 7 27 34l51.5 65.5l68 86l76.5 97l76.5 97l68.5 87l53 67l29 36.5l-186 -2q-21 0 -35.5 -4t-25 -12.5t-18 -21.5t-15.5 -31l-28 -62l-41 7q8 49 17 96.5t17 96.5l8 6q54 -2 110 -2h114h114.5t109.5 1l8 -49
q-6 -7 -26.5 -33l-51.5 -64.5l-68.5 -86l-76.5 -97l-77 -97.5l-69.5 -88l-53 -67.5t-28.5 -35.5q60 1 120.5 1.5t117.5 2.5q32 1 53.5 12t41.5 46l47 83l35 -9q-11 -51 -24 -99.5t-24 -99.5zM424 884q26 0 42 -16.5t16 -41.5q0 -31 -21 -53.5t-51 -22.5q-28 0 -43.5 17
t-15.5 43q0 32 22 53t51 21z" />
    <glyph glyph-name="zdotaccent" unicode="&#x17c;" horiz-adv-x="484" 
d="M168 410l-55 -80l-30 9l15 62t15 61q5 14 12.5 19t24.5 4q33 -2 56 -3t40.5 -2t30.5 -1h27q33 0 80 2l90 4l6 -13.5t5 -13.5l-39.5 -50.5l-60.5 -76.5l-54.5 -68.5l-55.5 -70.5l-51 -67t-41 -58q32 1 64.5 1h64.5q20 0 38 0.5t38 0.5l57 87l31 -9l-17 -68t-18 -68
q-6 -23 -32 -21q-43 4 -85.5 6t-89.5 2q-41 0 -86.5 0.5t-93.5 -2.5l-4 12.5l-4 13.5q15 21 40 53l54 68l56.5 70.5l57 72l52.5 68t43 58.5zM337 711q26 0 42 -16.5t16 -41.5q0 -31 -21 -53.5t-51 -22.5q-28 0 -43.5 17t-15.5 43q0 32 22 53t51 21z" />
    <glyph glyph-name="Ohorn" unicode="&#x1a0;" horiz-adv-x="758" 
d="M460 703q75 0 127.5 -34.5t80.5 -94.5q32 12 51.5 34.5t19.5 52.5q0 29 -18.5 44t-42.5 29q12 17 27 28t34 11q31 0 53.5 -23t22.5 -66q0 -26 -10.5 -49.5t-28.5 -42.5t-42 -33.5t-51 -23.5q13 -46 15 -102q0 -98 -25.5 -180t-73 -141.5t-115 -93t-152.5 -33.5
q-54 0 -98 20t-75 56t-48 86.5t-18 112.5q0 102 29 184t79.5 139.5t117 88.5t141.5 31zM430 636q-47 0 -87.5 -28.5t-70.5 -76.5t-47 -111.5t-17 -132.5q0 -54 9 -97.5t28 -74t49.5 -47t72.5 -16.5q53 0 94 31.5t68.5 83t42 116.5t14.5 131q0 48 -9.5 88.5t-28.5 70
t-48.5 46.5t-69.5 17z" />
    <glyph glyph-name="ohorn" unicode="&#x1a1;" horiz-adv-x="583" 
d="M344 489q52 0 88.5 -21.5t56.5 -59.5q30 12 49 34.5t19 52.5q0 29 -18 43.5t-43 28.5q12 17 27 28.5t34 11.5q31 0 53.5 -23.5t22.5 -65.5q0 -26 -10 -49t-27.5 -42.5t-41 -34t-50.5 -23.5q8 -30 8 -63q0 -69 -20 -126.5t-57 -99.5t-88.5 -65.5t-114.5 -23.5
q-80 0 -124 50.5t-44 136.5q0 71 23 128.5t62 98t89.5 62.5t105.5 22zM314 435q-30 0 -55 -18.5t-43.5 -49.5t-29 -71.5t-11.5 -85.5q0 -36 4 -66.5t14 -53t27 -35t43 -12.5q35 0 61.5 22.5t44 58.5t26.5 81.5t9 90.5q0 63 -23 101t-67 38z" />
    <glyph glyph-name="Uhorn" unicode="&#x1af;" horiz-adv-x="844" 
d="M691 566q30 3 55 13t43 25t28.5 33.5t10.5 38.5q0 29 -18 43.5t-42 28.5q11 17 26.5 28.5t34.5 11.5q31 0 53.5 -23.5t22.5 -65.5q0 -33 -18 -63t-48.5 -54t-70 -38.5t-82.5 -15.5l-38 -309q-8 -62 -31 -107t-59 -73.5t-83 -42t-102 -13.5q-46 0 -87.5 10.5t-72.5 34
t-49 60t-18 89.5q0 20 3 41l45 360q4 26 -4 35.5t-31 17.5l-42 15l7 41h278q-1 -11 -2.5 -22.5t-2.5 -22.5l-43 -11q-34 -8 -43 -21.5t-12 -36.5l-39 -324q-2 -15 -3.5 -30t-1.5 -29q0 -29 6.5 -54t22.5 -43t43.5 -28t70.5 -10q50 0 82.5 17t53 45t30.5 64.5t15 75.5l39 321
q4 26 -3.5 36t-30.5 18l-40 14l5 41h244l-5 -47l-40 -9q-34 -8 -43.5 -21.5t-12.5 -36.5z" />
    <glyph glyph-name="uhorn" unicode="&#x1b0;" horiz-adv-x="677" 
d="M167 414q-21 -2 -41.5 -9t-43.5 -19l-20 25q13 15 30.5 29.5t36.5 26t39 18t38 6.5q42 0 53.5 -23t7.5 -58q-5 -33 -13.5 -75.5l-17 -84.5t-14 -78t-4.5 -55q0 -17 7.5 -26t19.5 -9q19 0 42 18t45 43.5t41 53t30 45.5q9 15 16.5 29.5l13.5 26.5q3 6 7 26l8.5 44t8 47.5
t4.5 36.5q2 10 5.5 14t14.5 6q41 8 73 17l8 -4t5 -7l-11 -56q39 10 64.5 35t25.5 60q0 29 -18 43.5t-42 28.5q11 17 26.5 28.5t34.5 11.5q31 0 53.5 -23.5t22.5 -65.5q0 -31 -14.5 -58t-38.5 -48t-55.5 -35t-65.5 -18l-13.5 -76l-12.5 -74l-12 -77t-12 -85q17 1 38 7.5
t44 17.5l22 -28q-29 -32 -66 -53.5t-74 -21.5q-36 0 -50 15t-14 42q0 25 5 61.5t12 73.5h-3q-20 -29 -45.5 -62t-55 -61t-62.5 -47t-68 -19q-32 0 -51 20t-20 52q-1 24 4 60t13.5 81.5l19 98t20.5 108.5h-1z" />
    <glyph glyph-name="AEacute" unicode="&#x1fc;" horiz-adv-x="977" 
d="M427 43l42 13q26 8 36.5 21.5t13.5 40.5q4 29 6 58.5t5 58.5h-231l-90 -129q-14 -18 -9 -32.5t31 -21.5l32 -8l-5 -44h-240l3 42l31 9q28 8 50 31.5t42 52.5l333 456q9 13 9 22q0 10 -8 14.5t-18 6.5l-31 9l10 45q118 -3 245 -3q76 0 147 1.5t137 3.5l10 -5
q-3 -48 -6.5 -94.5t-7.5 -94.5l-36 -5l-15 69q-4 18 -8.5 29t-12 17t-19 8.5t-28.5 2.5q-33 1 -73.5 1.5t-98.5 0.5l-11.5 -125t-10.5 -125l119 4l119 4q-2 -20 -4 -37.5l-4 -36.5l-237 8l-17 -186q-2 -18 0.5 -29t9.5 -16.5t19 -7t31 -1.5q45 0 72.5 0.5t49.5 0.5
q33 1 53 11.5t39 45.5l21.5 38l21.5 38q8 -2 17 -4t17 -4l-42 -188l-18 -13q-34 0 -60 1t-50.5 2.5t-52 2.5t-63.5 1q-78 0 -145.5 -0.5t-118.5 -2.5zM560 613l-223 -318h199l29 318h-5zM866 902l37 -80l-44.5 -20.5l-57.5 -25.5l-57.5 -25.5t-44.5 -19.5q-2 3 -5 9.5
t-6.5 13l-7 13t-4.5 9.5z" />
    <glyph glyph-name="aeacute" unicode="&#x1fd;" horiz-adv-x="708" 
d="M605 489q48 0 76 -29t30 -77q0 -35 -18.5 -62t-52.5 -48t-82 -36t-106 -24q-1 -8 -2 -25.5t-1 -29.5q0 -48 17.5 -74.5t52.5 -26.5q37 0 74.5 21t72.5 53l27 -26q-14 -18 -36 -38.5t-49.5 -38t-60 -28.5t-68.5 -11q-89 0 -120 73q-59 -44 -111 -59.5t-87 -15.5
q-54 0 -79.5 24.5t-25.5 79.5q0 28 14 56t48 51t92 39.5t145 21.5q3 19 6.5 38.5t3.5 36.5q0 44 -22.5 61t-60.5 17q-29 0 -65 -7t-68 -17l-15 48q36 21 84.5 35.5t96.5 14.5q42 0 78.5 -16.5t49.5 -56.5q35 34 77.5 55t84.5 21zM346 103q-2 8 -3 26.5t-1 34.5q0 14 1 26.5
t2 23.5q-66 -5 -103 -19.5t-55.5 -31t-22.5 -32.5t-4 -25q0 -19 10 -34t33 -15q35 0 71.5 13t71.5 33zM458 260q0 -1 1 -2q28 6 56.5 14.5t52 22t38 33t14.5 45.5q0 30 -15.5 44.5t-31.5 14.5q-18 0 -35.5 -10t-33.5 -31t-28 -53.5t-18 -77.5zM555 752l32 -30.5t33 -29.5
l-84 -78.5l-84 -78.5q-8 8 -19 17t-19 17z" />
    <glyph glyph-name="Oslashacute" unicode="&#x1fe;" horiz-adv-x="709" 
d="M455 703q58 0 102.5 -21t75.5 -59l67 70l28 -32l-72 -73q37 -66 37 -155q1 -98 -24.5 -180t-73.5 -141.5t-116 -93t-152 -33.5q-57 0 -102 21.5t-76 60.5l-64 -65l-28 31l68 70q-36 66 -37 157q-1 102 28.5 184t80 139.5t117.5 88.5t141 31zM581 421q-1 21 -3.5 41
t-8.5 38l-344 -355q18 -45 51 -69t86 -24q54 0 95 32.5t69 84.5t42 118t13 134zM425 636q-48 0 -89 -29t-71 -78t-46.5 -113t-15.5 -134q0 -53 10 -90l343 354q-18 42 -50.5 66t-80.5 24zM600 902l37 -80l-44.5 -20.5l-57.5 -25.5l-57.5 -25.5t-44.5 -19.5q-2 3 -5 9.5
t-6.5 13l-7 13t-4.5 9.5z" />
    </font>
</defs>
</svg>
